solid beamModelWithBase
   facet normal 0.000000e+000 1.000000e+000 0.000000e+000
      outer loop
         vertex 3.175000e+001 7.620000e+000 5.080000e+001
         vertex 5.080000e+001 7.620000e+000 7.620000e+001
         vertex 5.080000e+001 7.620000e+000 0.000000e+000
      endloop
   endfacet
   facet normal 0.000000e+000 1.000000e+000 0.000000e+000
      outer loop
         vertex 5.080000e+001 7.620000e+000 7.620000e+001
         vertex 3.175000e+001 7.620000e+000 5.080000e+001
         vertex 0.000000e+000 7.620000e+000 7.620000e+001
      endloop
   endfacet
   facet normal 0.000000e+000 1.000000e+000 0.000000e+000
      outer loop
         vertex 0.000000e+000 7.620000e+000 7.620000e+001
         vertex 3.175000e+001 7.620000e+000 5.080000e+001
         vertex 1.905000e+001 7.620000e+000 5.080000e+001
      endloop
   endfacet
   facet normal 0.000000e+000 1.000000e+000 0.000000e+000
      outer loop
         vertex 0.000000e+000 7.620000e+000 7.620000e+001
         vertex 1.905000e+001 7.620000e+000 5.080000e+001
         vertex 0.000000e+000 7.620000e+000 0.000000e+000
      endloop
   endfacet
   facet normal 0.000000e+000 1.000000e+000 0.000000e+000
      outer loop
         vertex 0.000000e+000 7.620000e+000 0.000000e+000
         vertex 1.905000e+001 7.620000e+000 5.080000e+001
         vertex 1.905000e+001 7.620000e+000 2.540000e+001
      endloop
   endfacet
   facet normal 0.000000e+000 1.000000e+000 0.000000e+000
      outer loop
         vertex 0.000000e+000 7.620000e+000 0.000000e+000
         vertex 1.905000e+001 7.620000e+000 2.540000e+001
         vertex 5.080000e+001 7.620000e+000 0.000000e+000
      endloop
   endfacet
   facet normal 0.000000e+000 1.000000e+000 0.000000e+000
      outer loop
         vertex 5.080000e+001 7.620000e+000 0.000000e+000
         vertex 1.905000e+001 7.620000e+000 2.540000e+001
         vertex 3.175000e+001 7.620000e+000 2.540000e+001
      endloop
   endfacet
   facet normal 0.000000e+000 1.000000e+000 0.000000e+000
      outer loop
         vertex 5.080000e+001 7.620000e+000 0.000000e+000
         vertex 3.175000e+001 7.620000e+000 2.540000e+001
         vertex 3.175000e+001 7.620000e+000 5.080000e+001
      endloop
   endfacet
   facet normal 1.000000e+000 0.000000e+000 0.000000e+000
      outer loop
         vertex 5.080000e+001 7.620000e+000 0.000000e+000
         vertex 5.080000e+001 7.620000e+000 7.620000e+001
         vertex 5.080000e+001 0.000000e+000 0.000000e+000
      endloop
   endfacet
   facet normal 1.000000e+000 0.000000e+000 0.000000e+000
      outer loop
         vertex 5.080000e+001 0.000000e+000 0.000000e+000
         vertex 5.080000e+001 7.620000e+000 7.620000e+001
         vertex 5.080000e+001 0.000000e+000 7.620000e+001
      endloop
   endfacet
   facet normal 0.000000e+000 0.000000e+000 -1.000000e+000
      outer loop
         vertex 0.000000e+000 7.620000e+000 0.000000e+000
         vertex 5.080000e+001 7.620000e+000 0.000000e+000
         vertex 0.000000e+000 1.734723e-015 0.000000e+000
      endloop
   endfacet
   facet normal 0.000000e+000 0.000000e+000 -1.000000e+000
      outer loop
         vertex 0.000000e+000 1.734723e-015 0.000000e+000
         vertex 5.080000e+001 7.620000e+000 0.000000e+000
         vertex 5.080000e+001 1.734723e-015 0.000000e+000
      endloop
   endfacet
   facet normal -1.000000e+000 0.000000e+000 0.000000e+000
      outer loop
         vertex 0.000000e+000 7.620000e+000 7.620000e+001
         vertex 0.000000e+000 7.620000e+000 0.000000e+000
         vertex 0.000000e+000 0.000000e+000 7.620000e+001
      endloop
   endfacet
   facet normal -1.000000e+000 0.000000e+000 0.000000e+000
      outer loop
         vertex 0.000000e+000 0.000000e+000 7.620000e+001
         vertex 0.000000e+000 7.620000e+000 0.000000e+000
         vertex 0.000000e+000 0.000000e+000 0.000000e+000
      endloop
   endfacet
   facet normal 0.000000e+000 0.000000e+000 1.000000e+000
      outer loop
         vertex 5.080000e+001 7.620000e+000 7.620000e+001
         vertex 0.000000e+000 7.620000e+000 7.620000e+001
         vertex 5.080000e+001 1.734723e-015 7.620000e+001
      endloop
   endfacet
   facet normal 0.000000e+000 0.000000e+000 1.000000e+000
      outer loop
         vertex 5.080000e+001 1.734723e-015 7.620000e+001
         vertex 0.000000e+000 7.620000e+000 7.620000e+001
         vertex 0.000000e+000 1.734723e-015 7.620000e+001
      endloop
   endfacet
   facet normal 0.000000e+000 -1.000000e+000 0.000000e+000
      outer loop
         vertex 0.000000e+000 0.000000e+000 7.620000e+001
         vertex 0.000000e+000 0.000000e+000 0.000000e+000
         vertex 5.080000e+001 0.000000e+000 7.620000e+001
      endloop
   endfacet
   facet normal 0.000000e+000 -1.000000e+000 0.000000e+000
      outer loop
         vertex 5.080000e+001 0.000000e+000 7.620000e+001
         vertex 0.000000e+000 0.000000e+000 0.000000e+000
         vertex 5.080000e+001 0.000000e+000 0.000000e+000
      endloop
   endfacet
   facet normal 1.000000e+000 0.000000e+000 0.000000e+000
      outer loop
         vertex 3.175000e+001 2.616200e+002 2.540000e+001
         vertex 3.175000e+001 2.616200e+002 5.080000e+001
         vertex 3.175000e+001 7.620000e+000 2.540000e+001
      endloop
   endfacet
   facet normal 1.000000e+000 0.000000e+000 0.000000e+000
      outer loop
         vertex 3.175000e+001 7.620000e+000 2.540000e+001
         vertex 3.175000e+001 2.616200e+002 5.080000e+001
         vertex 3.175000e+001 7.620000e+000 5.080000e+001
      endloop
   endfacet
   facet normal 0.000000e+000 0.000000e+000 -1.000000e+000
      outer loop
         vertex 1.905000e+001 2.616200e+002 2.540000e+001
         vertex 3.175000e+001 2.616200e+002 2.540000e+001
         vertex 1.905000e+001 7.620000e+000 2.540000e+001
      endloop
   endfacet
   facet normal 0.000000e+000 0.000000e+000 -1.000000e+000
      outer loop
         vertex 1.905000e+001 7.620000e+000 2.540000e+001
         vertex 3.175000e+001 2.616200e+002 2.540000e+001
         vertex 3.175000e+001 7.620000e+000 2.540000e+001
      endloop
   endfacet
   facet normal -1.000000e+000 0.000000e+000 0.000000e+000
      outer loop
         vertex 1.905000e+001 2.616200e+002 5.080000e+001
         vertex 1.905000e+001 2.616200e+002 2.540000e+001
         vertex 1.905000e+001 7.620000e+000 5.080000e+001
      endloop
   endfacet
   facet normal -1.000000e+000 0.000000e+000 0.000000e+000
      outer loop
         vertex 1.905000e+001 7.620000e+000 5.080000e+001
         vertex 1.905000e+001 2.616200e+002 2.540000e+001
         vertex 1.905000e+001 7.620000e+000 2.540000e+001
      endloop
   endfacet
   facet normal 0.000000e+000 0.000000e+000 1.000000e+000
      outer loop
         vertex 3.175000e+001 2.616200e+002 5.080000e+001
         vertex 1.905000e+001 2.616200e+002 5.080000e+001
         vertex 3.175000e+001 7.620000e+000 5.080000e+001
      endloop
   endfacet
   facet normal 0.000000e+000 0.000000e+000 1.000000e+000
      outer loop
         vertex 3.175000e+001 7.620000e+000 5.080000e+001
         vertex 1.905000e+001 2.616200e+002 5.080000e+001
         vertex 1.905000e+001 7.620000e+000 5.080000e+001
      endloop
   endfacet
   facet normal 0.000000e+000 1.000000e+000 0.000000e+000
      outer loop
         vertex 1.905000e+001 2.616200e+002 2.540000e+001
         vertex 1.905000e+001 2.616200e+002 5.080000e+001
         vertex 3.175000e+001 2.616200e+002 2.540000e+001
      endloop
   endfacet
   facet normal 0.000000e+000 1.000000e+000 0.000000e+000
      outer loop
         vertex 3.175000e+001 2.616200e+002 2.540000e+001
         vertex 1.905000e+001 2.616200e+002 5.080000e+001
         vertex 3.175000e+001 2.616200e+002 5.080000e+001
      endloop
   endfacet
endsolid