solid brick
   facet normal -1.000000e+000 0.000000e+000 0.000000e+000
      outer loop
         vertex 0.000000e+000 0.000000e+000 5.080000e+001
         vertex 0.000000e+000 7.620000e+001 5.080000e+001
         vertex 0.000000e+000 0.000000e+000 0.000000e+000
      endloop
   endfacet
   facet normal -1.000000e+000 0.000000e+000 0.000000e+000
      outer loop
         vertex 0.000000e+000 0.000000e+000 0.000000e+000
         vertex 0.000000e+000 7.620000e+001 5.080000e+001
         vertex 0.000000e+000 7.620000e+001 0.000000e+000
      endloop
   endfacet
   facet normal 0.000000e+000 -1.000000e+000 0.000000e+000
      outer loop
         vertex 1.524000e+002 0.000000e+000 5.080000e+001
         vertex 0.000000e+000 0.000000e+000 5.080000e+001
         vertex 1.524000e+002 0.000000e+000 0.000000e+000
      endloop
   endfacet
   facet normal 0.000000e+000 -1.000000e+000 0.000000e+000
      outer loop
         vertex 1.524000e+002 0.000000e+000 0.000000e+000
         vertex 0.000000e+000 0.000000e+000 5.080000e+001
         vertex 0.000000e+000 0.000000e+000 0.000000e+000
      endloop
   endfacet
   facet normal 1.000000e+000 0.000000e+000 0.000000e+000
      outer loop
         vertex 1.524000e+002 7.620000e+001 5.080000e+001
         vertex 1.524000e+002 0.000000e+000 5.080000e+001
         vertex 1.524000e+002 7.620000e+001 0.000000e+000
      endloop
   endfacet
   facet normal 1.000000e+000 0.000000e+000 0.000000e+000
      outer loop
         vertex 1.524000e+002 7.620000e+001 0.000000e+000
         vertex 1.524000e+002 0.000000e+000 5.080000e+001
         vertex 1.524000e+002 0.000000e+000 0.000000e+000
      endloop
   endfacet
   facet normal 0.000000e+000 1.000000e+000 0.000000e+000
      outer loop
         vertex 0.000000e+000 7.620000e+001 5.080000e+001
         vertex 1.524000e+002 7.620000e+001 5.080000e+001
         vertex 0.000000e+000 7.620000e+001 0.000000e+000
      endloop
   endfacet
   facet normal 0.000000e+000 1.000000e+000 0.000000e+000
      outer loop
         vertex 0.000000e+000 7.620000e+001 0.000000e+000
         vertex 1.524000e+002 7.620000e+001 5.080000e+001
         vertex 1.524000e+002 7.620000e+001 0.000000e+000
      endloop
   endfacet
   facet normal 0.000000e+000 0.000000e+000 1.000000e+000
      outer loop
         vertex 1.524000e+002 0.000000e+000 5.080000e+001
         vertex 1.524000e+002 7.620000e+001 5.080000e+001
         vertex 0.000000e+000 0.000000e+000 5.080000e+001
      endloop
   endfacet
   facet normal 0.000000e+000 0.000000e+000 1.000000e+000
      outer loop
         vertex 0.000000e+000 0.000000e+000 5.080000e+001
         vertex 1.524000e+002 7.620000e+001 5.080000e+001
         vertex 0.000000e+000 7.620000e+001 5.080000e+001
      endloop
   endfacet
   facet normal 0.000000e+000 0.000000e+000 -1.000000e+000
      outer loop
         vertex 1.524000e+002 7.620000e+001 0.000000e+000
         vertex 1.524000e+002 0.000000e+000 0.000000e+000
         vertex 0.000000e+000 7.620000e+001 0.000000e+000
      endloop
   endfacet
   facet normal 0.000000e+000 0.000000e+000 -1.000000e+000
      outer loop
         vertex 0.000000e+000 7.620000e+001 0.000000e+000
         vertex 1.524000e+002 0.000000e+000 0.000000e+000
         vertex 0.000000e+000 0.000000e+000 0.000000e+000
      endloop
   endfacet
endsolid