                                                                        S      1
,,18HcomputerCaseBox v2,18HcomputerCaseBox v2,7Hunknown,7Hunknown,32,38,G      1
7,99,15,,1.,2,2HMM,1,0.08,15H20151210.170335,0.01,10000.,7Hunknown,7HunkG      2
nown,11,0,;                                                             G      3
     186       1                                                00000000D      1
     186             -71       1       0                               0D      2
     514       2                                                00010000D      3
     514                       1       1                               0D      4
     510       3                                                00010000D      5
     510             -71       1       1                               0D      6
     510       4                                                00010000D      7
     510             -71       1       1                               0D      8
     510       5                                                00010000D      9
     510             -71       1       1                               0D     10
     510       6                                                00010000D     11
     510             -71       1       1                               0D     12
     510       7                                                00010000D     13
     510             -71       1       1                               0D     14
     510       8                                                00010000D     15
     510             -71       1       1                               0D     16
     508       9                                                00010000D     17
     508                       1       1                               0D     18
     508      10                                                00010000D     19
     508                       1       1                               0D     20
     508      11                                                00010000D     21
     508                       1       1                               0D     22
     508      12                                                00010000D     23
     508                       1       1                               0D     24
     508      13                                                00010000D     25
     508                       1       1                               0D     26
     508      14                                                00010000D     27
     508                       1       1                               0D     28
     126      15                                                00010000D     29
     126       0               2       0                               0D     30
     126      17                                                00010000D     31
     126       0               2       0                               0D     32
     126      19                                                00010000D     33
     126       0               2       0                               0D     34
     126      21                                                00010000D     35
     126       0               2       0                               0D     36
     126      23                                                00010000D     37
     126       0               2       0                               0D     38
     126      25                                                00010000D     39
     126       0               2       0                               0D     40
     126      27                                                00010000D     41
     126       0               2       0                               0D     42
     126      29                                                00010000D     43
     126       0               2       0                               0D     44
     126      31                                                00010000D     45
     126       0               2       0                               0D     46
     126      33                                                00010000D     47
     126       0               2       0                               0D     48
     126      35                                                00010000D     49
     126       0               2       0                               0D     50
     126      37                                                00010000D     51
     126       0               2       0                               0D     52
     128      39                                                00010000D     53
     128       0     -71       4       0                               0D     54
     128      43                                                00010000D     55
     128       0     -71       3       0                               0D     56
     128      46                                                00010000D     57
     128       0     -71       3       0                               0D     58
     128      49                                                00010000D     59
     128       0     -71       4       0                               0D     60
     128      53                                                00010000D     61
     128       0     -71       5       0                               0D     62
     128      58                                                00010000D     63
     128       0     -71       4       0                               0D     64
     502      62                                                00010000D     65
     502                       2       1                               0D     66
     504      64                                                00010001D     67
     504                       3       1                               0D     68
     406      67                                                00000000D     69
     406                       1      15                               0D     70
     314      68                                                00000200D     71
     314                       2       0                               0D     72
186,3,1,0,0,1,69;                                                      1P      1
514,6,5,1,7,1,9,1,11,1,13,1,15,1;                                      3P      2
510,53,1,1,17;                                                         5P      3
510,55,1,1,19;                                                         7P      4
510,57,1,1,21;                                                         9P      5
510,59,1,1,23;                                                        11P      6
510,61,1,1,25;                                                        13P      7
510,63,1,1,27;                                                        15P      8
508,4,0,67,1,1,0,0,67,2,1,0,0,67,3,0,0,0,67,4,0,0;                    17P      9
508,4,0,67,5,1,0,0,67,4,1,0,0,67,6,0,0,0,67,7,0,0;                    19P     10
508,4,0,67,8,1,0,0,67,7,1,0,0,67,9,0,0,0,67,10,0,0;                   21P     11
508,4,0,67,11,1,0,0,67,10,1,0,0,67,12,0,0,0,67,2,0,0;                 23P     12
508,4,0,67,12,1,0,0,67,9,1,0,0,67,6,1,0,0,67,3,1,0;                   25P     13
508,4,0,67,11,0,0,0,67,1,0,0,0,67,5,0,0,0,67,8,0,0;                   27P     14
126,1,1,0,0,1,0,0.,0.,30.48,30.48,1.,1.,304.8,0.,-254.,0.,0.,         29P     15
-254.,0.,30.48,0.,0.,0.;                                              29P     16
126,1,1,0,0,1,0,0.,0.,2.54,2.54,1.,1.,0.,0.,-254.,0.,25.4,-254.,      31P     17
0.,2.54,0.,0.,0.;                                                     31P     18
126,1,1,0,0,1,0,0.,0.,30.48,30.48,1.,1.,304.8,25.4,-254.,0.,          33P     19
25.4,-254.,0.,30.48,0.,0.,0.;                                         33P     20
126,1,1,0,0,1,0,0.,0.,2.54,2.54,1.,1.,304.8,0.,-254.,304.8,25.4,      35P     21
-254.,0.,2.54,0.,0.,0.;                                               35P     22
126,1,1,0,0,1,0,0.,0.,25.4,25.4,1.,1.,304.8,0.,0.,304.8,0.,           37P     23
-254.,0.,25.4,0.,0.,0.;                                               37P     24
126,1,1,0,0,1,0,0.,0.,25.4,25.4,1.,1.,304.8,25.4,0.,304.8,25.4,       39P     25
-254.,0.,25.4,0.,0.,0.;                                               39P     26
126,1,1,0,0,1,0,0.,0.,2.54,2.54,1.,1.,304.8,0.,0.,304.8,25.4,0.,      41P     27
0.,2.54,0.,0.,0.;                                                     41P     28
126,1,1,0,0,1,0,0.,0.,30.48,30.48,1.,1.,0.,0.,0.,304.8,0.,0.,0.,      43P     29
30.48,0.,0.,0.;                                                       43P     30
126,1,1,0,0,1,0,0.,0.,30.48,30.48,1.,1.,0.,25.4,0.,304.8,25.4,        45P     31
0.,0.,30.48,0.,0.,0.;                                                 45P     32
126,1,1,0,0,1,0,0.,0.,2.54,2.54,1.,1.,0.,0.,0.,0.,25.4,0.,0.,         47P     33
2.54,0.,0.,0.;                                                        47P     34
126,1,1,0,0,1,0,0.,0.,25.4,25.4,1.,1.,0.,0.,-254.,0.,0.,0.,0.,        49P     35
25.4,0.,0.,0.;                                                        49P     36
126,1,1,0,0,1,0,0.,0.,25.4,25.4,1.,1.,0.,25.4,-254.,0.,25.4,0.,       51P     37
0.,25.4,0.,0.,0.;                                                     51P     38
128,1,1,1,1,0,0,1,0,0,-0.001,-0.001,30.481,30.481,-0.001,-0.001,      53P     39
2.541,2.541,1.,1.,1.,1.,304.81,-0.01,-254.,-0.0100000000000122,       53P     40
-0.01,-254.,304.81,25.41,-254.,-0.0100000000000122,25.41,-254.,       53P     41
-0.001,30.481,-0.001,2.541;                                           53P     42
128,1,1,1,1,0,0,1,0,0,-0.001,-0.001,25.401,25.401,-0.001,-0.001,      55P     43
2.541,2.541,1.,1.,1.,1.,304.8,-0.01,0.01,304.8,-0.01,-254.01,         55P     44
304.8,25.41,0.01,304.8,25.41,-254.01,-0.001,25.401,-0.001,2.541;      55P     45
128,1,1,1,1,0,0,1,0,0,-0.001,-0.001,30.481,30.481,-0.001,-0.001,      57P     46
2.541,2.541,1.,1.,1.,1.,-0.01,-0.01,0.,304.81,-0.01,0.,-0.01,         57P     47
25.41,0.,304.81,25.41,0.,-0.001,30.481,-0.001,2.541;                  57P     48
128,1,1,1,1,0,0,1,0,0,-0.001,-0.001,25.401,25.401,-0.001,-0.001,      59P     49
2.541,2.541,1.,1.,1.,1.,0.,-0.01,-254.01,0.,-0.01,                    59P     50
0.0100000000000122,0.,25.41,-254.01,0.,25.41,0.0100000000000122,      59P     51
-0.001,25.401,-0.001,2.541;                                           59P     52
128,1,1,1,1,0,0,1,0,0,-12.701,-12.701,12.701,12.701,-15.241,          61P     53
-15.241,15.241,15.241,1.,1.,1.,1.,-0.00999999999999446,25.4,          61P     54
-254.01,-0.00999999999999446,25.4,0.00999999999999446,304.81,         61P     55
25.4,-254.01,304.81,25.4,0.00999999999997669,-12.701,12.701,          61P     56
-15.241,15.241;                                                       61P     57
128,1,1,1,1,0,0,1,0,0,-15.241,-15.241,15.241,15.241,-12.701,          63P     58
-12.701,12.701,12.701,1.,1.,1.,1.,304.81,0.,0.00999999999999446,      63P     59
-0.00999999999999446,0.,0.00999999999999446,304.81,0.,-254.01,        63P     60
-0.00999999999999446,0.,-254.01,-15.241,15.241,-12.701,12.701;        63P     61
502,8,304.8,0.,-254.,0.,0.,-254.,0.,25.4,-254.,304.8,25.4,-254.,      65P     62
304.8,0.,0.,304.8,25.4,0.,0.,0.,0.,0.,25.4,0.;                        65P     63
504,12,29,65,1,65,2,31,65,2,65,3,33,65,4,65,3,35,65,1,65,4,37,        67P     64
65,5,65,1,39,65,6,65,4,41,65,5,65,6,43,65,7,65,5,45,65,8,65,6,        67P     65
47,65,7,65,8,49,65,2,65,7,51,65,3,65,8;                               67P     66
406,1,5HBody1;                                                        69P     67
314,62.7450980392157,62.7450980392157,62.7450980392157,13HSteel       71P     68
- Satin;                                                              71P     69
S      1G      3D     72P     69                                        T      1
