solid 1
   facet normal 0.000000e+000 0.000000e+000 1.000000e+000
      outer loop
         vertex -4.947918e+001 -1.150871e+001 2.540000e+001
         vertex -6.137109e+001 -1.630456e+001 2.540000e+001
         vertex -4.874190e+001 -1.431317e+001 2.540000e+001
      endloop
   endfacet
   facet normal 0.000000e+000 0.000000e+000 1.000000e+000
      outer loop
         vertex -4.874190e+001 -1.431317e+001 2.540000e+001
         vertex -6.137109e+001 -1.630456e+001 2.540000e+001
         vertex -6.044264e+001 -1.946632e+001 2.540000e+001
      endloop
   endfacet
   facet normal 0.000000e+000 0.000000e+000 1.000000e+000
      outer loop
         vertex -4.874190e+001 -1.431317e+001 2.540000e+001
         vertex -6.044264e+001 -1.946632e+001 2.540000e+001
         vertex -4.784580e+001 -1.707100e+001 2.540000e+001
      endloop
   endfacet
   facet normal 0.000000e+000 0.000000e+000 1.000000e+000
      outer loop
         vertex -4.784580e+001 -1.707100e+001 2.540000e+001
         vertex -6.044264e+001 -1.946632e+001 2.540000e+001
         vertex -5.935141e+001 -2.257566e+001 2.540000e+001
      endloop
   endfacet
   facet normal 0.000000e+000 0.000000e+000 1.000000e+000
      outer loop
         vertex -4.784580e+001 -1.707100e+001 2.540000e+001
         vertex -5.935141e+001 -2.257566e+001 2.540000e+001
         vertex -4.679380e+001 -1.977321e+001 2.540000e+001
      endloop
   endfacet
   facet normal 0.000000e+000 0.000000e+000 1.000000e+000
      outer loop
         vertex -4.679380e+001 -1.977321e+001 2.540000e+001
         vertex -5.935141e+001 -2.257566e+001 2.540000e+001
         vertex -5.810035e+001 -2.562420e+001 2.540000e+001
      endloop
   endfacet
   facet normal 0.000000e+000 0.000000e+000 1.000000e+000
      outer loop
         vertex -4.679380e+001 -1.977321e+001 2.540000e+001
         vertex -5.810035e+001 -2.562420e+001 2.540000e+001
         vertex -4.558934e+001 -2.241099e+001 2.540000e+001
      endloop
   endfacet
   facet normal 0.000000e+000 0.000000e+000 1.000000e+000
      outer loop
         vertex -4.558934e+001 -2.241099e+001 2.540000e+001
         vertex -5.810035e+001 -2.562420e+001 2.540000e+001
         vertex -5.669282e+001 -2.860374e+001 2.540000e+001
      endloop
   endfacet
   facet normal 0.000000e+000 0.000000e+000 1.000000e+000
      outer loop
         vertex -4.558934e+001 -2.241099e+001 2.540000e+001
         vertex -5.669282e+001 -2.860374e+001 2.540000e+001
         vertex -4.423632e+001 -2.497575e+001 2.540000e+001
      endloop
   endfacet
   facet normal 0.000000e+000 0.000000e+000 1.000000e+000
      outer loop
         vertex -4.423632e+001 -2.497575e+001 2.540000e+001
         vertex -5.669282e+001 -2.860374e+001 2.540000e+001
         vertex -5.513263e+001 -3.150625e+001 2.540000e+001
      endloop
   endfacet
   facet normal 0.000000e+000 0.000000e+000 1.000000e+000
      outer loop
         vertex -4.423632e+001 -2.497575e+001 2.540000e+001
         vertex -5.513263e+001 -3.150625e+001 2.540000e+001
         vertex -4.273916e+001 -2.745913e+001 2.540000e+001
      endloop
   endfacet
   facet normal 0.000000e+000 0.000000e+000 1.000000e+000
      outer loop
         vertex -4.273916e+001 -2.745913e+001 2.540000e+001
         vertex -5.513263e+001 -3.150625e+001 2.540000e+001
         vertex -5.342396e+001 -3.432391e+001 2.540000e+001
      endloop
   endfacet
   facet normal 0.000000e+000 0.000000e+000 1.000000e+000
      outer loop
         vertex -5.080000e+001 -8.866273e-003 2.540000e+001
         vertex -6.350000e+001 -1.108284e-002 2.540000e+001
         vertex -5.071673e+001 -2.907434e+000 2.540000e+001
      endloop
   endfacet
   facet normal 0.000000e+000 0.000000e+000 1.000000e+000
      outer loop
         vertex -5.071673e+001 -2.907434e+000 2.540000e+001
         vertex -6.350000e+001 -1.108284e-002 2.540000e+001
         vertex -6.341393e+001 -3.305222e+000 2.540000e+001
      endloop
   endfacet
   facet normal 0.000000e+000 0.000000e+000 1.000000e+000
      outer loop
         vertex -5.071673e+001 -2.907434e+000 2.540000e+001
         vertex -6.341393e+001 -3.305222e+000 2.540000e+001
         vertex -5.046821e+001 -5.796529e+000 2.540000e+001
      endloop
   endfacet
   facet normal 0.000000e+000 0.000000e+000 1.000000e+000
      outer loop
         vertex -5.046821e+001 -5.796529e+000 2.540000e+001
         vertex -6.341393e+001 -3.305222e+000 2.540000e+001
         vertex -6.315707e+001 -6.590461e+000 2.540000e+001
      endloop
   endfacet
   facet normal 0.000000e+000 0.000000e+000 1.000000e+000
      outer loop
         vertex -5.046821e+001 -5.796529e+000 2.540000e+001
         vertex -6.315707e+001 -6.590461e+000 2.540000e+001
         vertex -5.005525e+001 -8.666737e+000 2.540000e+001
      endloop
   endfacet
   facet normal 0.000000e+000 0.000000e+000 1.000000e+000
      outer loop
         vertex -5.005525e+001 -8.666737e+000 2.540000e+001
         vertex -6.315707e+001 -6.590461e+000 2.540000e+001
         vertex -6.273014e+001 -9.857952e+000 2.540000e+001
      endloop
   endfacet
   facet normal 0.000000e+000 0.000000e+000 1.000000e+000
      outer loop
         vertex -5.005525e+001 -8.666737e+000 2.540000e+001
         vertex -6.273014e+001 -9.857952e+000 2.540000e+001
         vertex -4.947918e+001 -1.150871e+001 2.540000e+001
      endloop
   endfacet
   facet normal 0.000000e+000 0.000000e+000 1.000000e+000
      outer loop
         vertex -4.947918e+001 -1.150871e+001 2.540000e+001
         vertex -6.273014e+001 -9.857952e+000 2.540000e+001
         vertex -6.213428e+001 -1.309890e+001 2.540000e+001
      endloop
   endfacet
   facet normal 0.000000e+000 0.000000e+000 1.000000e+000
      outer loop
         vertex -4.947918e+001 -1.150871e+001 2.540000e+001
         vertex -6.213428e+001 -1.309890e+001 2.540000e+001
         vertex -6.137109e+001 -1.630456e+001 2.540000e+001
      endloop
   endfacet
   facet normal 0.000000e+000 0.000000e+000 -1.000000e+000
      outer loop
         vertex -6.350000e+001 -1.108284e-002 0.000000e+000
         vertex -5.080000e+001 -8.866273e-003 0.000000e+000
         vertex -6.341393e+001 -3.305222e+000 0.000000e+000
      endloop
   endfacet
   facet normal 0.000000e+000 0.000000e+000 -1.000000e+000
      outer loop
         vertex -6.341393e+001 -3.305222e+000 0.000000e+000
         vertex -5.080000e+001 -8.866273e-003 0.000000e+000
         vertex -5.071673e+001 -2.907434e+000 0.000000e+000
      endloop
   endfacet
   facet normal 0.000000e+000 0.000000e+000 -1.000000e+000
      outer loop
         vertex -6.341393e+001 -3.305222e+000 0.000000e+000
         vertex -5.071673e+001 -2.907434e+000 0.000000e+000
         vertex -6.315707e+001 -6.590461e+000 0.000000e+000
      endloop
   endfacet
   facet normal 0.000000e+000 0.000000e+000 -1.000000e+000
      outer loop
         vertex -6.315707e+001 -6.590461e+000 0.000000e+000
         vertex -5.071673e+001 -2.907434e+000 0.000000e+000
         vertex -5.046821e+001 -5.796529e+000 0.000000e+000
      endloop
   endfacet
   facet normal 0.000000e+000 0.000000e+000 -1.000000e+000
      outer loop
         vertex -6.315707e+001 -6.590461e+000 0.000000e+000
         vertex -5.046821e+001 -5.796529e+000 0.000000e+000
         vertex -6.273014e+001 -9.857952e+000 0.000000e+000
      endloop
   endfacet
   facet normal 0.000000e+000 0.000000e+000 -1.000000e+000
      outer loop
         vertex -6.273014e+001 -9.857952e+000 0.000000e+000
         vertex -5.046821e+001 -5.796529e+000 0.000000e+000
         vertex -5.005525e+001 -8.666737e+000 0.000000e+000
      endloop
   endfacet
   facet normal 0.000000e+000 0.000000e+000 -1.000000e+000
      outer loop
         vertex -6.273014e+001 -9.857952e+000 0.000000e+000
         vertex -5.005525e+001 -8.666737e+000 0.000000e+000
         vertex -6.213428e+001 -1.309890e+001 0.000000e+000
      endloop
   endfacet
   facet normal 0.000000e+000 0.000000e+000 -1.000000e+000
      outer loop
         vertex -6.213428e+001 -1.309890e+001 0.000000e+000
         vertex -5.005525e+001 -8.666737e+000 0.000000e+000
         vertex -4.947918e+001 -1.150871e+001 0.000000e+000
      endloop
   endfacet
   facet normal 0.000000e+000 0.000000e+000 -1.000000e+000
      outer loop
         vertex -6.213428e+001 -1.309890e+001 0.000000e+000
         vertex -4.947918e+001 -1.150871e+001 0.000000e+000
         vertex -6.137109e+001 -1.630456e+001 0.000000e+000
      endloop
   endfacet
   facet normal 0.000000e+000 0.000000e+000 -1.000000e+000
      outer loop
         vertex -6.137109e+001 -1.630456e+001 0.000000e+000
         vertex -4.947918e+001 -1.150871e+001 0.000000e+000
         vertex -4.874190e+001 -1.431317e+001 0.000000e+000
      endloop
   endfacet
   facet normal 0.000000e+000 0.000000e+000 -1.000000e+000
      outer loop
         vertex -4.273916e+001 -2.745913e+001 0.000000e+000
         vertex -5.342396e+001 -3.432391e+001 0.000000e+000
         vertex -4.423632e+001 -2.497575e+001 0.000000e+000
      endloop
   endfacet
   facet normal 0.000000e+000 0.000000e+000 -1.000000e+000
      outer loop
         vertex -4.423632e+001 -2.497575e+001 0.000000e+000
         vertex -5.342396e+001 -3.432391e+001 0.000000e+000
         vertex -5.513263e+001 -3.150625e+001 0.000000e+000
      endloop
   endfacet
   facet normal 0.000000e+000 0.000000e+000 -1.000000e+000
      outer loop
         vertex -4.423632e+001 -2.497575e+001 0.000000e+000
         vertex -5.513263e+001 -3.150625e+001 0.000000e+000
         vertex -4.558934e+001 -2.241099e+001 0.000000e+000
      endloop
   endfacet
   facet normal 0.000000e+000 0.000000e+000 -1.000000e+000
      outer loop
         vertex -4.558934e+001 -2.241099e+001 0.000000e+000
         vertex -5.513263e+001 -3.150625e+001 0.000000e+000
         vertex -5.669282e+001 -2.860374e+001 0.000000e+000
      endloop
   endfacet
   facet normal 0.000000e+000 0.000000e+000 -1.000000e+000
      outer loop
         vertex -4.558934e+001 -2.241099e+001 0.000000e+000
         vertex -5.669282e+001 -2.860374e+001 0.000000e+000
         vertex -4.679380e+001 -1.977321e+001 0.000000e+000
      endloop
   endfacet
   facet normal 0.000000e+000 0.000000e+000 -1.000000e+000
      outer loop
         vertex -4.679380e+001 -1.977321e+001 0.000000e+000
         vertex -5.669282e+001 -2.860374e+001 0.000000e+000
         vertex -5.810035e+001 -2.562420e+001 0.000000e+000
      endloop
   endfacet
   facet normal 0.000000e+000 0.000000e+000 -1.000000e+000
      outer loop
         vertex -4.679380e+001 -1.977321e+001 0.000000e+000
         vertex -5.810035e+001 -2.562420e+001 0.000000e+000
         vertex -4.784580e+001 -1.707100e+001 0.000000e+000
      endloop
   endfacet
   facet normal 0.000000e+000 0.000000e+000 -1.000000e+000
      outer loop
         vertex -4.784580e+001 -1.707100e+001 0.000000e+000
         vertex -5.810035e+001 -2.562420e+001 0.000000e+000
         vertex -5.935141e+001 -2.257566e+001 0.000000e+000
      endloop
   endfacet
   facet normal 0.000000e+000 0.000000e+000 -1.000000e+000
      outer loop
         vertex -4.784580e+001 -1.707100e+001 0.000000e+000
         vertex -5.935141e+001 -2.257566e+001 0.000000e+000
         vertex -4.874190e+001 -1.431317e+001 0.000000e+000
      endloop
   endfacet
   facet normal 0.000000e+000 0.000000e+000 -1.000000e+000
      outer loop
         vertex -4.874190e+001 -1.431317e+001 0.000000e+000
         vertex -5.935141e+001 -2.257566e+001 0.000000e+000
         vertex -6.044264e+001 -1.946632e+001 0.000000e+000
      endloop
   endfacet
   facet normal 0.000000e+000 0.000000e+000 -1.000000e+000
      outer loop
         vertex -4.874190e+001 -1.431317e+001 0.000000e+000
         vertex -6.044264e+001 -1.946632e+001 0.000000e+000
         vertex -6.137109e+001 -1.630456e+001 0.000000e+000
      endloop
   endfacet
   facet normal -9.998474e-001 -1.747183e-002 0.000000e+000
      outer loop
         vertex -6.350000e+001 -1.108284e-002 2.540000e+001
         vertex -6.350000e+001 -1.108284e-002 0.000000e+000
         vertex -6.341393e+001 -3.305222e+000 0.000000e+000
      endloop
   endfacet
   facet normal -9.993954e-001 -3.476908e-002 0.000000e+000
      outer loop
         vertex -6.350000e+001 -1.108284e-002 2.540000e+001
         vertex -6.341393e+001 -3.305222e+000 0.000000e+000
         vertex -6.341393e+001 -3.305222e+000 2.540000e+001
      endloop
   endfacet
   facet normal -9.975947e-001 -6.931683e-002 0.000000e+000
      outer loop
         vertex -6.341393e+001 -3.305222e+000 2.540000e+001
         vertex -6.341393e+001 -3.305222e+000 0.000000e+000
         vertex -6.315707e+001 -6.590461e+000 0.000000e+000
      endloop
   endfacet
   facet normal -9.962460e-001 -8.656735e-002 0.000000e+000
      outer loop
         vertex -6.341393e+001 -3.305222e+000 2.540000e+001
         vertex -6.315707e+001 -6.590461e+000 0.000000e+000
         vertex -6.315707e+001 -6.590461e+000 2.540000e+001
      endloop
   endfacet
   facet normal -9.926555e-001 -1.209752e-001 0.000000e+000
      outer loop
         vertex -6.315707e+001 -6.590461e+000 2.540000e+001
         vertex -6.315707e+001 -6.590461e+000 0.000000e+000
         vertex -6.273014e+001 -9.857952e+000 0.000000e+000
      endloop
   endfacet
   facet normal -9.904137e-001 -1.381325e-001 0.000000e+000
      outer loop
         vertex -6.315707e+001 -6.590461e+000 2.540000e+001
         vertex -6.273014e+001 -9.857952e+000 0.000000e+000
         vertex -6.273014e+001 -9.857952e+000 2.540000e+001
      endloop
   endfacet
   facet normal -9.850432e-001 -1.723077e-001 0.000000e+000
      outer loop
         vertex -6.273014e+001 -9.857952e+000 2.540000e+001
         vertex -6.273014e+001 -9.857952e+000 0.000000e+000
         vertex -6.213428e+001 -1.309890e+001 0.000000e+000
      endloop
   endfacet
   facet normal -9.819143e-001 -1.893256e-001 0.000000e+000
      outer loop
         vertex -6.273014e+001 -9.857952e+000 2.540000e+001
         vertex -6.213428e+001 -1.309890e+001 0.000000e+000
         vertex -6.213428e+001 -1.309890e+001 2.540000e+001
      endloop
   endfacet
   facet normal -9.747781e-001 -2.231763e-001 0.000000e+000
      outer loop
         vertex -6.213428e+001 -1.309890e+001 2.540000e+001
         vertex -6.213428e+001 -1.309890e+001 0.000000e+000
         vertex -6.137109e+001 -1.630456e+001 0.000000e+000
      endloop
   endfacet
   facet normal -9.707707e-001 -2.400089e-001 0.000000e+000
      outer loop
         vertex -6.213428e+001 -1.309890e+001 2.540000e+001
         vertex -6.137109e+001 -1.630456e+001 0.000000e+000
         vertex -6.137109e+001 -1.630456e+001 2.540000e+001
      endloop
   endfacet
   facet normal -9.618880e-001 -2.734438e-001 0.000000e+000
      outer loop
         vertex -6.137109e+001 -1.630456e+001 2.540000e+001
         vertex -6.137109e+001 -1.630456e+001 0.000000e+000
         vertex -6.044264e+001 -1.946632e+001 0.000000e+000
      endloop
   endfacet
   facet normal -9.570127e-001 -2.900459e-001 0.000000e+000
      outer loop
         vertex -6.137109e+001 -1.630456e+001 2.540000e+001
         vertex -6.044264e+001 -1.946632e+001 0.000000e+000
         vertex -6.044264e+001 -1.946632e+001 2.540000e+001
      endloop
   endfacet
   facet normal -9.464076e-001 -3.229749e-001 0.000000e+000
      outer loop
         vertex -6.044264e+001 -1.946632e+001 2.540000e+001
         vertex -6.044264e+001 -1.946632e+001 0.000000e+000
         vertex -5.935141e+001 -2.257566e+001 0.000000e+000
      endloop
   endfacet
   facet normal -9.406776e-001 -3.393018e-001 0.000000e+000
      outer loop
         vertex -6.044264e+001 -1.946632e+001 2.540000e+001
         vertex -5.935141e+001 -2.257566e+001 0.000000e+000
         vertex -5.935141e+001 -2.257566e+001 2.540000e+001
      endloop
   endfacet
   facet normal -9.283784e-001 -3.716363e-001 0.000000e+000
      outer loop
         vertex -5.935141e+001 -2.257566e+001 2.540000e+001
         vertex -5.935141e+001 -2.257566e+001 0.000000e+000
         vertex -5.810035e+001 -2.562420e+001 0.000000e+000
      endloop
   endfacet
   facet normal -9.218091e-001 -3.876439e-001 0.000000e+000
      outer loop
         vertex -5.935141e+001 -2.257566e+001 2.540000e+001
         vertex -5.810035e+001 -2.562420e+001 0.000000e+000
         vertex -5.810035e+001 -2.562420e+001 2.540000e+001
      endloop
   endfacet
   facet normal -9.078491e-001 -4.192969e-001 0.000000e+000
      outer loop
         vertex -5.810035e+001 -2.562420e+001 2.540000e+001
         vertex -5.810035e+001 -2.562420e+001 0.000000e+000
         vertex -5.669282e+001 -2.860374e+001 0.000000e+000
      endloop
   endfacet
   facet normal -9.004584e-001 -4.349422e-001 0.000000e+000
      outer loop
         vertex -5.810035e+001 -2.562420e+001 2.540000e+001
         vertex -5.669282e+001 -2.860374e+001 0.000000e+000
         vertex -5.669282e+001 -2.860374e+001 2.540000e+001
      endloop
   endfacet
   facet normal -8.848752e-001 -4.658283e-001 0.000000e+000
      outer loop
         vertex -5.669282e+001 -2.860374e+001 2.540000e+001
         vertex -5.669282e+001 -2.860374e+001 0.000000e+000
         vertex -5.513263e+001 -3.150625e+001 0.000000e+000
      endloop
   endfacet
   facet normal -8.766826e-001 -4.810691e-001 0.000000e+000
      outer loop
         vertex -5.669282e+001 -2.860374e+001 2.540000e+001
         vertex -5.513263e+001 -3.150625e+001 0.000000e+000
         vertex -5.513263e+001 -3.150625e+001 2.540000e+001
      endloop
   endfacet
   facet normal -8.595182e-001 -5.111053e-001 0.000000e+000
      outer loop
         vertex -5.513263e+001 -3.150625e+001 2.540000e+001
         vertex -5.513263e+001 -3.150625e+001 0.000000e+000
         vertex -5.342396e+001 -3.432391e+001 0.000000e+000
      endloop
   endfacet
   facet normal -8.505461e-001 -5.259006e-001 0.000000e+000
      outer loop
         vertex -5.513263e+001 -3.150625e+001 2.540000e+001
         vertex -5.342396e+001 -3.432391e+001 0.000000e+000
         vertex -5.342396e+001 -3.432391e+001 2.540000e+001
      endloop
   endfacet
   facet normal 8.514543e-001 5.244288e-001 0.000000e+000
      outer loop
         vertex -4.273916e+001 -2.745913e+001 2.540000e+001
         vertex -4.273916e+001 -2.745913e+001 0.000000e+000
         vertex -4.423632e+001 -2.497575e+001 0.000000e+000
      endloop
   endfacet
   facet normal 8.612816e-001 5.081278e-001 0.000000e+000
      outer loop
         vertex -4.273916e+001 -2.745913e+001 2.540000e+001
         vertex -4.423632e+001 -2.497575e+001 0.000000e+000
         vertex -4.423632e+001 -2.497575e+001 2.540000e+001
      endloop
   endfacet
   facet normal 8.799904e-001 4.749915e-001 0.000000e+000
      outer loop
         vertex -4.423632e+001 -2.497575e+001 2.540000e+001
         vertex -4.423632e+001 -2.497575e+001 0.000000e+000
         vertex -4.558934e+001 -2.241099e+001 0.000000e+000
      endloop
   endfacet
   facet normal 8.888717e-001 4.581563e-001 0.000000e+000
      outer loop
         vertex -4.423632e+001 -2.497575e+001 2.540000e+001
         vertex -4.558934e+001 -2.241099e+001 0.000000e+000
         vertex -4.558934e+001 -2.241099e+001 2.540000e+001
      endloop
   endfacet
   facet normal 9.056591e-001 4.240066e-001 0.000000e+000
      outer loop
         vertex -4.558934e+001 -2.241099e+001 2.540000e+001
         vertex -4.558934e+001 -2.241099e+001 0.000000e+000
         vertex -4.679380e+001 -1.977321e+001 0.000000e+000
      endloop
   endfacet
   facet normal 9.135653e-001 4.066920e-001 0.000000e+000
      outer loop
         vertex -4.558934e+001 -2.241099e+001 2.540000e+001
         vertex -4.679380e+001 -1.977321e+001 0.000000e+000
         vertex -4.679380e+001 -1.977321e+001 2.540000e+001
      endloop
   endfacet
   facet normal 9.283769e-001 3.716400e-001 0.000000e+000
      outer loop
         vertex -4.679380e+001 -1.977321e+001 2.540000e+001
         vertex -4.679380e+001 -1.977321e+001 0.000000e+000
         vertex -4.784580e+001 -1.707100e+001 0.000000e+000
      endloop
   endfacet
   facet normal 9.352823e-001 3.539026e-001 0.000000e+000
      outer loop
         vertex -4.679380e+001 -1.977321e+001 2.540000e+001
         vertex -4.784580e+001 -1.707100e+001 0.000000e+000
         vertex -4.784580e+001 -1.707100e+001 2.540000e+001
      endloop
   endfacet
   facet normal 9.480698e-001 3.180626e-001 0.000000e+000
      outer loop
         vertex -4.784580e+001 -1.707100e+001 2.540000e+001
         vertex -4.784580e+001 -1.707100e+001 0.000000e+000
         vertex -4.874190e+001 -1.431317e+001 0.000000e+000
      endloop
   endfacet
   facet normal 9.539518e-001 2.999600e-001 0.000000e+000
      outer loop
         vertex -4.784580e+001 -1.707100e+001 2.540000e+001
         vertex -4.874190e+001 -1.431317e+001 0.000000e+000
         vertex -4.874190e+001 -1.431317e+001 2.540000e+001
      endloop
   endfacet
   facet normal 9.646733e-001 2.634488e-001 0.000000e+000
      outer loop
         vertex -4.874190e+001 -1.431317e+001 2.540000e+001
         vertex -4.874190e+001 -1.431317e+001 0.000000e+000
         vertex -4.947918e+001 -1.150871e+001 0.000000e+000
      endloop
   endfacet
   facet normal 9.695129e-001 2.450401e-001 0.000000e+000
      outer loop
         vertex -4.874190e+001 -1.431317e+001 2.540000e+001
         vertex -4.947918e+001 -1.150871e+001 0.000000e+000
         vertex -4.947918e+001 -1.150871e+001 2.540000e+001
      endloop
   endfacet
   facet normal 9.781338e-001 2.079765e-001 0.000000e+000
      outer loop
         vertex -4.947918e+001 -1.150871e+001 2.540000e+001
         vertex -4.947918e+001 -1.150871e+001 0.000000e+000
         vertex -5.005525e+001 -8.666737e+000 0.000000e+000
      endloop
   endfacet
   facet normal 9.819151e-001 1.893217e-001 0.000000e+000
      outer loop
         vertex -4.947918e+001 -1.150871e+001 2.540000e+001
         vertex -5.005525e+001 -8.666737e+000 0.000000e+000
         vertex -5.005525e+001 -8.666737e+000 2.540000e+001
      endloop
   endfacet
   facet normal 9.884072e-001 1.518266e-001 0.000000e+000
      outer loop
         vertex -5.005525e+001 -8.666737e+000 2.540000e+001
         vertex -5.005525e+001 -8.666737e+000 0.000000e+000
         vertex -5.046821e+001 -5.796529e+000 0.000000e+000
      endloop
   endfacet
   facet normal 9.911178e-001 1.329864e-001 0.000000e+000
      outer loop
         vertex -5.005525e+001 -8.666737e+000 2.540000e+001
         vertex -5.046821e+001 -5.796529e+000 0.000000e+000
         vertex -5.046821e+001 -5.796529e+000 2.540000e+001
      endloop
   endfacet
   facet normal 9.954599e-001 9.518206e-002 0.000000e+000
      outer loop
         vertex -5.046821e+001 -5.796529e+000 2.540000e+001
         vertex -5.046821e+001 -5.796529e+000 0.000000e+000
         vertex -5.071673e+001 -2.907434e+000 0.000000e+000
      endloop
   endfacet
   facet normal 9.970912e-001 7.621787e-002 0.000000e+000
      outer loop
         vertex -5.046821e+001 -5.796529e+000 2.540000e+001
         vertex -5.071673e+001 -2.907434e+000 0.000000e+000
         vertex -5.071673e+001 -2.907434e+000 2.540000e+001
      endloop
   endfacet
   facet normal 9.992691e-001 3.822733e-002 0.000000e+000
      outer loop
         vertex -5.071673e+001 -2.907434e+000 2.540000e+001
         vertex -5.071673e+001 -2.907434e+000 0.000000e+000
         vertex -5.080000e+001 -8.866273e-003 0.000000e+000
      endloop
   endfacet
   facet normal 9.998156e-001 1.920096e-002 0.000000e+000
      outer loop
         vertex -5.071673e+001 -2.907434e+000 2.540000e+001
         vertex -5.080000e+001 -8.866273e-003 0.000000e+000
         vertex -5.080000e+001 -8.866273e-003 2.540000e+001
      endloop
   endfacet
   facet normal 5.405341e-001 -8.413222e-001 0.000000e+000
      outer loop
         vertex -4.273916e+001 -2.745913e+001 0.000000e+000
         vertex -4.273916e+001 -2.745913e+001 2.540000e+001
         vertex -5.342396e+001 -3.432391e+001 0.000000e+000
      endloop
   endfacet
   facet normal 5.405341e-001 -8.413222e-001 0.000000e+000
      outer loop
         vertex -5.342396e+001 -3.432391e+001 0.000000e+000
         vertex -4.273916e+001 -2.745913e+001 2.540000e+001
         vertex -5.342396e+001 -3.432391e+001 2.540000e+001
      endloop
   endfacet
   facet normal -1.745329e-004 1.000000e+000 0.000000e+000
      outer loop
         vertex -5.080000e+001 -8.866273e-003 0.000000e+000
         vertex -6.350000e+001 -1.108284e-002 0.000000e+000
         vertex -5.080000e+001 -8.866273e-003 2.540000e+001
      endloop
   endfacet
   facet normal -1.745329e-004 1.000000e+000 0.000000e+000
      outer loop
         vertex -5.080000e+001 -8.866273e-003 2.540000e+001
         vertex -6.350000e+001 -1.108284e-002 0.000000e+000
         vertex -6.350000e+001 -1.108284e-002 2.540000e+001
      endloop
   endfacet
endsolid