solid 10
   facet normal 0.000000e+000 0.000000e+000 1.000000e+000
      outer loop
         vertex -5.337598e+001 3.439847e+001 2.540000e+001
         vertex -4.270078e+001 2.751878e+001 2.540000e+001
         vertex -5.151905e+001 3.712193e+001 2.540000e+001
      endloop
   endfacet
   facet normal 0.000000e+000 0.000000e+000 1.000000e+000
      outer loop
         vertex -5.151905e+001 3.712193e+001 2.540000e+001
         vertex -4.270078e+001 2.751878e+001 2.540000e+001
         vertex -4.106051e+001 2.991111e+001 2.540000e+001
      endloop
   endfacet
   facet normal 0.000000e+000 0.000000e+000 1.000000e+000
      outer loop
         vertex -5.151905e+001 3.712193e+001 2.540000e+001
         vertex -4.106051e+001 2.991111e+001 2.540000e+001
         vertex -4.952329e+001 3.974535e+001 2.540000e+001
      endloop
   endfacet
   facet normal 0.000000e+000 0.000000e+000 1.000000e+000
      outer loop
         vertex -4.952329e+001 3.974535e+001 2.540000e+001
         vertex -4.106051e+001 2.991111e+001 2.540000e+001
         vertex -3.928636e+001 3.220593e+001 2.540000e+001
      endloop
   endfacet
   facet normal 0.000000e+000 0.000000e+000 1.000000e+000
      outer loop
         vertex -4.952329e+001 3.974535e+001 2.540000e+001
         vertex -3.928636e+001 3.220593e+001 2.540000e+001
         vertex -4.739409e+001 4.226168e+001 2.540000e+001
      endloop
   endfacet
   facet normal 0.000000e+000 0.000000e+000 1.000000e+000
      outer loop
         vertex -4.739409e+001 4.226168e+001 2.540000e+001
         vertex -3.928636e+001 3.220593e+001 2.540000e+001
         vertex -3.738413e+001 3.439574e+001 2.540000e+001
      endloop
   endfacet
   facet normal 0.000000e+000 0.000000e+000 1.000000e+000
      outer loop
         vertex -4.739409e+001 4.226168e+001 2.540000e+001
         vertex -3.738413e+001 3.439574e+001 2.540000e+001
         vertex -4.513718e+001 4.466413e+001 2.540000e+001
      endloop
   endfacet
   facet normal 0.000000e+000 0.000000e+000 1.000000e+000
      outer loop
         vertex -4.513718e+001 4.466413e+001 2.540000e+001
         vertex -3.738413e+001 3.439574e+001 2.540000e+001
         vertex -3.536001e+001 3.647341e+001 2.540000e+001
      endloop
   endfacet
   facet normal 0.000000e+000 0.000000e+000 1.000000e+000
      outer loop
         vertex -4.513718e+001 4.466413e+001 2.540000e+001
         vertex -3.536001e+001 3.647341e+001 2.540000e+001
         vertex -4.275865e+001 4.694623e+001 2.540000e+001
      endloop
   endfacet
   facet normal 0.000000e+000 0.000000e+000 1.000000e+000
      outer loop
         vertex -4.275865e+001 4.694623e+001 2.540000e+001
         vertex -3.536001e+001 3.647341e+001 2.540000e+001
         vertex -3.322060e+001 3.843217e+001 2.540000e+001
      endloop
   endfacet
   facet normal 0.000000e+000 0.000000e+000 1.000000e+000
      outer loop
         vertex -4.275865e+001 4.694623e+001 2.540000e+001
         vertex -3.322060e+001 3.843217e+001 2.540000e+001
         vertex -4.026489e+001 4.910182e+001 2.540000e+001
      endloop
   endfacet
   facet normal 0.000000e+000 0.000000e+000 1.000000e+000
      outer loop
         vertex -4.026489e+001 4.910182e+001 2.540000e+001
         vertex -3.322060e+001 3.843217e+001 2.540000e+001
         vertex -3.097289e+001 4.026562e+001 2.540000e+001
      endloop
   endfacet
   facet normal 0.000000e+000 0.000000e+000 1.000000e+000
      outer loop
         vertex -2.105028e+001 4.623338e+001 2.540000e+001
         vertex -2.631285e+001 5.779173e+001 2.540000e+001
         vertex -2.365479e+001 4.495655e+001 2.540000e+001
      endloop
   endfacet
   facet normal 0.000000e+000 0.000000e+000 1.000000e+000
      outer loop
         vertex -2.365479e+001 4.495655e+001 2.540000e+001
         vertex -2.631285e+001 5.779173e+001 2.540000e+001
         vertex -2.927634e+001 5.634843e+001 2.540000e+001
      endloop
   endfacet
   facet normal 0.000000e+000 0.000000e+000 1.000000e+000
      outer loop
         vertex -2.365479e+001 4.495655e+001 2.540000e+001
         vertex -2.927634e+001 5.634843e+001 2.540000e+001
         vertex -2.618217e+001 4.353313e+001 2.540000e+001
      endloop
   endfacet
   facet normal 0.000000e+000 0.000000e+000 1.000000e+000
      outer loop
         vertex -2.618217e+001 4.353313e+001 2.540000e+001
         vertex -2.927634e+001 5.634843e+001 2.540000e+001
         vertex -3.216095e+001 5.475330e+001 2.540000e+001
      endloop
   endfacet
   facet normal 0.000000e+000 0.000000e+000 1.000000e+000
      outer loop
         vertex -2.618217e+001 4.353313e+001 2.540000e+001
         vertex -3.216095e+001 5.475330e+001 2.540000e+001
         vertex -2.862419e+001 4.196779e+001 2.540000e+001
      endloop
   endfacet
   facet normal 0.000000e+000 0.000000e+000 1.000000e+000
      outer loop
         vertex -2.862419e+001 4.196779e+001 2.540000e+001
         vertex -3.216095e+001 5.475330e+001 2.540000e+001
         vertex -3.495889e+001 5.301062e+001 2.540000e+001
      endloop
   endfacet
   facet normal 0.000000e+000 0.000000e+000 1.000000e+000
      outer loop
         vertex -2.862419e+001 4.196779e+001 2.540000e+001
         vertex -3.495889e+001 5.301062e+001 2.540000e+001
         vertex -3.097289e+001 4.026562e+001 2.540000e+001
      endloop
   endfacet
   facet normal 0.000000e+000 0.000000e+000 1.000000e+000
      outer loop
         vertex -3.097289e+001 4.026562e+001 2.540000e+001
         vertex -3.495889e+001 5.301062e+001 2.540000e+001
         vertex -3.766263e+001 5.112510e+001 2.540000e+001
      endloop
   endfacet
   facet normal 0.000000e+000 0.000000e+000 1.000000e+000
      outer loop
         vertex -3.097289e+001 4.026562e+001 2.540000e+001
         vertex -3.766263e+001 5.112510e+001 2.540000e+001
         vertex -4.026489e+001 4.910182e+001 2.540000e+001
      endloop
   endfacet
   facet normal 0.000000e+000 0.000000e+000 -1.000000e+000
      outer loop
         vertex -4.270078e+001 2.751878e+001 0.000000e+000
         vertex -5.337598e+001 3.439847e+001 0.000000e+000
         vertex -4.106051e+001 2.991111e+001 0.000000e+000
      endloop
   endfacet
   facet normal 0.000000e+000 0.000000e+000 -1.000000e+000
      outer loop
         vertex -4.106051e+001 2.991111e+001 0.000000e+000
         vertex -5.337598e+001 3.439847e+001 0.000000e+000
         vertex -5.151905e+001 3.712193e+001 0.000000e+000
      endloop
   endfacet
   facet normal 0.000000e+000 0.000000e+000 -1.000000e+000
      outer loop
         vertex -4.106051e+001 2.991111e+001 0.000000e+000
         vertex -5.151905e+001 3.712193e+001 0.000000e+000
         vertex -3.928636e+001 3.220593e+001 0.000000e+000
      endloop
   endfacet
   facet normal 0.000000e+000 0.000000e+000 -1.000000e+000
      outer loop
         vertex -3.928636e+001 3.220593e+001 0.000000e+000
         vertex -5.151905e+001 3.712193e+001 0.000000e+000
         vertex -4.952329e+001 3.974535e+001 0.000000e+000
      endloop
   endfacet
   facet normal 0.000000e+000 0.000000e+000 -1.000000e+000
      outer loop
         vertex -3.928636e+001 3.220593e+001 0.000000e+000
         vertex -4.952329e+001 3.974535e+001 0.000000e+000
         vertex -3.738413e+001 3.439574e+001 0.000000e+000
      endloop
   endfacet
   facet normal 0.000000e+000 0.000000e+000 -1.000000e+000
      outer loop
         vertex -3.738413e+001 3.439574e+001 0.000000e+000
         vertex -4.952329e+001 3.974535e+001 0.000000e+000
         vertex -4.739409e+001 4.226168e+001 0.000000e+000
      endloop
   endfacet
   facet normal 0.000000e+000 0.000000e+000 -1.000000e+000
      outer loop
         vertex -3.738413e+001 3.439574e+001 0.000000e+000
         vertex -4.739409e+001 4.226168e+001 0.000000e+000
         vertex -3.536001e+001 3.647341e+001 0.000000e+000
      endloop
   endfacet
   facet normal 0.000000e+000 0.000000e+000 -1.000000e+000
      outer loop
         vertex -3.536001e+001 3.647341e+001 0.000000e+000
         vertex -4.739409e+001 4.226168e+001 0.000000e+000
         vertex -4.513718e+001 4.466413e+001 0.000000e+000
      endloop
   endfacet
   facet normal 0.000000e+000 0.000000e+000 -1.000000e+000
      outer loop
         vertex -3.536001e+001 3.647341e+001 0.000000e+000
         vertex -4.513718e+001 4.466413e+001 0.000000e+000
         vertex -3.322060e+001 3.843217e+001 0.000000e+000
      endloop
   endfacet
   facet normal 0.000000e+000 0.000000e+000 -1.000000e+000
      outer loop
         vertex -2.631285e+001 5.779173e+001 0.000000e+000
         vertex -2.105028e+001 4.623338e+001 0.000000e+000
         vertex -2.927634e+001 5.634843e+001 0.000000e+000
      endloop
   endfacet
   facet normal 0.000000e+000 0.000000e+000 -1.000000e+000
      outer loop
         vertex -2.927634e+001 5.634843e+001 0.000000e+000
         vertex -2.105028e+001 4.623338e+001 0.000000e+000
         vertex -2.365479e+001 4.495655e+001 0.000000e+000
      endloop
   endfacet
   facet normal 0.000000e+000 0.000000e+000 -1.000000e+000
      outer loop
         vertex -2.927634e+001 5.634843e+001 0.000000e+000
         vertex -2.365479e+001 4.495655e+001 0.000000e+000
         vertex -3.216095e+001 5.475330e+001 0.000000e+000
      endloop
   endfacet
   facet normal 0.000000e+000 0.000000e+000 -1.000000e+000
      outer loop
         vertex -3.216095e+001 5.475330e+001 0.000000e+000
         vertex -2.365479e+001 4.495655e+001 0.000000e+000
         vertex -2.618217e+001 4.353313e+001 0.000000e+000
      endloop
   endfacet
   facet normal 0.000000e+000 0.000000e+000 -1.000000e+000
      outer loop
         vertex -3.216095e+001 5.475330e+001 0.000000e+000
         vertex -2.618217e+001 4.353313e+001 0.000000e+000
         vertex -3.495889e+001 5.301062e+001 0.000000e+000
      endloop
   endfacet
   facet normal 0.000000e+000 0.000000e+000 -1.000000e+000
      outer loop
         vertex -3.495889e+001 5.301062e+001 0.000000e+000
         vertex -2.618217e+001 4.353313e+001 0.000000e+000
         vertex -2.862419e+001 4.196779e+001 0.000000e+000
      endloop
   endfacet
   facet normal 0.000000e+000 0.000000e+000 -1.000000e+000
      outer loop
         vertex -3.495889e+001 5.301062e+001 0.000000e+000
         vertex -2.862419e+001 4.196779e+001 0.000000e+000
         vertex -3.766263e+001 5.112510e+001 0.000000e+000
      endloop
   endfacet
   facet normal 0.000000e+000 0.000000e+000 -1.000000e+000
      outer loop
         vertex -3.766263e+001 5.112510e+001 0.000000e+000
         vertex -2.862419e+001 4.196779e+001 0.000000e+000
         vertex -3.097289e+001 4.026562e+001 0.000000e+000
      endloop
   endfacet
   facet normal 0.000000e+000 0.000000e+000 -1.000000e+000
      outer loop
         vertex -3.766263e+001 5.112510e+001 0.000000e+000
         vertex -3.097289e+001 4.026562e+001 0.000000e+000
         vertex -4.026489e+001 4.910182e+001 0.000000e+000
      endloop
   endfacet
   facet normal 0.000000e+000 0.000000e+000 -1.000000e+000
      outer loop
         vertex -4.026489e+001 4.910182e+001 0.000000e+000
         vertex -3.097289e+001 4.026562e+001 0.000000e+000
         vertex -3.322060e+001 3.843217e+001 0.000000e+000
      endloop
   endfacet
   facet normal 0.000000e+000 0.000000e+000 -1.000000e+000
      outer loop
         vertex -4.026489e+001 4.910182e+001 0.000000e+000
         vertex -3.322060e+001 3.843217e+001 0.000000e+000
         vertex -4.275865e+001 4.694623e+001 0.000000e+000
      endloop
   endfacet
   facet normal 0.000000e+000 0.000000e+000 -1.000000e+000
      outer loop
         vertex -4.275865e+001 4.694623e+001 0.000000e+000
         vertex -3.322060e+001 3.843217e+001 0.000000e+000
         vertex -4.513718e+001 4.466413e+001 0.000000e+000
      endloop
   endfacet
   facet normal -4.300608e-001 9.028000e-001 0.000000e+000
      outer loop
         vertex -2.631285e+001 5.779173e+001 2.540000e+001
         vertex -2.631285e+001 5.779173e+001 0.000000e+000
         vertex -2.927634e+001 5.634843e+001 0.000000e+000
      endloop
   endfacet
   facet normal -4.456218e-001 8.952213e-001 0.000000e+000
      outer loop
         vertex -2.631285e+001 5.779173e+001 2.540000e+001
         vertex -2.927634e+001 5.634843e+001 0.000000e+000
         vertex -2.927634e+001 5.634843e+001 2.540000e+001
      endloop
   endfacet
   facet normal -4.763297e-001 8.792667e-001 0.000000e+000
      outer loop
         vertex -2.927634e+001 5.634843e+001 2.540000e+001
         vertex -2.927634e+001 5.634843e+001 0.000000e+000
         vertex -3.216095e+001 5.475330e+001 0.000000e+000
      endloop
   endfacet
   facet normal -4.914765e-001 8.708908e-001 0.000000e+000
      outer loop
         vertex -2.927634e+001 5.634843e+001 2.540000e+001
         vertex -3.216095e+001 5.475330e+001 0.000000e+000
         vertex -3.216095e+001 5.475330e+001 2.540000e+001
      endloop
   endfacet
   facet normal -5.213151e-001 8.533642e-001 0.000000e+000
      outer loop
         vertex -3.216095e+001 5.475330e+001 2.540000e+001
         vertex -3.216095e+001 5.475330e+001 0.000000e+000
         vertex -3.495889e+001 5.301062e+001 0.000000e+000
      endloop
   endfacet
   facet normal -5.360069e-001 8.442136e-001 0.000000e+000
      outer loop
         vertex -3.216095e+001 5.475330e+001 2.540000e+001
         vertex -3.495889e+001 5.301062e+001 0.000000e+000
         vertex -3.495889e+001 5.301062e+001 2.540000e+001
      endloop
   endfacet
   facet normal -5.648958e-001 8.251623e-001 0.000000e+000
      outer loop
         vertex -3.495889e+001 5.301062e+001 2.540000e+001
         vertex -3.495889e+001 5.301062e+001 0.000000e+000
         vertex -3.766263e+001 5.112510e+001 0.000000e+000
      endloop
   endfacet
   facet normal -5.790929e-001 8.152616e-001 0.000000e+000
      outer loop
         vertex -3.495889e+001 5.301062e+001 2.540000e+001
         vertex -3.766263e+001 5.112510e+001 0.000000e+000
         vertex -3.766263e+001 5.112510e+001 2.540000e+001
      endloop
   endfacet
   facet normal -6.069543e-001 7.947368e-001 0.000000e+000
      outer loop
         vertex -3.766263e+001 5.112510e+001 2.540000e+001
         vertex -3.766263e+001 5.112510e+001 0.000000e+000
         vertex -4.026489e+001 4.910182e+001 0.000000e+000
      endloop
   endfacet
   facet normal -6.206185e-001 7.841127e-001 0.000000e+000
      outer loop
         vertex -3.766263e+001 5.112510e+001 2.540000e+001
         vertex -4.026489e+001 4.910182e+001 0.000000e+000
         vertex -4.026489e+001 4.910182e+001 2.540000e+001
      endloop
   endfacet
   facet normal -6.473772e-001 7.621698e-001 0.000000e+000
      outer loop
         vertex -4.026489e+001 4.910182e+001 2.540000e+001
         vertex -4.026489e+001 4.910182e+001 0.000000e+000
         vertex -4.275865e+001 4.694623e+001 0.000000e+000
      endloop
   endfacet
   facet normal -6.604717e-001 7.508510e-001 0.000000e+000
      outer loop
         vertex -4.026489e+001 4.910182e+001 2.540000e+001
         vertex -4.275865e+001 4.694623e+001 0.000000e+000
         vertex -4.275865e+001 4.694623e+001 2.540000e+001
      endloop
   endfacet
   facet normal -6.860557e-001 7.275490e-001 0.000000e+000
      outer loop
         vertex -4.275865e+001 4.694623e+001 2.540000e+001
         vertex -4.275865e+001 4.694623e+001 0.000000e+000
         vertex -4.513718e+001 4.466413e+001 0.000000e+000
      endloop
   endfacet
   facet normal -6.985453e-001 7.155659e-001 0.000000e+000
      outer loop
         vertex -4.275865e+001 4.694623e+001 2.540000e+001
         vertex -4.513718e+001 4.466413e+001 0.000000e+000
         vertex -4.513718e+001 4.466413e+001 2.540000e+001
      endloop
   endfacet
   facet normal -7.228856e-001 6.909677e-001 0.000000e+000
      outer loop
         vertex -4.513718e+001 4.466413e+001 2.540000e+001
         vertex -4.513718e+001 4.466413e+001 0.000000e+000
         vertex -4.739409e+001 4.226168e+001 0.000000e+000
      endloop
   endfacet
   facet normal -7.347364e-001 6.783527e-001 0.000000e+000
      outer loop
         vertex -4.513718e+001 4.466413e+001 2.540000e+001
         vertex -4.739409e+001 4.226168e+001 0.000000e+000
         vertex -4.739409e+001 4.226168e+001 2.540000e+001
      endloop
   endfacet
   facet normal -7.577675e-001 6.525247e-001 0.000000e+000
      outer loop
         vertex -4.739409e+001 4.226168e+001 2.540000e+001
         vertex -4.739409e+001 4.226168e+001 0.000000e+000
         vertex -4.952329e+001 3.974535e+001 0.000000e+000
      endloop
   endfacet
   facet normal -7.689478e-001 6.393116e-001 0.000000e+000
      outer loop
         vertex -4.739409e+001 4.226168e+001 2.540000e+001
         vertex -4.952329e+001 3.974535e+001 0.000000e+000
         vertex -4.952329e+001 3.974535e+001 2.540000e+001
      endloop
   endfacet
   facet normal -7.906075e-001 6.123232e-001 0.000000e+000
      outer loop
         vertex -4.952329e+001 3.974535e+001 2.540000e+001
         vertex -4.952329e+001 3.974535e+001 0.000000e+000
         vertex -5.151905e+001 3.712193e+001 0.000000e+000
      endloop
   endfacet
   facet normal -8.010871e-001 5.985478e-001 0.000000e+000
      outer loop
         vertex -4.952329e+001 3.974535e+001 2.540000e+001
         vertex -5.151905e+001 3.712193e+001 0.000000e+000
         vertex -5.151905e+001 3.712193e+001 2.540000e+001
      endloop
   endfacet
   facet normal -8.213173e-001 5.704718e-001 0.000000e+000
      outer loop
         vertex -5.151905e+001 3.712193e+001 2.540000e+001
         vertex -5.151905e+001 3.712193e+001 0.000000e+000
         vertex -5.337598e+001 3.439847e+001 0.000000e+000
      endloop
   endfacet
   facet normal -8.310678e-001 5.561711e-001 0.000000e+000
      outer loop
         vertex -5.151905e+001 3.712193e+001 2.540000e+001
         vertex -5.337598e+001 3.439847e+001 0.000000e+000
         vertex -5.337598e+001 3.439847e+001 2.540000e+001
      endloop
   endfacet
   facet normal 8.301044e-001 -5.576080e-001 0.000000e+000
      outer loop
         vertex -4.270078e+001 2.751878e+001 2.540000e+001
         vertex -4.270078e+001 2.751878e+001 0.000000e+000
         vertex -4.106051e+001 2.991111e+001 0.000000e+000
      endloop
   endfacet
   facet normal 8.193375e-001 -5.733114e-001 0.000000e+000
      outer loop
         vertex -4.270078e+001 2.751878e+001 2.540000e+001
         vertex -4.106051e+001 2.991111e+001 0.000000e+000
         vertex -4.106051e+001 2.991111e+001 2.540000e+001
      endloop
   endfacet
   facet normal 7.969251e-001 -6.040781e-001 0.000000e+000
      outer loop
         vertex -4.106051e+001 2.991111e+001 2.540000e+001
         vertex -4.106051e+001 2.991111e+001 0.000000e+000
         vertex -3.928636e+001 3.220593e+001 0.000000e+000
      endloop
   endfacet
   facet normal 7.852795e-001 -6.191415e-001 0.000000e+000
      outer loop
         vertex -4.106051e+001 2.991111e+001 2.540000e+001
         vertex -3.928636e+001 3.220593e+001 0.000000e+000
         vertex -3.928636e+001 3.220593e+001 2.540000e+001
      endloop
   endfacet
   facet normal 7.611475e-001 -6.485788e-001 0.000000e+000
      outer loop
         vertex -3.928636e+001 3.220593e+001 2.540000e+001
         vertex -3.928636e+001 3.220593e+001 0.000000e+000
         vertex -3.738413e+001 3.439574e+001 0.000000e+000
      endloop
   endfacet
   facet normal 7.486612e-001 -6.629528e-001 0.000000e+000
      outer loop
         vertex -3.928636e+001 3.220593e+001 2.540000e+001
         vertex -3.738413e+001 3.439574e+001 0.000000e+000
         vertex -3.738413e+001 3.439574e+001 2.540000e+001
      endloop
   endfacet
   facet normal 7.228883e-001 -6.909649e-001 0.000000e+000
      outer loop
         vertex -3.738413e+001 3.439574e+001 2.540000e+001
         vertex -3.738413e+001 3.439574e+001 0.000000e+000
         vertex -3.536001e+001 3.647341e+001 0.000000e+000
      endloop
   endfacet
   facet normal 7.096019e-001 -7.046028e-001 0.000000e+000
      outer loop
         vertex -3.738413e+001 3.439574e+001 2.540000e+001
         vertex -3.536001e+001 3.647341e+001 0.000000e+000
         vertex -3.536001e+001 3.647341e+001 2.540000e+001
      endloop
   endfacet
   facet normal 6.822724e-001 -7.310981e-001 0.000000e+000
      outer loop
         vertex -3.536001e+001 3.647341e+001 2.540000e+001
         vertex -3.536001e+001 3.647341e+001 0.000000e+000
         vertex -3.322060e+001 3.843217e+001 0.000000e+000
      endloop
   endfacet
   facet normal 6.682292e-001 -7.439556e-001 0.000000e+000
      outer loop
         vertex -3.536001e+001 3.647341e+001 2.540000e+001
         vertex -3.322060e+001 3.843217e+001 0.000000e+000
         vertex -3.322060e+001 3.843217e+001 2.540000e+001
      endloop
   endfacet
   facet normal 6.394318e-001 -7.688478e-001 0.000000e+000
      outer loop
         vertex -3.322060e+001 3.843217e+001 2.540000e+001
         vertex -3.322060e+001 3.843217e+001 0.000000e+000
         vertex -3.097289e+001 4.026562e+001 0.000000e+000
      endloop
   endfacet
   facet normal 6.246777e-001 -7.808827e-001 0.000000e+000
      outer loop
         vertex -3.322060e+001 3.843217e+001 2.540000e+001
         vertex -3.097289e+001 4.026562e+001 0.000000e+000
         vertex -3.097289e+001 4.026562e+001 2.540000e+001
      endloop
   endfacet
   facet normal 5.945066e-001 -8.040907e-001 0.000000e+000
      outer loop
         vertex -3.097289e+001 4.026562e+001 2.540000e+001
         vertex -3.097289e+001 4.026562e+001 0.000000e+000
         vertex -2.862419e+001 4.196779e+001 0.000000e+000
      endloop
   endfacet
   facet normal 5.790896e-001 -8.152639e-001 0.000000e+000
      outer loop
         vertex -3.097289e+001 4.026562e+001 2.540000e+001
         vertex -2.862419e+001 4.196779e+001 0.000000e+000
         vertex -2.862419e+001 4.196779e+001 2.540000e+001
      endloop
   endfacet
   facet normal 5.476431e-001 -8.367121e-001 0.000000e+000
      outer loop
         vertex -2.862419e+001 4.196779e+001 2.540000e+001
         vertex -2.862419e+001 4.196779e+001 0.000000e+000
         vertex -2.618217e+001 4.353313e+001 0.000000e+000
      endloop
   endfacet
   facet normal 5.316135e-001 -8.469871e-001 0.000000e+000
      outer loop
         vertex -2.862419e+001 4.196779e+001 2.540000e+001
         vertex -2.618217e+001 4.353313e+001 0.000000e+000
         vertex -2.618217e+001 4.353313e+001 2.540000e+001
      endloop
   endfacet
   facet normal 4.989940e-001 -8.666055e-001 0.000000e+000
      outer loop
         vertex -2.618217e+001 4.353313e+001 2.540000e+001
         vertex -2.618217e+001 4.353313e+001 0.000000e+000
         vertex -2.365479e+001 4.495655e+001 0.000000e+000
      endloop
   endfacet
   facet normal 4.824041e-001 -8.759488e-001 0.000000e+000
      outer loop
         vertex -2.618217e+001 4.353313e+001 2.540000e+001
         vertex -2.365479e+001 4.495655e+001 0.000000e+000
         vertex -2.365479e+001 4.495655e+001 2.540000e+001
      endloop
   endfacet
   facet normal 4.487181e-001 -8.936734e-001 0.000000e+000
      outer loop
         vertex -2.365479e+001 4.495655e+001 2.540000e+001
         vertex -2.365479e+001 4.495655e+001 0.000000e+000
         vertex -2.105028e+001 4.623338e+001 0.000000e+000
      endloop
   endfacet
   facet normal 4.316219e-001 -9.020546e-001 0.000000e+000
      outer loop
         vertex -2.365479e+001 4.495655e+001 2.540000e+001
         vertex -2.105028e+001 4.623338e+001 0.000000e+000
         vertex -2.105028e+001 4.623338e+001 2.540000e+001
      endloop
   endfacet
   facet normal -5.417082e-001 -8.405666e-001 0.000000e+000
      outer loop
         vertex -4.270078e+001 2.751878e+001 0.000000e+000
         vertex -4.270078e+001 2.751878e+001 2.540000e+001
         vertex -5.337598e+001 3.439847e+001 0.000000e+000
      endloop
   endfacet
   facet normal -5.417082e-001 -8.405666e-001 0.000000e+000
      outer loop
         vertex -5.337598e+001 3.439847e+001 0.000000e+000
         vertex -4.270078e+001 2.751878e+001 2.540000e+001
         vertex -5.337598e+001 3.439847e+001 2.540000e+001
      endloop
   endfacet
   facet normal 9.101060e-001 4.143756e-001 0.000000e+000
      outer loop
         vertex -2.105028e+001 4.623338e+001 0.000000e+000
         vertex -2.631285e+001 5.779173e+001 0.000000e+000
         vertex -2.105028e+001 4.623338e+001 2.540000e+001
      endloop
   endfacet
   facet normal 9.101060e-001 4.143756e-001 0.000000e+000
      outer loop
         vertex -2.105028e+001 4.623338e+001 2.540000e+001
         vertex -2.631285e+001 5.779173e+001 0.000000e+000
         vertex -2.631285e+001 5.779173e+001 2.540000e+001
      endloop
   endfacet
endsolid