solid 11
   facet normal 0.000000e+000 0.000000e+000 1.000000e+000
      outer loop
         vertex -4.270078e+001 2.751878e+001 2.540000e+001
         vertex -5.337598e+001 3.439847e+001 2.540000e+001
         vertex -4.420184e+001 2.503672e+001 2.540000e+001
      endloop
   endfacet
   facet normal 0.000000e+000 0.000000e+000 1.000000e+000
      outer loop
         vertex -4.420184e+001 2.503672e+001 2.540000e+001
         vertex -5.337598e+001 3.439847e+001 2.540000e+001
         vertex -5.508908e+001 3.158232e+001 2.540000e+001
      endloop
   endfacet
   facet normal 0.000000e+000 0.000000e+000 1.000000e+000
      outer loop
         vertex -4.420184e+001 2.503672e+001 2.540000e+001
         vertex -5.508908e+001 3.158232e+001 2.540000e+001
         vertex -4.555878e+001 2.247304e+001 2.540000e+001
      endloop
   endfacet
   facet normal 0.000000e+000 0.000000e+000 1.000000e+000
      outer loop
         vertex -4.555878e+001 2.247304e+001 2.540000e+001
         vertex -5.508908e+001 3.158232e+001 2.540000e+001
         vertex -5.665374e+001 2.868107e+001 2.540000e+001
      endloop
   endfacet
   facet normal 0.000000e+000 0.000000e+000 1.000000e+000
      outer loop
         vertex -4.555878e+001 2.247304e+001 2.540000e+001
         vertex -5.665374e+001 2.868107e+001 2.540000e+001
         vertex -4.676719e+001 1.983608e+001 2.540000e+001
      endloop
   endfacet
   facet normal 0.000000e+000 0.000000e+000 1.000000e+000
      outer loop
         vertex -4.676719e+001 1.983608e+001 2.540000e+001
         vertex -5.665374e+001 2.868107e+001 2.540000e+001
         vertex -5.806573e+001 2.570254e+001 2.540000e+001
      endloop
   endfacet
   facet normal 0.000000e+000 0.000000e+000 1.000000e+000
      outer loop
         vertex -4.676719e+001 1.983608e+001 2.540000e+001
         vertex -5.806573e+001 2.570254e+001 2.540000e+001
         vertex -4.782312e+001 1.713446e+001 2.540000e+001
      endloop
   endfacet
   facet normal 0.000000e+000 0.000000e+000 1.000000e+000
      outer loop
         vertex -5.806573e+001 2.570254e+001 2.540000e+001
         vertex -5.932127e+001 2.265475e+001 2.540000e+001
         vertex -4.782312e+001 1.713446e+001 2.540000e+001
      endloop
   endfacet
   facet normal 0.000000e+000 0.000000e+000 1.000000e+000
      outer loop
         vertex -4.782312e+001 1.713446e+001 2.540000e+001
         vertex -5.932127e+001 2.265475e+001 2.540000e+001
         vertex -6.041695e+001 1.954591e+001 2.540000e+001
      endloop
   endfacet
   facet normal 0.000000e+000 0.000000e+000 1.000000e+000
      outer loop
         vertex -4.782312e+001 1.713446e+001 2.540000e+001
         vertex -6.041695e+001 1.954591e+001 2.540000e+001
         vertex -4.872313e+001 1.437696e+001 2.540000e+001
      endloop
   endfacet
   facet normal 0.000000e+000 0.000000e+000 1.000000e+000
      outer loop
         vertex -4.872313e+001 1.437696e+001 2.540000e+001
         vertex -6.041695e+001 1.954591e+001 2.540000e+001
         vertex -6.134983e+001 1.638440e+001 2.540000e+001
      endloop
   endfacet
   facet normal 0.000000e+000 0.000000e+000 1.000000e+000
      outer loop
         vertex -4.872313e+001 1.437696e+001 2.540000e+001
         vertex -6.134983e+001 1.638440e+001 2.540000e+001
         vertex -4.946428e+001 1.157260e+001 2.540000e+001
      endloop
   endfacet
   facet normal 0.000000e+000 0.000000e+000 1.000000e+000
      outer loop
         vertex -4.946428e+001 1.157260e+001 2.540000e+001
         vertex -6.134983e+001 1.638440e+001 2.540000e+001
         vertex -6.211739e+001 1.317874e+001 2.540000e+001
      endloop
   endfacet
   facet normal 0.000000e+000 0.000000e+000 1.000000e+000
      outer loop
         vertex -4.946428e+001 1.157260e+001 2.540000e+001
         vertex -6.211739e+001 1.317874e+001 2.540000e+001
         vertex -5.004416e+001 8.730505e+000 2.540000e+001
      endloop
   endfacet
   facet normal 0.000000e+000 0.000000e+000 1.000000e+000
      outer loop
         vertex -5.004416e+001 8.730505e+000 2.540000e+001
         vertex -6.211739e+001 1.317874e+001 2.540000e+001
         vertex -6.271758e+001 9.937569e+000 2.540000e+001
      endloop
   endfacet
   facet normal 0.000000e+000 0.000000e+000 1.000000e+000
      outer loop
         vertex -5.004416e+001 8.730505e+000 2.540000e+001
         vertex -6.271758e+001 9.937569e+000 2.540000e+001
         vertex -5.046089e+001 5.859945e+000 2.540000e+001
      endloop
   endfacet
   facet normal 0.000000e+000 0.000000e+000 1.000000e+000
      outer loop
         vertex -5.046089e+001 5.859945e+000 2.540000e+001
         vertex -6.271758e+001 9.937569e+000 2.540000e+001
         vertex -6.314876e+001 6.669621e+000 2.540000e+001
      endloop
   endfacet
   facet normal 0.000000e+000 0.000000e+000 1.000000e+000
      outer loop
         vertex -5.046089e+001 5.859945e+000 2.540000e+001
         vertex -6.314876e+001 6.669621e+000 2.540000e+001
         vertex -5.071309e+001 2.970279e+000 2.540000e+001
      endloop
   endfacet
   facet normal 0.000000e+000 0.000000e+000 1.000000e+000
      outer loop
         vertex -5.071309e+001 2.970279e+000 2.540000e+001
         vertex -6.314876e+001 6.669621e+000 2.540000e+001
         vertex -6.340978e+001 3.383701e+000 2.540000e+001
      endloop
   endfacet
   facet normal 0.000000e+000 0.000000e+000 1.000000e+000
      outer loop
         vertex -5.071309e+001 2.970279e+000 2.540000e+001
         vertex -6.340978e+001 3.383701e+000 2.540000e+001
         vertex -5.079995e+001 7.093016e-002 2.540000e+001
      endloop
   endfacet
   facet normal 0.000000e+000 0.000000e+000 1.000000e+000
      outer loop
         vertex -5.079995e+001 7.093016e-002 2.540000e+001
         vertex -6.340978e+001 3.383701e+000 2.540000e+001
         vertex -6.349994e+001 8.866269e-002 2.540000e+001
      endloop
   endfacet
   facet normal 0.000000e+000 0.000000e+000 -1.000000e+000
      outer loop
         vertex -5.337598e+001 3.439847e+001 0.000000e+000
         vertex -4.270078e+001 2.751878e+001 0.000000e+000
         vertex -5.508908e+001 3.158232e+001 0.000000e+000
      endloop
   endfacet
   facet normal 0.000000e+000 0.000000e+000 -1.000000e+000
      outer loop
         vertex -5.508908e+001 3.158232e+001 0.000000e+000
         vertex -4.270078e+001 2.751878e+001 0.000000e+000
         vertex -4.420184e+001 2.503672e+001 0.000000e+000
      endloop
   endfacet
   facet normal 0.000000e+000 0.000000e+000 -1.000000e+000
      outer loop
         vertex -5.508908e+001 3.158232e+001 0.000000e+000
         vertex -4.420184e+001 2.503672e+001 0.000000e+000
         vertex -5.665374e+001 2.868107e+001 0.000000e+000
      endloop
   endfacet
   facet normal 0.000000e+000 0.000000e+000 -1.000000e+000
      outer loop
         vertex -5.665374e+001 2.868107e+001 0.000000e+000
         vertex -4.420184e+001 2.503672e+001 0.000000e+000
         vertex -4.555878e+001 2.247304e+001 0.000000e+000
      endloop
   endfacet
   facet normal 0.000000e+000 0.000000e+000 -1.000000e+000
      outer loop
         vertex -5.665374e+001 2.868107e+001 0.000000e+000
         vertex -4.555878e+001 2.247304e+001 0.000000e+000
         vertex -5.806573e+001 2.570254e+001 0.000000e+000
      endloop
   endfacet
   facet normal 0.000000e+000 0.000000e+000 -1.000000e+000
      outer loop
         vertex -5.806573e+001 2.570254e+001 0.000000e+000
         vertex -4.555878e+001 2.247304e+001 0.000000e+000
         vertex -4.676719e+001 1.983608e+001 0.000000e+000
      endloop
   endfacet
   facet normal 0.000000e+000 0.000000e+000 -1.000000e+000
      outer loop
         vertex -5.806573e+001 2.570254e+001 0.000000e+000
         vertex -4.676719e+001 1.983608e+001 0.000000e+000
         vertex -5.932127e+001 2.265475e+001 0.000000e+000
      endloop
   endfacet
   facet normal 0.000000e+000 0.000000e+000 -1.000000e+000
      outer loop
         vertex -5.932127e+001 2.265475e+001 0.000000e+000
         vertex -4.676719e+001 1.983608e+001 0.000000e+000
         vertex -4.782312e+001 1.713446e+001 0.000000e+000
      endloop
   endfacet
   facet normal 0.000000e+000 0.000000e+000 -1.000000e+000
      outer loop
         vertex -5.932127e+001 2.265475e+001 0.000000e+000
         vertex -4.782312e+001 1.713446e+001 0.000000e+000
         vertex -6.041695e+001 1.954591e+001 0.000000e+000
      endloop
   endfacet
   facet normal 0.000000e+000 0.000000e+000 -1.000000e+000
      outer loop
         vertex -6.041695e+001 1.954591e+001 0.000000e+000
         vertex -4.782312e+001 1.713446e+001 0.000000e+000
         vertex -4.872313e+001 1.437696e+001 0.000000e+000
      endloop
   endfacet
   facet normal 0.000000e+000 0.000000e+000 -1.000000e+000
      outer loop
         vertex -5.079995e+001 7.093016e-002 0.000000e+000
         vertex -6.349994e+001 8.866269e-002 0.000000e+000
         vertex -5.071309e+001 2.970279e+000 0.000000e+000
      endloop
   endfacet
   facet normal 0.000000e+000 0.000000e+000 -1.000000e+000
      outer loop
         vertex -5.071309e+001 2.970279e+000 0.000000e+000
         vertex -6.349994e+001 8.866269e-002 0.000000e+000
         vertex -6.340978e+001 3.383701e+000 0.000000e+000
      endloop
   endfacet
   facet normal 0.000000e+000 0.000000e+000 -1.000000e+000
      outer loop
         vertex -5.071309e+001 2.970279e+000 0.000000e+000
         vertex -6.340978e+001 3.383701e+000 0.000000e+000
         vertex -5.046089e+001 5.859945e+000 0.000000e+000
      endloop
   endfacet
   facet normal 0.000000e+000 0.000000e+000 -1.000000e+000
      outer loop
         vertex -5.046089e+001 5.859945e+000 0.000000e+000
         vertex -6.340978e+001 3.383701e+000 0.000000e+000
         vertex -6.314876e+001 6.669621e+000 0.000000e+000
      endloop
   endfacet
   facet normal 0.000000e+000 0.000000e+000 -1.000000e+000
      outer loop
         vertex -5.046089e+001 5.859945e+000 0.000000e+000
         vertex -6.314876e+001 6.669621e+000 0.000000e+000
         vertex -5.004416e+001 8.730505e+000 0.000000e+000
      endloop
   endfacet
   facet normal 0.000000e+000 0.000000e+000 -1.000000e+000
      outer loop
         vertex -5.004416e+001 8.730505e+000 0.000000e+000
         vertex -6.314876e+001 6.669621e+000 0.000000e+000
         vertex -6.271758e+001 9.937569e+000 0.000000e+000
      endloop
   endfacet
   facet normal 0.000000e+000 0.000000e+000 -1.000000e+000
      outer loop
         vertex -5.004416e+001 8.730505e+000 0.000000e+000
         vertex -6.271758e+001 9.937569e+000 0.000000e+000
         vertex -4.946428e+001 1.157260e+001 0.000000e+000
      endloop
   endfacet
   facet normal 0.000000e+000 0.000000e+000 -1.000000e+000
      outer loop
         vertex -4.946428e+001 1.157260e+001 0.000000e+000
         vertex -6.271758e+001 9.937569e+000 0.000000e+000
         vertex -6.211739e+001 1.317874e+001 0.000000e+000
      endloop
   endfacet
   facet normal 0.000000e+000 0.000000e+000 -1.000000e+000
      outer loop
         vertex -4.946428e+001 1.157260e+001 0.000000e+000
         vertex -6.211739e+001 1.317874e+001 0.000000e+000
         vertex -4.872313e+001 1.437696e+001 0.000000e+000
      endloop
   endfacet
   facet normal 0.000000e+000 0.000000e+000 -1.000000e+000
      outer loop
         vertex -4.872313e+001 1.437696e+001 0.000000e+000
         vertex -6.211739e+001 1.317874e+001 0.000000e+000
         vertex -6.134983e+001 1.638440e+001 0.000000e+000
      endloop
   endfacet
   facet normal 0.000000e+000 0.000000e+000 -1.000000e+000
      outer loop
         vertex -4.872313e+001 1.437696e+001 0.000000e+000
         vertex -6.134983e+001 1.638440e+001 0.000000e+000
         vertex -6.041695e+001 1.954591e+001 0.000000e+000
      endloop
   endfacet
   facet normal -8.498137e-001 5.270831e-001 0.000000e+000
      outer loop
         vertex -5.337598e+001 3.439847e+001 2.540000e+001
         vertex -5.337598e+001 3.439847e+001 0.000000e+000
         vertex -5.508908e+001 3.158232e+001 0.000000e+000
      endloop
   endfacet
   facet normal -8.588091e-001 5.122958e-001 0.000000e+000
      outer loop
         vertex -5.337598e+001 3.439847e+001 2.540000e+001
         vertex -5.508908e+001 3.158232e+001 0.000000e+000
         vertex -5.508908e+001 3.158232e+001 2.540000e+001
      endloop
   endfacet
   facet normal -8.760203e-001 4.822742e-001 0.000000e+000
      outer loop
         vertex -5.508908e+001 3.158232e+001 2.540000e+001
         vertex -5.508908e+001 3.158232e+001 0.000000e+000
         vertex -5.665374e+001 2.868107e+001 0.000000e+000
      endloop
   endfacet
   facet normal -8.842362e-001 4.670400e-001 0.000000e+000
      outer loop
         vertex -5.508908e+001 3.158232e+001 2.540000e+001
         vertex -5.665374e+001 2.868107e+001 0.000000e+000
         vertex -5.665374e+001 2.868107e+001 2.540000e+001
      endloop
   endfacet
   facet normal -8.998664e-001 4.361658e-001 0.000000e+000
      outer loop
         vertex -5.665374e+001 2.868107e+001 2.540000e+001
         vertex -5.665374e+001 2.868107e+001 0.000000e+000
         vertex -5.806573e+001 2.570254e+001 0.000000e+000
      endloop
   endfacet
   facet normal -9.072806e-001 4.205257e-001 0.000000e+000
      outer loop
         vertex -5.665374e+001 2.868107e+001 2.540000e+001
         vertex -5.806573e+001 2.570254e+001 0.000000e+000
         vertex -5.806573e+001 2.570254e+001 2.540000e+001
      endloop
   endfacet
   facet normal -9.212877e-001 3.888819e-001 0.000000e+000
      outer loop
         vertex -5.806573e+001 2.570254e+001 2.540000e+001
         vertex -5.806573e+001 2.570254e+001 0.000000e+000
         vertex -5.932127e+001 2.265475e+001 0.000000e+000
      endloop
   endfacet
   facet normal -9.278803e-001 3.728782e-001 0.000000e+000
      outer loop
         vertex -5.806573e+001 2.570254e+001 2.540000e+001
         vertex -5.932127e+001 2.265475e+001 0.000000e+000
         vertex -5.932127e+001 2.265475e+001 2.540000e+001
      endloop
   endfacet
   facet normal -9.402263e-001 3.405503e-001 0.000000e+000
      outer loop
         vertex -5.932127e+001 2.265475e+001 2.540000e+001
         vertex -5.932127e+001 2.265475e+001 0.000000e+000
         vertex -6.041695e+001 1.954591e+001 0.000000e+000
      endloop
   endfacet
   facet normal -9.459797e-001 3.242260e-001 0.000000e+000
      outer loop
         vertex -5.932127e+001 2.265475e+001 2.540000e+001
         vertex -6.041695e+001 1.954591e+001 0.000000e+000
         vertex -6.041695e+001 1.954591e+001 2.540000e+001
      endloop
   endfacet
   facet normal -9.566315e-001 2.913009e-001 0.000000e+000
      outer loop
         vertex -6.041695e+001 1.954591e+001 2.540000e+001
         vertex -6.041695e+001 1.954591e+001 0.000000e+000
         vertex -6.134983e+001 1.638440e+001 0.000000e+000
      endloop
   endfacet
   facet normal -9.615300e-001 2.747001e-001 0.000000e+000
      outer loop
         vertex -6.041695e+001 1.954591e+001 2.540000e+001
         vertex -6.134983e+001 1.638440e+001 0.000000e+000
         vertex -6.134983e+001 1.638440e+001 2.540000e+001
      endloop
   endfacet
   facet normal -9.704589e-001 2.412667e-001 0.000000e+000
      outer loop
         vertex -6.134983e+001 1.638440e+001 2.540000e+001
         vertex -6.134983e+001 1.638440e+001 0.000000e+000
         vertex -6.211739e+001 1.317874e+001 0.000000e+000
      endloop
   endfacet
   facet normal -9.744893e-001 2.244340e-001 0.000000e+000
      outer loop
         vertex -6.134983e+001 1.638440e+001 2.540000e+001
         vertex -6.211739e+001 1.317874e+001 0.000000e+000
         vertex -6.211739e+001 1.317874e+001 2.540000e+001
      endloop
   endfacet
   facet normal -9.816713e-001 1.905822e-001 0.000000e+000
      outer loop
         vertex -6.211739e+001 1.317874e+001 2.540000e+001
         vertex -6.211739e+001 1.317874e+001 0.000000e+000
         vertex -6.271758e+001 9.937569e+000 0.000000e+000
      endloop
   endfacet
   facet normal -9.848228e-001 1.735631e-001 0.000000e+000
      outer loop
         vertex -6.211739e+001 1.317874e+001 2.540000e+001
         vertex -6.271758e+001 9.937569e+000 0.000000e+000
         vertex -6.271758e+001 9.937569e+000 2.540000e+001
      endloop
   endfacet
   facet normal -9.902384e-001 1.393843e-001 0.000000e+000
      outer loop
         vertex -6.271758e+001 9.937569e+000 2.540000e+001
         vertex -6.271758e+001 9.937569e+000 0.000000e+000
         vertex -6.314876e+001 6.669621e+000 0.000000e+000
      endloop
   endfacet
   facet normal -9.925025e-001 1.222246e-001 0.000000e+000
      outer loop
         vertex -6.271758e+001 9.937569e+000 2.540000e+001
         vertex -6.314876e+001 6.669621e+000 0.000000e+000
         vertex -6.314876e+001 6.669621e+000 2.540000e+001
      endloop
   endfacet
   facet normal -9.961372e-001 8.781076e-002 0.000000e+000
      outer loop
         vertex -6.314876e+001 6.669621e+000 2.540000e+001
         vertex -6.314876e+001 6.669621e+000 0.000000e+000
         vertex -6.340978e+001 3.383701e+000 0.000000e+000
      endloop
   endfacet
   facet normal -9.975078e-001 7.055668e-002 0.000000e+000
      outer loop
         vertex -6.314876e+001 6.669621e+000 2.540000e+001
         vertex -6.340978e+001 3.383701e+000 0.000000e+000
         vertex -6.340978e+001 3.383701e+000 2.540000e+001
      endloop
   endfacet
   facet normal -9.993518e-001 3.600062e-002 0.000000e+000
      outer loop
         vertex -6.340978e+001 3.383701e+000 2.540000e+001
         vertex -6.340978e+001 3.383701e+000 0.000000e+000
         vertex -6.349994e+001 8.866269e-002 0.000000e+000
      endloop
   endfacet
   facet normal -9.998252e-001 1.869865e-002 0.000000e+000
      outer loop
         vertex -6.340978e+001 3.383701e+000 2.540000e+001
         vertex -6.349994e+001 8.866269e-002 0.000000e+000
         vertex -6.349994e+001 8.866269e-002 2.540000e+001
      endloop
   endfacet
   facet normal 9.997914e-001 -2.042827e-002 0.000000e+000
      outer loop
         vertex -5.079995e+001 7.093016e-002 2.540000e+001
         vertex -5.079995e+001 7.093016e-002 0.000000e+000
         vertex -5.071309e+001 2.970279e+000 0.000000e+000
      endloop
   endfacet
   facet normal 9.992211e-001 -3.945976e-002 0.000000e+000
      outer loop
         vertex -5.079995e+001 7.093016e-002 2.540000e+001
         vertex -5.071309e+001 2.970279e+000 0.000000e+000
         vertex -5.071309e+001 2.970279e+000 2.540000e+001
      endloop
   endfacet
   facet normal 9.969956e-001 -7.745919e-002 0.000000e+000
      outer loop
         vertex -5.071309e+001 2.970279e+000 2.540000e+001
         vertex -5.071309e+001 2.970279e+000 0.000000e+000
         vertex -5.046089e+001 5.859945e+000 0.000000e+000
      endloop
   endfacet
   facet normal 9.953400e-001 -9.642712e-002 0.000000e+000
      outer loop
         vertex -5.071309e+001 2.970279e+000 2.540000e+001
         vertex -5.046089e+001 5.859945e+000 0.000000e+000
         vertex -5.046089e+001 5.859945e+000 2.540000e+001
      endloop
   endfacet
   facet normal 9.909492e-001 -1.342376e-001 0.000000e+000
      outer loop
         vertex -5.046089e+001 5.859945e+000 2.540000e+001
         vertex -5.046089e+001 5.859945e+000 0.000000e+000
         vertex -5.004416e+001 8.730505e+000 0.000000e+000
      endloop
   endfacet
   facet normal 9.882138e-001 -1.530801e-001 0.000000e+000
      outer loop
         vertex -5.046089e+001 5.859945e+000 2.540000e+001
         vertex -5.004416e+001 8.730505e+000 0.000000e+000
         vertex -5.004416e+001 8.730505e+000 2.540000e+001
      endloop
   endfacet
   facet normal 9.816720e-001 -1.905783e-001 0.000000e+000
      outer loop
         vertex -5.004416e+001 8.730505e+000 2.540000e+001
         vertex -5.004416e+001 8.730505e+000 0.000000e+000
         vertex -4.946428e+001 1.157260e+001 0.000000e+000
      endloop
   endfacet
   facet normal 9.778656e-001 -2.092340e-001 0.000000e+000
      outer loop
         vertex -5.004416e+001 8.730505e+000 2.540000e+001
         vertex -4.946428e+001 1.157260e+001 0.000000e+000
         vertex -4.946428e+001 1.157260e+001 2.540000e+001
      endloop
   endfacet
   facet normal 9.691942e-001 -2.462977e-001 0.000000e+000
      outer loop
         vertex -4.946428e+001 1.157260e+001 2.540000e+001
         vertex -4.946428e+001 1.157260e+001 0.000000e+000
         vertex -4.872313e+001 1.437696e+001 0.000000e+000
      endloop
   endfacet
   facet normal 9.643292e-001 -2.647057e-001 0.000000e+000
      outer loop
         vertex -4.946428e+001 1.157260e+001 2.540000e+001
         vertex -4.872313e+001 1.437696e+001 0.000000e+000
         vertex -4.872313e+001 1.437696e+001 2.540000e+001
      endloop
   endfacet
   facet normal 9.535566e-001 -3.012140e-001 0.000000e+000
      outer loop
         vertex -4.872313e+001 1.437696e+001 2.540000e+001
         vertex -4.872313e+001 1.437696e+001 0.000000e+000
         vertex -4.782312e+001 1.713446e+001 0.000000e+000
      endloop
   endfacet
   facet normal 9.476489e-001 -3.193143e-001 0.000000e+000
      outer loop
         vertex -4.872313e+001 1.437696e+001 2.540000e+001
         vertex -4.782312e+001 1.713446e+001 0.000000e+000
         vertex -4.782312e+001 1.713446e+001 2.540000e+001
      endloop
   endfacet
   facet normal 9.348100e-001 -3.551483e-001 0.000000e+000
      outer loop
         vertex -4.782312e+001 1.713446e+001 2.540000e+001
         vertex -4.782312e+001 1.713446e+001 0.000000e+000
         vertex -4.676719e+001 1.983608e+001 0.000000e+000
      endloop
   endfacet
   facet normal 9.278788e-001 -3.728819e-001 0.000000e+000
      outer loop
         vertex -4.782312e+001 1.713446e+001 2.540000e+001
         vertex -4.676719e+001 1.983608e+001 0.000000e+000
         vertex -4.676719e+001 1.983608e+001 2.540000e+001
      endloop
   endfacet
   facet normal 9.130155e-001 -4.079247e-001 0.000000e+000
      outer loop
         vertex -4.676719e+001 1.983608e+001 2.540000e+001
         vertex -4.676719e+001 1.983608e+001 0.000000e+000
         vertex -4.555878e+001 2.247304e+001 0.000000e+000
      endloop
   endfacet
   facet normal 9.050835e-001 -4.252338e-001 0.000000e+000
      outer loop
         vertex -4.676719e+001 1.983608e+001 2.540000e+001
         vertex -4.555878e+001 2.247304e+001 0.000000e+000
         vertex -4.555878e+001 2.247304e+001 2.540000e+001
      endloop
   endfacet
   facet normal 8.882445e-001 -4.593711e-001 0.000000e+000
      outer loop
         vertex -4.555878e+001 2.247304e+001 2.540000e+001
         vertex -4.555878e+001 2.247304e+001 0.000000e+000
         vertex -4.420184e+001 2.503672e+001 0.000000e+000
      endloop
   endfacet
   facet normal 8.793374e-001 -4.761993e-001 0.000000e+000
      outer loop
         vertex -4.555878e+001 2.247304e+001 2.540000e+001
         vertex -4.420184e+001 2.503672e+001 0.000000e+000
         vertex -4.420184e+001 2.503672e+001 2.540000e+001
      endloop
   endfacet
   facet normal 8.605773e-001 -5.093198e-001 0.000000e+000
      outer loop
         vertex -4.420184e+001 2.503672e+001 2.540000e+001
         vertex -4.420184e+001 2.503672e+001 0.000000e+000
         vertex -4.270078e+001 2.751878e+001 0.000000e+000
      endloop
   endfacet
   facet normal 8.507243e-001 -5.256122e-001 0.000000e+000
      outer loop
         vertex -4.420184e+001 2.503672e+001 2.540000e+001
         vertex -4.270078e+001 2.751878e+001 0.000000e+000
         vertex -4.270078e+001 2.751878e+001 2.540000e+001
      endloop
   endfacet
   facet normal -1.396263e-003 -9.999990e-001 0.000000e+000
      outer loop
         vertex -5.079995e+001 7.093016e-002 0.000000e+000
         vertex -5.079995e+001 7.093016e-002 2.540000e+001
         vertex -6.349994e+001 8.866269e-002 0.000000e+000
      endloop
   endfacet
   facet normal -1.396263e-003 -9.999990e-001 0.000000e+000
      outer loop
         vertex -6.349994e+001 8.866269e-002 0.000000e+000
         vertex -5.079995e+001 7.093016e-002 2.540000e+001
         vertex -6.349994e+001 8.866269e-002 2.540000e+001
      endloop
   endfacet
   facet normal 5.417082e-001 8.405666e-001 0.000000e+000
      outer loop
         vertex -4.270078e+001 2.751878e+001 0.000000e+000
         vertex -5.337598e+001 3.439847e+001 0.000000e+000
         vertex -4.270078e+001 2.751878e+001 2.540000e+001
      endloop
   endfacet
   facet normal 5.417082e-001 8.405666e-001 0.000000e+000
      outer loop
         vertex -4.270078e+001 2.751878e+001 2.540000e+001
         vertex -5.337598e+001 3.439847e+001 0.000000e+000
         vertex -5.337598e+001 3.439847e+001 2.540000e+001
      endloop
   endfacet
endsolid