solid 2
   facet normal 0.000000e+000 0.000000e+000 1.000000e+000
      outer loop
         vertex -4.273916e+001 -2.745913e+001 2.540000e+001
         vertex -5.342396e+001 -3.432391e+001 2.540000e+001
         vertex -4.110223e+001 -2.985375e+001 2.540000e+001
      endloop
   endfacet
   facet normal 0.000000e+000 0.000000e+000 1.000000e+000
      outer loop
         vertex -4.110223e+001 -2.985375e+001 2.540000e+001
         vertex -5.342396e+001 -3.432391e+001 2.540000e+001
         vertex -5.157083e+001 -3.704996e+001 2.540000e+001
      endloop
   endfacet
   facet normal 0.000000e+000 0.000000e+000 1.000000e+000
      outer loop
         vertex -4.110223e+001 -2.985375e+001 2.540000e+001
         vertex -5.157083e+001 -3.704996e+001 2.540000e+001
         vertex -3.933129e+001 -3.215104e+001 2.540000e+001
      endloop
   endfacet
   facet normal 0.000000e+000 0.000000e+000 1.000000e+000
      outer loop
         vertex -3.933129e+001 -3.215104e+001 2.540000e+001
         vertex -5.157083e+001 -3.704996e+001 2.540000e+001
         vertex -4.957874e+001 -3.967617e+001 2.540000e+001
      endloop
   endfacet
   facet normal 0.000000e+000 0.000000e+000 1.000000e+000
      outer loop
         vertex -3.933129e+001 -3.215104e+001 2.540000e+001
         vertex -4.957874e+001 -3.967617e+001 2.540000e+001
         vertex -3.743212e+001 -3.434351e+001 2.540000e+001
      endloop
   endfacet
   facet normal 0.000000e+000 0.000000e+000 1.000000e+000
      outer loop
         vertex -3.743212e+001 -3.434351e+001 2.540000e+001
         vertex -4.957874e+001 -3.967617e+001 2.540000e+001
         vertex -4.745306e+001 -4.219547e+001 2.540000e+001
      endloop
   endfacet
   facet normal 0.000000e+000 0.000000e+000 1.000000e+000
      outer loop
         vertex -3.743212e+001 -3.434351e+001 2.540000e+001
         vertex -4.745306e+001 -4.219547e+001 2.540000e+001
         vertex -3.541090e+001 -3.642400e+001 2.540000e+001
      endloop
   endfacet
   facet normal 0.000000e+000 0.000000e+000 1.000000e+000
      outer loop
         vertex -3.541090e+001 -3.642400e+001 2.540000e+001
         vertex -4.745306e+001 -4.219547e+001 2.540000e+001
         vertex -4.519950e+001 -4.460106e+001 2.540000e+001
      endloop
   endfacet
   facet normal 0.000000e+000 0.000000e+000 1.000000e+000
      outer loop
         vertex -3.541090e+001 -3.642400e+001 2.540000e+001
         vertex -4.519950e+001 -4.460106e+001 2.540000e+001
         vertex -3.327423e+001 -3.838575e+001 2.540000e+001
      endloop
   endfacet
   facet normal 0.000000e+000 0.000000e+000 1.000000e+000
      outer loop
         vertex -2.639352e+001 -5.775493e+001 2.540000e+001
         vertex -2.111481e+001 -4.620395e+001 2.540000e+001
         vertex -2.935499e+001 -5.630750e+001 2.540000e+001
      endloop
   endfacet
   facet normal 0.000000e+000 0.000000e+000 1.000000e+000
      outer loop
         vertex -2.935499e+001 -5.630750e+001 2.540000e+001
         vertex -2.111481e+001 -4.620395e+001 2.540000e+001
         vertex -2.371754e+001 -4.492347e+001 2.540000e+001
      endloop
   endfacet
   facet normal 0.000000e+000 0.000000e+000 1.000000e+000
      outer loop
         vertex -2.935499e+001 -5.630750e+001 2.540000e+001
         vertex -2.371754e+001 -4.492347e+001 2.540000e+001
         vertex -3.223737e+001 -5.470834e+001 2.540000e+001
      endloop
   endfacet
   facet normal 0.000000e+000 0.000000e+000 1.000000e+000
      outer loop
         vertex -3.223737e+001 -5.470834e+001 2.540000e+001
         vertex -2.371754e+001 -4.492347e+001 2.540000e+001
         vertex -2.624293e+001 -4.349653e+001 2.540000e+001
      endloop
   endfacet
   facet normal 0.000000e+000 0.000000e+000 1.000000e+000
      outer loop
         vertex -3.223737e+001 -5.470834e+001 2.540000e+001
         vertex -2.624293e+001 -4.349653e+001 2.540000e+001
         vertex -3.503288e+001 -5.296175e+001 2.540000e+001
      endloop
   endfacet
   facet normal 0.000000e+000 0.000000e+000 1.000000e+000
      outer loop
         vertex -3.503288e+001 -5.296175e+001 2.540000e+001
         vertex -2.624293e+001 -4.349653e+001 2.540000e+001
         vertex -2.868276e+001 -4.192778e+001 2.540000e+001
      endloop
   endfacet
   facet normal 0.000000e+000 0.000000e+000 1.000000e+000
      outer loop
         vertex -3.503288e+001 -5.296175e+001 2.540000e+001
         vertex -2.868276e+001 -4.192778e+001 2.540000e+001
         vertex -3.773398e+001 -5.107246e+001 2.540000e+001
      endloop
   endfacet
   facet normal 0.000000e+000 0.000000e+000 1.000000e+000
      outer loop
         vertex -3.773398e+001 -5.107246e+001 2.540000e+001
         vertex -2.868276e+001 -4.192778e+001 2.540000e+001
         vertex -3.102908e+001 -4.022233e+001 2.540000e+001
      endloop
   endfacet
   facet normal 0.000000e+000 0.000000e+000 1.000000e+000
      outer loop
         vertex -3.773398e+001 -5.107246e+001 2.540000e+001
         vertex -3.102908e+001 -4.022233e+001 2.540000e+001
         vertex -4.033341e+001 -4.904555e+001 2.540000e+001
      endloop
   endfacet
   facet normal 0.000000e+000 0.000000e+000 1.000000e+000
      outer loop
         vertex -4.033341e+001 -4.904555e+001 2.540000e+001
         vertex -3.102908e+001 -4.022233e+001 2.540000e+001
         vertex -3.327423e+001 -3.838575e+001 2.540000e+001
      endloop
   endfacet
   facet normal 0.000000e+000 0.000000e+000 1.000000e+000
      outer loop
         vertex -4.033341e+001 -4.904555e+001 2.540000e+001
         vertex -3.327423e+001 -3.838575e+001 2.540000e+001
         vertex -4.282415e+001 -4.688648e+001 2.540000e+001
      endloop
   endfacet
   facet normal 0.000000e+000 0.000000e+000 1.000000e+000
      outer loop
         vertex -4.282415e+001 -4.688648e+001 2.540000e+001
         vertex -3.327423e+001 -3.838575e+001 2.540000e+001
         vertex -4.519950e+001 -4.460106e+001 2.540000e+001
      endloop
   endfacet
   facet normal 0.000000e+000 0.000000e+000 -1.000000e+000
      outer loop
         vertex -2.111481e+001 -4.620395e+001 0.000000e+000
         vertex -2.639352e+001 -5.775493e+001 0.000000e+000
         vertex -2.371754e+001 -4.492347e+001 0.000000e+000
      endloop
   endfacet
   facet normal 0.000000e+000 0.000000e+000 -1.000000e+000
      outer loop
         vertex -2.371754e+001 -4.492347e+001 0.000000e+000
         vertex -2.639352e+001 -5.775493e+001 0.000000e+000
         vertex -2.935499e+001 -5.630750e+001 0.000000e+000
      endloop
   endfacet
   facet normal 0.000000e+000 0.000000e+000 -1.000000e+000
      outer loop
         vertex -2.371754e+001 -4.492347e+001 0.000000e+000
         vertex -2.935499e+001 -5.630750e+001 0.000000e+000
         vertex -2.624293e+001 -4.349653e+001 0.000000e+000
      endloop
   endfacet
   facet normal 0.000000e+000 0.000000e+000 -1.000000e+000
      outer loop
         vertex -2.624293e+001 -4.349653e+001 0.000000e+000
         vertex -2.935499e+001 -5.630750e+001 0.000000e+000
         vertex -3.223737e+001 -5.470834e+001 0.000000e+000
      endloop
   endfacet
   facet normal 0.000000e+000 0.000000e+000 -1.000000e+000
      outer loop
         vertex -2.624293e+001 -4.349653e+001 0.000000e+000
         vertex -3.223737e+001 -5.470834e+001 0.000000e+000
         vertex -2.868276e+001 -4.192778e+001 0.000000e+000
      endloop
   endfacet
   facet normal 0.000000e+000 0.000000e+000 -1.000000e+000
      outer loop
         vertex -2.868276e+001 -4.192778e+001 0.000000e+000
         vertex -3.223737e+001 -5.470834e+001 0.000000e+000
         vertex -3.503288e+001 -5.296175e+001 0.000000e+000
      endloop
   endfacet
   facet normal 0.000000e+000 0.000000e+000 -1.000000e+000
      outer loop
         vertex -2.868276e+001 -4.192778e+001 0.000000e+000
         vertex -3.503288e+001 -5.296175e+001 0.000000e+000
         vertex -3.102908e+001 -4.022233e+001 0.000000e+000
      endloop
   endfacet
   facet normal 0.000000e+000 0.000000e+000 -1.000000e+000
      outer loop
         vertex -5.342396e+001 -3.432391e+001 0.000000e+000
         vertex -4.273916e+001 -2.745913e+001 0.000000e+000
         vertex -5.157083e+001 -3.704996e+001 0.000000e+000
      endloop
   endfacet
   facet normal 0.000000e+000 0.000000e+000 -1.000000e+000
      outer loop
         vertex -5.157083e+001 -3.704996e+001 0.000000e+000
         vertex -4.273916e+001 -2.745913e+001 0.000000e+000
         vertex -4.110223e+001 -2.985375e+001 0.000000e+000
      endloop
   endfacet
   facet normal 0.000000e+000 0.000000e+000 -1.000000e+000
      outer loop
         vertex -5.157083e+001 -3.704996e+001 0.000000e+000
         vertex -4.110223e+001 -2.985375e+001 0.000000e+000
         vertex -4.957874e+001 -3.967617e+001 0.000000e+000
      endloop
   endfacet
   facet normal 0.000000e+000 0.000000e+000 -1.000000e+000
      outer loop
         vertex -4.957874e+001 -3.967617e+001 0.000000e+000
         vertex -4.110223e+001 -2.985375e+001 0.000000e+000
         vertex -3.933129e+001 -3.215104e+001 0.000000e+000
      endloop
   endfacet
   facet normal 0.000000e+000 0.000000e+000 -1.000000e+000
      outer loop
         vertex -4.957874e+001 -3.967617e+001 0.000000e+000
         vertex -3.933129e+001 -3.215104e+001 0.000000e+000
         vertex -4.745306e+001 -4.219547e+001 0.000000e+000
      endloop
   endfacet
   facet normal 0.000000e+000 0.000000e+000 -1.000000e+000
      outer loop
         vertex -4.745306e+001 -4.219547e+001 0.000000e+000
         vertex -3.933129e+001 -3.215104e+001 0.000000e+000
         vertex -3.743212e+001 -3.434351e+001 0.000000e+000
      endloop
   endfacet
   facet normal 0.000000e+000 0.000000e+000 -1.000000e+000
      outer loop
         vertex -4.745306e+001 -4.219547e+001 0.000000e+000
         vertex -3.743212e+001 -3.434351e+001 0.000000e+000
         vertex -4.519950e+001 -4.460106e+001 0.000000e+000
      endloop
   endfacet
   facet normal 0.000000e+000 0.000000e+000 -1.000000e+000
      outer loop
         vertex -4.519950e+001 -4.460106e+001 0.000000e+000
         vertex -3.743212e+001 -3.434351e+001 0.000000e+000
         vertex -3.541090e+001 -3.642400e+001 0.000000e+000
      endloop
   endfacet
   facet normal 0.000000e+000 0.000000e+000 -1.000000e+000
      outer loop
         vertex -4.519950e+001 -4.460106e+001 0.000000e+000
         vertex -3.541090e+001 -3.642400e+001 0.000000e+000
         vertex -4.282415e+001 -4.688648e+001 0.000000e+000
      endloop
   endfacet
   facet normal 0.000000e+000 0.000000e+000 -1.000000e+000
      outer loop
         vertex -4.282415e+001 -4.688648e+001 0.000000e+000
         vertex -3.541090e+001 -3.642400e+001 0.000000e+000
         vertex -3.327423e+001 -3.838575e+001 0.000000e+000
      endloop
   endfacet
   facet normal 0.000000e+000 0.000000e+000 -1.000000e+000
      outer loop
         vertex -4.282415e+001 -4.688648e+001 0.000000e+000
         vertex -3.327423e+001 -3.838575e+001 0.000000e+000
         vertex -4.033341e+001 -4.904555e+001 0.000000e+000
      endloop
   endfacet
   facet normal 0.000000e+000 0.000000e+000 -1.000000e+000
      outer loop
         vertex -4.033341e+001 -4.904555e+001 0.000000e+000
         vertex -3.327423e+001 -3.838575e+001 0.000000e+000
         vertex -3.102908e+001 -4.022233e+001 0.000000e+000
      endloop
   endfacet
   facet normal 0.000000e+000 0.000000e+000 -1.000000e+000
      outer loop
         vertex -4.033341e+001 -4.904555e+001 0.000000e+000
         vertex -3.102908e+001 -4.022233e+001 0.000000e+000
         vertex -3.773398e+001 -5.107246e+001 0.000000e+000
      endloop
   endfacet
   facet normal 0.000000e+000 0.000000e+000 -1.000000e+000
      outer loop
         vertex -3.773398e+001 -5.107246e+001 0.000000e+000
         vertex -3.102908e+001 -4.022233e+001 0.000000e+000
         vertex -3.503288e+001 -5.296175e+001 0.000000e+000
      endloop
   endfacet
   facet normal -8.318436e-001 -5.550101e-001 0.000000e+000
      outer loop
         vertex -5.342396e+001 -3.432391e+001 2.540000e+001
         vertex -5.342396e+001 -3.432391e+001 0.000000e+000
         vertex -5.157083e+001 -3.704996e+001 0.000000e+000
      endloop
   endfacet
   facet normal -8.221129e-001 -5.693244e-001 0.000000e+000
      outer loop
         vertex -5.342396e+001 -3.432391e+001 2.540000e+001
         vertex -5.157083e+001 -3.704996e+001 0.000000e+000
         vertex -5.157083e+001 -3.704996e+001 2.540000e+001
      endloop
   endfacet
   facet normal -8.019220e-001 -5.974287e-001 0.000000e+000
      outer loop
         vertex -5.157083e+001 -3.704996e+001 2.540000e+001
         vertex -5.157083e+001 -3.704996e+001 0.000000e+000
         vertex -4.957874e+001 -3.967617e+001 0.000000e+000
      endloop
   endfacet
   facet normal -7.914618e-001 -6.112187e-001 0.000000e+000
      outer loop
         vertex -5.157083e+001 -3.704996e+001 2.540000e+001
         vertex -4.957874e+001 -3.967617e+001 0.000000e+000
         vertex -4.957874e+001 -3.967617e+001 2.540000e+001
      endloop
   endfacet
   facet normal -7.698397e-001 -6.382374e-001 0.000000e+000
      outer loop
         vertex -4.957874e+001 -3.967617e+001 2.540000e+001
         vertex -4.957874e+001 -3.967617e+001 0.000000e+000
         vertex -4.745306e+001 -4.219547e+001 0.000000e+000
      endloop
   endfacet
   facet normal -7.586779e-001 -6.514660e-001 0.000000e+000
      outer loop
         vertex -4.957874e+001 -3.967617e+001 2.540000e+001
         vertex -4.745306e+001 -4.219547e+001 0.000000e+000
         vertex -4.745306e+001 -4.219547e+001 2.540000e+001
      endloop
   endfacet
   facet normal -7.356828e-001 -6.773263e-001 0.000000e+000
      outer loop
         vertex -4.745306e+001 -4.219547e+001 2.540000e+001
         vertex -4.745306e+001 -4.219547e+001 0.000000e+000
         vertex -4.519950e+001 -4.460106e+001 0.000000e+000
      endloop
   endfacet
   facet normal -7.238497e-001 -6.899577e-001 0.000000e+000
      outer loop
         vertex -4.745306e+001 -4.219547e+001 2.540000e+001
         vertex -4.519950e+001 -4.460106e+001 0.000000e+000
         vertex -4.519950e+001 -4.460106e+001 2.540000e+001
      endloop
   endfacet
   facet normal -6.995437e-001 -7.145899e-001 0.000000e+000
      outer loop
         vertex -4.519950e+001 -4.460106e+001 2.540000e+001
         vertex -4.519950e+001 -4.460106e+001 0.000000e+000
         vertex -4.282415e+001 -4.688648e+001 0.000000e+000
      endloop
   endfacet
   facet normal -6.870709e-001 -7.265904e-001 0.000000e+000
      outer loop
         vertex -4.519950e+001 -4.460106e+001 2.540000e+001
         vertex -4.282415e+001 -4.688648e+001 0.000000e+000
         vertex -4.282415e+001 -4.688648e+001 2.540000e+001
      endloop
   endfacet
   facet normal -6.615194e-001 -7.499281e-001 0.000000e+000
      outer loop
         vertex -4.282415e+001 -4.688648e+001 2.540000e+001
         vertex -4.282415e+001 -4.688648e+001 0.000000e+000
         vertex -4.033341e+001 -4.904555e+001 0.000000e+000
      endloop
   endfacet
   facet normal -6.484408e-001 -7.612652e-001 0.000000e+000
      outer loop
         vertex -4.282415e+001 -4.688648e+001 2.540000e+001
         vertex -4.033341e+001 -4.904555e+001 0.000000e+000
         vertex -4.033341e+001 -4.904555e+001 2.540000e+001
      endloop
   endfacet
   facet normal -6.217127e-001 -7.832454e-001 0.000000e+000
      outer loop
         vertex -4.033341e+001 -4.904555e+001 2.540000e+001
         vertex -4.033341e+001 -4.904555e+001 0.000000e+000
         vertex -3.773398e+001 -5.107246e+001 0.000000e+000
      endloop
   endfacet
   facet normal -6.080633e-001 -7.938885e-001 0.000000e+000
      outer loop
         vertex -4.033341e+001 -4.904555e+001 2.540000e+001
         vertex -3.773398e+001 -5.107246e+001 0.000000e+000
         vertex -3.773398e+001 -5.107246e+001 2.540000e+001
      endloop
   endfacet
   facet normal -5.802306e-001 -8.144522e-001 0.000000e+000
      outer loop
         vertex -3.773398e+001 -5.107246e+001 2.540000e+001
         vertex -3.773398e+001 -5.107246e+001 0.000000e+000
         vertex -3.503288e+001 -5.296175e+001 0.000000e+000
      endloop
   endfacet
   facet normal -5.660473e-001 -8.243728e-001 0.000000e+000
      outer loop
         vertex -3.773398e+001 -5.107246e+001 2.540000e+001
         vertex -3.503288e+001 -5.296175e+001 0.000000e+000
         vertex -3.503288e+001 -5.296175e+001 2.540000e+001
      endloop
   endfacet
   facet normal -5.371851e-001 -8.434644e-001 0.000000e+000
      outer loop
         vertex -3.503288e+001 -5.296175e+001 2.540000e+001
         vertex -3.503288e+001 -5.296175e+001 0.000000e+000
         vertex -3.223737e+001 -5.470834e+001 0.000000e+000
      endloop
   endfacet
   facet normal -5.225061e-001 -8.526356e-001 0.000000e+000
      outer loop
         vertex -3.503288e+001 -5.296175e+001 2.540000e+001
         vertex -3.223737e+001 -5.470834e+001 0.000000e+000
         vertex -3.223737e+001 -5.470834e+001 2.540000e+001
      endloop
   endfacet
   facet normal -4.926921e-001 -8.702037e-001 0.000000e+000
      outer loop
         vertex -3.223737e+001 -5.470834e+001 2.540000e+001
         vertex -3.223737e+001 -5.470834e+001 0.000000e+000
         vertex -2.935499e+001 -5.630750e+001 0.000000e+000
      endloop
   endfacet
   facet normal -4.775569e-001 -8.786008e-001 0.000000e+000
      outer loop
         vertex -3.223737e+001 -5.470834e+001 2.540000e+001
         vertex -2.935499e+001 -5.630750e+001 0.000000e+000
         vertex -2.935499e+001 -5.630750e+001 2.540000e+001
      endloop
   endfacet
   facet normal -4.468713e-001 -8.945982e-001 0.000000e+000
      outer loop
         vertex -2.935499e+001 -5.630750e+001 2.540000e+001
         vertex -2.935499e+001 -5.630750e+001 0.000000e+000
         vertex -2.639352e+001 -5.775493e+001 0.000000e+000
      endloop
   endfacet
   facet normal -4.313209e-001 -9.021986e-001 0.000000e+000
      outer loop
         vertex -2.935499e+001 -5.630750e+001 2.540000e+001
         vertex -2.639352e+001 -5.775493e+001 0.000000e+000
         vertex -2.639352e+001 -5.775493e+001 2.540000e+001
      endloop
   endfacet
   facet normal 4.328810e-001 9.014511e-001 0.000000e+000
      outer loop
         vertex -2.111481e+001 -4.620395e+001 2.540000e+001
         vertex -2.111481e+001 -4.620395e+001 0.000000e+000
         vertex -2.371754e+001 -4.492347e+001 0.000000e+000
      endloop
   endfacet
   facet normal 4.499654e-001 8.930460e-001 0.000000e+000
      outer loop
         vertex -2.111481e+001 -4.620395e+001 2.540000e+001
         vertex -2.371754e+001 -4.492347e+001 0.000000e+000
         vertex -2.371754e+001 -4.492347e+001 2.540000e+001
      endloop
   endfacet
   facet normal 4.836267e-001 8.752744e-001 0.000000e+000
      outer loop
         vertex -2.371754e+001 -4.492347e+001 2.540000e+001
         vertex -2.371754e+001 -4.492347e+001 0.000000e+000
         vertex -2.624293e+001 -4.349653e+001 0.000000e+000
      endloop
   endfacet
   facet normal 5.002035e-001 8.659079e-001 0.000000e+000
      outer loop
         vertex -2.371754e+001 -4.492347e+001 2.540000e+001
         vertex -2.624293e+001 -4.349653e+001 0.000000e+000
         vertex -2.624293e+001 -4.349653e+001 2.540000e+001
      endloop
   endfacet
   facet normal 5.327955e-001 8.462440e-001 0.000000e+000
      outer loop
         vertex -2.624293e+001 -4.349653e+001 2.540000e+001
         vertex -2.624293e+001 -4.349653e+001 0.000000e+000
         vertex -2.868276e+001 -4.192778e+001 0.000000e+000
      endloop
   endfacet
   facet normal 5.488108e-001 8.359466e-001 0.000000e+000
      outer loop
         vertex -2.624293e+001 -4.349653e+001 2.540000e+001
         vertex -2.868276e+001 -4.192778e+001 0.000000e+000
         vertex -2.868276e+001 -4.192778e+001 2.540000e+001
      endloop
   endfacet
   facet normal 5.802273e-001 8.144546e-001 0.000000e+000
      outer loop
         vertex -2.868276e+001 -4.192778e+001 2.540000e+001
         vertex -2.868276e+001 -4.192778e+001 0.000000e+000
         vertex -3.102908e+001 -4.022233e+001 0.000000e+000
      endloop
   endfacet
   facet normal 5.956287e-001 8.032598e-001 0.000000e+000
      outer loop
         vertex -2.868276e+001 -4.192778e+001 2.540000e+001
         vertex -3.102908e+001 -4.022233e+001 0.000000e+000
         vertex -3.102908e+001 -4.022233e+001 2.540000e+001
      endloop
   endfacet
   facet normal 6.257674e-001 7.800097e-001 0.000000e+000
      outer loop
         vertex -3.102908e+001 -4.022233e+001 2.540000e+001
         vertex -3.102908e+001 -4.022233e+001 0.000000e+000
         vertex -3.327423e+001 -3.838575e+001 0.000000e+000
      endloop
   endfacet
   facet normal 6.405047e-001 7.679543e-001 0.000000e+000
      outer loop
         vertex -3.102908e+001 -4.022233e+001 2.540000e+001
         vertex -3.327423e+001 -3.838575e+001 0.000000e+000
         vertex -3.327423e+001 -3.838575e+001 2.540000e+001
      endloop
   endfacet
   facet normal 6.692672e-001 7.430218e-001 0.000000e+000
      outer loop
         vertex -3.327423e+001 -3.838575e+001 2.540000e+001
         vertex -3.327423e+001 -3.838575e+001 0.000000e+000
         vertex -3.541090e+001 -3.642400e+001 0.000000e+000
      endloop
   endfacet
   facet normal 6.832924e-001 7.301448e-001 0.000000e+000
      outer loop
         vertex -3.327423e+001 -3.838575e+001 2.540000e+001
         vertex -3.541090e+001 -3.642400e+001 0.000000e+000
         vertex -3.541090e+001 -3.642400e+001 2.540000e+001
      endloop
   endfacet
   facet normal 7.105850e-001 7.036114e-001 0.000000e+000
      outer loop
         vertex -3.541090e+001 -3.642400e+001 2.540000e+001
         vertex -3.541090e+001 -3.642400e+001 0.000000e+000
         vertex -3.743212e+001 -3.434351e+001 0.000000e+000
      endloop
   endfacet
   facet normal 7.238524e-001 6.899549e-001 0.000000e+000
      outer loop
         vertex -3.541090e+001 -3.642400e+001 2.540000e+001
         vertex -3.743212e+001 -3.434351e+001 0.000000e+000
         vertex -3.743212e+001 -3.434351e+001 2.540000e+001
      endloop
   endfacet
   facet normal 7.495861e-001 6.619069e-001 0.000000e+000
      outer loop
         vertex -3.743212e+001 -3.434351e+001 2.540000e+001
         vertex -3.743212e+001 -3.434351e+001 0.000000e+000
         vertex -3.933129e+001 -3.215104e+001 0.000000e+000
      endloop
   endfacet
   facet normal 7.620524e-001 6.475154e-001 0.000000e+000
      outer loop
         vertex -3.743212e+001 -3.434351e+001 2.540000e+001
         vertex -3.933129e+001 -3.215104e+001 0.000000e+000
         vertex -3.933129e+001 -3.215104e+001 2.540000e+001
      endloop
   endfacet
   facet normal 7.861432e-001 6.180443e-001 0.000000e+000
      outer loop
         vertex -3.933129e+001 -3.215104e+001 2.540000e+001
         vertex -3.933129e+001 -3.215104e+001 0.000000e+000
         vertex -4.110223e+001 -2.985375e+001 0.000000e+000
      endloop
   endfacet
   facet normal 7.977678e-001 6.029648e-001 0.000000e+000
      outer loop
         vertex -3.933129e+001 -3.215104e+001 2.540000e+001
         vertex -4.110223e+001 -2.985375e+001 0.000000e+000
         vertex -4.110223e+001 -2.985375e+001 2.540000e+001
      endloop
   endfacet
   facet normal 8.201373e-001 5.721669e-001 0.000000e+000
      outer loop
         vertex -4.110223e+001 -2.985375e+001 2.540000e+001
         vertex -4.110223e+001 -2.985375e+001 0.000000e+000
         vertex -4.273916e+001 -2.745913e+001 0.000000e+000
      endloop
   endfacet
   facet normal 8.308822e-001 5.564484e-001 0.000000e+000
      outer loop
         vertex -4.110223e+001 -2.985375e+001 2.540000e+001
         vertex -4.273916e+001 -2.745913e+001 0.000000e+000
         vertex -4.273916e+001 -2.745913e+001 2.540000e+001
      endloop
   endfacet
   facet normal 9.095265e-001 -4.156459e-001 0.000000e+000
      outer loop
         vertex -2.111481e+001 -4.620395e+001 0.000000e+000
         vertex -2.111481e+001 -4.620395e+001 2.540000e+001
         vertex -2.639352e+001 -5.775493e+001 0.000000e+000
      endloop
   endfacet
   facet normal 9.095265e-001 -4.156459e-001 0.000000e+000
      outer loop
         vertex -2.639352e+001 -5.775493e+001 0.000000e+000
         vertex -2.111481e+001 -4.620395e+001 2.540000e+001
         vertex -2.639352e+001 -5.775493e+001 2.540000e+001
      endloop
   endfacet
   facet normal -5.405341e-001 8.413222e-001 0.000000e+000
      outer loop
         vertex -4.273916e+001 -2.745913e+001 0.000000e+000
         vertex -5.342396e+001 -3.432391e+001 0.000000e+000
         vertex -4.273916e+001 -2.745913e+001 2.540000e+001
      endloop
   endfacet
   facet normal -5.405341e-001 8.413222e-001 0.000000e+000
      outer loop
         vertex -4.273916e+001 -2.745913e+001 2.540000e+001
         vertex -5.342396e+001 -3.432391e+001 0.000000e+000
         vertex -5.342396e+001 -3.432391e+001 2.540000e+001
      endloop
   endfacet
endsolid