solid 6
   facet normal 0.000000e+000 0.000000e+000 1.000000e+000
      outer loop
         vertex 4.873315e+001 -1.434295e+001 2.540000e+001
         vertex 6.091644e+001 -1.792868e+001 2.540000e+001
         vertex 4.947235e+001 -1.153806e+001 2.540000e+001
      endloop
   endfacet
   facet normal 0.000000e+000 0.000000e+000 1.000000e+000
      outer loop
         vertex 4.947235e+001 -1.153806e+001 2.540000e+001
         vertex 6.091644e+001 -1.792868e+001 2.540000e+001
         vertex 6.170036e+001 -1.501051e+001 2.540000e+001
      endloop
   endfacet
   facet normal 0.000000e+000 0.000000e+000 1.000000e+000
      outer loop
         vertex 4.947235e+001 -1.153806e+001 2.540000e+001
         vertex 6.170036e+001 -1.501051e+001 2.540000e+001
         vertex 5.005025e+001 -8.695565e+000 2.540000e+001
      endloop
   endfacet
   facet normal 0.000000e+000 0.000000e+000 1.000000e+000
      outer loop
         vertex 6.170036e+001 -1.501051e+001 2.540000e+001
         vertex 6.234458e+001 -1.205834e+001 2.540000e+001
         vertex 5.005025e+001 -8.695565e+000 2.540000e+001
      endloop
   endfacet
   facet normal 0.000000e+000 0.000000e+000 1.000000e+000
      outer loop
         vertex 5.005025e+001 -8.695565e+000 2.540000e+001
         vertex 6.234458e+001 -1.205834e+001 2.540000e+001
         vertex 6.284762e+001 -9.078876e+000 2.540000e+001
      endloop
   endfacet
   facet normal 0.000000e+000 0.000000e+000 1.000000e+000
      outer loop
         vertex 5.005025e+001 -8.695565e+000 2.540000e+001
         vertex 6.284762e+001 -9.078876e+000 2.540000e+001
         vertex 5.046497e+001 -5.824715e+000 2.540000e+001
      endloop
   endfacet
   facet normal 0.000000e+000 0.000000e+000 1.000000e+000
      outer loop
         vertex 5.046497e+001 -5.824715e+000 2.540000e+001
         vertex 6.284762e+001 -9.078876e+000 2.540000e+001
         vertex 6.320836e+001 -6.078850e+000 2.540000e+001
      endloop
   endfacet
   facet normal 0.000000e+000 0.000000e+000 1.000000e+000
      outer loop
         vertex 5.046497e+001 -5.824715e+000 2.540000e+001
         vertex 6.320836e+001 -6.078850e+000 2.540000e+001
         vertex 5.071515e+001 -2.934875e+000 2.540000e+001
      endloop
   endfacet
   facet normal 0.000000e+000 0.000000e+000 1.000000e+000
      outer loop
         vertex 5.071515e+001 -2.934875e+000 2.540000e+001
         vertex 6.320836e+001 -6.078850e+000 2.540000e+001
         vertex 6.342598e+001 -3.065061e+000 2.540000e+001
      endloop
   endfacet
   facet normal 0.000000e+000 0.000000e+000 1.000000e+000
      outer loop
         vertex 5.071515e+001 -2.934875e+000 2.540000e+001
         vertex 6.342598e+001 -3.065061e+000 2.540000e+001
         vertex 5.079999e+001 -3.546509e-002 2.540000e+001
      endloop
   endfacet
   facet normal 0.000000e+000 0.000000e+000 1.000000e+000
      outer loop
         vertex 5.079999e+001 -3.546509e-002 2.540000e+001
         vertex 6.342598e+001 -3.065061e+000 2.540000e+001
         vertex 6.349999e+001 -4.433136e-002 2.540000e+001
      endloop
   endfacet
   facet normal 0.000000e+000 0.000000e+000 1.000000e+000
      outer loop
         vertex 5.079999e+001 -3.546509e-002 2.540000e+001
         vertex 6.349999e+001 -4.433136e-002 2.540000e+001
         vertex 5.071920e+001 2.864060e+000 2.540000e+001
      endloop
   endfacet
   facet normal 0.000000e+000 0.000000e+000 1.000000e+000
      outer loop
         vertex 5.071920e+001 2.864060e+000 2.540000e+001
         vertex 6.349999e+001 -4.433136e-002 2.540000e+001
         vertex 6.343021e+001 2.976499e+000 2.540000e+001
      endloop
   endfacet
   facet normal 0.000000e+000 0.000000e+000 1.000000e+000
      outer loop
         vertex 5.071920e+001 2.864060e+000 2.540000e+001
         vertex 6.343021e+001 2.976499e+000 2.540000e+001
         vertex 5.047305e+001 5.754247e+000 2.540000e+001
      endloop
   endfacet
   facet normal 0.000000e+000 0.000000e+000 1.000000e+000
      outer loop
         vertex 6.094141e+001 1.784361e+001 2.540000e+001
         vertex 4.875313e+001 1.427489e+001 2.540000e+001
         vertex 6.172126e+001 1.492434e+001 2.540000e+001
      endloop
   endfacet
   facet normal 0.000000e+000 0.000000e+000 1.000000e+000
      outer loop
         vertex 6.172126e+001 1.492434e+001 2.540000e+001
         vertex 4.875313e+001 1.427489e+001 2.540000e+001
         vertex 4.948841e+001 1.146898e+001 2.540000e+001
      endloop
   endfacet
   facet normal 0.000000e+000 0.000000e+000 1.000000e+000
      outer loop
         vertex 6.172126e+001 1.492434e+001 2.540000e+001
         vertex 4.948841e+001 1.146898e+001 2.540000e+001
         vertex 6.236135e+001 1.197128e+001 2.540000e+001
      endloop
   endfacet
   facet normal 0.000000e+000 0.000000e+000 1.000000e+000
      outer loop
         vertex 6.236135e+001 1.197128e+001 2.540000e+001
         vertex 4.948841e+001 1.146898e+001 2.540000e+001
         vertex 5.006234e+001 8.625673e+000 2.540000e+001
      endloop
   endfacet
   facet normal 0.000000e+000 0.000000e+000 1.000000e+000
      outer loop
         vertex 6.236135e+001 1.197128e+001 2.540000e+001
         vertex 5.006234e+001 8.625673e+000 2.540000e+001
         vertex 6.286024e+001 8.991115e+000 2.540000e+001
      endloop
   endfacet
   facet normal 0.000000e+000 0.000000e+000 1.000000e+000
      outer loop
         vertex 6.286024e+001 8.991115e+000 2.540000e+001
         vertex 5.006234e+001 8.625673e+000 2.540000e+001
         vertex 5.047305e+001 5.754247e+000 2.540000e+001
      endloop
   endfacet
   facet normal 0.000000e+000 0.000000e+000 1.000000e+000
      outer loop
         vertex 6.286024e+001 8.991115e+000 2.540000e+001
         vertex 5.047305e+001 5.754247e+000 2.540000e+001
         vertex 6.321679e+001 5.990590e+000 2.540000e+001
      endloop
   endfacet
   facet normal 0.000000e+000 0.000000e+000 1.000000e+000
      outer loop
         vertex 6.321679e+001 5.990590e+000 2.540000e+001
         vertex 5.047305e+001 5.754247e+000 2.540000e+001
         vertex 6.343021e+001 2.976499e+000 2.540000e+001
      endloop
   endfacet
   facet normal 0.000000e+000 0.000000e+000 -1.000000e+000
      outer loop
         vertex 4.875313e+001 1.427489e+001 0.000000e+000
         vertex 6.094141e+001 1.784361e+001 0.000000e+000
         vertex 4.948841e+001 1.146898e+001 0.000000e+000
      endloop
   endfacet
   facet normal 0.000000e+000 0.000000e+000 -1.000000e+000
      outer loop
         vertex 4.948841e+001 1.146898e+001 0.000000e+000
         vertex 6.094141e+001 1.784361e+001 0.000000e+000
         vertex 6.172126e+001 1.492434e+001 0.000000e+000
      endloop
   endfacet
   facet normal 0.000000e+000 0.000000e+000 -1.000000e+000
      outer loop
         vertex 4.948841e+001 1.146898e+001 0.000000e+000
         vertex 6.172126e+001 1.492434e+001 0.000000e+000
         vertex 5.006234e+001 8.625673e+000 0.000000e+000
      endloop
   endfacet
   facet normal 0.000000e+000 0.000000e+000 -1.000000e+000
      outer loop
         vertex 6.172126e+001 1.492434e+001 0.000000e+000
         vertex 6.236135e+001 1.197128e+001 0.000000e+000
         vertex 5.006234e+001 8.625673e+000 0.000000e+000
      endloop
   endfacet
   facet normal 0.000000e+000 0.000000e+000 -1.000000e+000
      outer loop
         vertex 5.006234e+001 8.625673e+000 0.000000e+000
         vertex 6.236135e+001 1.197128e+001 0.000000e+000
         vertex 6.286024e+001 8.991115e+000 0.000000e+000
      endloop
   endfacet
   facet normal 0.000000e+000 0.000000e+000 -1.000000e+000
      outer loop
         vertex 5.006234e+001 8.625673e+000 0.000000e+000
         vertex 6.286024e+001 8.991115e+000 0.000000e+000
         vertex 5.047305e+001 5.754247e+000 0.000000e+000
      endloop
   endfacet
   facet normal 0.000000e+000 0.000000e+000 -1.000000e+000
      outer loop
         vertex 5.047305e+001 5.754247e+000 0.000000e+000
         vertex 6.286024e+001 8.991115e+000 0.000000e+000
         vertex 6.321679e+001 5.990590e+000 0.000000e+000
      endloop
   endfacet
   facet normal 0.000000e+000 0.000000e+000 -1.000000e+000
      outer loop
         vertex 5.047305e+001 5.754247e+000 0.000000e+000
         vertex 6.321679e+001 5.990590e+000 0.000000e+000
         vertex 5.071920e+001 2.864060e+000 0.000000e+000
      endloop
   endfacet
   facet normal 0.000000e+000 0.000000e+000 -1.000000e+000
      outer loop
         vertex 5.071920e+001 2.864060e+000 0.000000e+000
         vertex 6.321679e+001 5.990590e+000 0.000000e+000
         vertex 6.343021e+001 2.976499e+000 0.000000e+000
      endloop
   endfacet
   facet normal 0.000000e+000 0.000000e+000 -1.000000e+000
      outer loop
         vertex 5.071920e+001 2.864060e+000 0.000000e+000
         vertex 6.343021e+001 2.976499e+000 0.000000e+000
         vertex 5.079999e+001 -3.546509e-002 0.000000e+000
      endloop
   endfacet
   facet normal 0.000000e+000 0.000000e+000 -1.000000e+000
      outer loop
         vertex 5.079999e+001 -3.546509e-002 0.000000e+000
         vertex 6.343021e+001 2.976499e+000 0.000000e+000
         vertex 6.349999e+001 -4.433136e-002 0.000000e+000
      endloop
   endfacet
   facet normal 0.000000e+000 0.000000e+000 -1.000000e+000
      outer loop
         vertex 5.079999e+001 -3.546509e-002 0.000000e+000
         vertex 6.349999e+001 -4.433136e-002 0.000000e+000
         vertex 5.071515e+001 -2.934875e+000 0.000000e+000
      endloop
   endfacet
   facet normal 0.000000e+000 0.000000e+000 -1.000000e+000
      outer loop
         vertex 5.071515e+001 -2.934875e+000 0.000000e+000
         vertex 6.349999e+001 -4.433136e-002 0.000000e+000
         vertex 6.342598e+001 -3.065061e+000 0.000000e+000
      endloop
   endfacet
   facet normal 0.000000e+000 0.000000e+000 -1.000000e+000
      outer loop
         vertex 5.071515e+001 -2.934875e+000 0.000000e+000
         vertex 6.342598e+001 -3.065061e+000 0.000000e+000
         vertex 5.046497e+001 -5.824715e+000 0.000000e+000
      endloop
   endfacet
   facet normal 0.000000e+000 0.000000e+000 -1.000000e+000
      outer loop
         vertex 6.091644e+001 -1.792868e+001 0.000000e+000
         vertex 4.873315e+001 -1.434295e+001 0.000000e+000
         vertex 6.170036e+001 -1.501051e+001 0.000000e+000
      endloop
   endfacet
   facet normal 0.000000e+000 0.000000e+000 -1.000000e+000
      outer loop
         vertex 6.170036e+001 -1.501051e+001 0.000000e+000
         vertex 4.873315e+001 -1.434295e+001 0.000000e+000
         vertex 4.947235e+001 -1.153806e+001 0.000000e+000
      endloop
   endfacet
   facet normal 0.000000e+000 0.000000e+000 -1.000000e+000
      outer loop
         vertex 6.170036e+001 -1.501051e+001 0.000000e+000
         vertex 4.947235e+001 -1.153806e+001 0.000000e+000
         vertex 6.234458e+001 -1.205834e+001 0.000000e+000
      endloop
   endfacet
   facet normal 0.000000e+000 0.000000e+000 -1.000000e+000
      outer loop
         vertex 6.234458e+001 -1.205834e+001 0.000000e+000
         vertex 4.947235e+001 -1.153806e+001 0.000000e+000
         vertex 5.005025e+001 -8.695565e+000 0.000000e+000
      endloop
   endfacet
   facet normal 0.000000e+000 0.000000e+000 -1.000000e+000
      outer loop
         vertex 6.234458e+001 -1.205834e+001 0.000000e+000
         vertex 5.005025e+001 -8.695565e+000 0.000000e+000
         vertex 6.284762e+001 -9.078876e+000 0.000000e+000
      endloop
   endfacet
   facet normal 0.000000e+000 0.000000e+000 -1.000000e+000
      outer loop
         vertex 6.284762e+001 -9.078876e+000 0.000000e+000
         vertex 5.005025e+001 -8.695565e+000 0.000000e+000
         vertex 5.046497e+001 -5.824715e+000 0.000000e+000
      endloop
   endfacet
   facet normal 0.000000e+000 0.000000e+000 -1.000000e+000
      outer loop
         vertex 6.284762e+001 -9.078876e+000 0.000000e+000
         vertex 5.046497e+001 -5.824715e+000 0.000000e+000
         vertex 6.320836e+001 -6.078850e+000 0.000000e+000
      endloop
   endfacet
   facet normal 0.000000e+000 0.000000e+000 -1.000000e+000
      outer loop
         vertex 6.320836e+001 -6.078850e+000 0.000000e+000
         vertex 5.046497e+001 -5.824715e+000 0.000000e+000
         vertex 6.342598e+001 -3.065061e+000 0.000000e+000
      endloop
   endfacet
   facet normal 9.636716e-001 -2.670902e-001 0.000000e+000
      outer loop
         vertex 6.091644e+001 -1.792868e+001 2.540000e+001
         vertex 6.091644e+001 -1.792868e+001 0.000000e+000
         vertex 6.170036e+001 -1.501051e+001 0.000000e+000
      endloop
   endfacet
   facet normal 9.677877e-001 -2.517678e-001 0.000000e+000
      outer loop
         vertex 6.091644e+001 -1.792868e+001 2.540000e+001
         vertex 6.170036e+001 -1.501051e+001 0.000000e+000
         vertex 6.170036e+001 -1.501051e+001 2.540000e+001
      endloop
   endfacet
   facet normal 9.752864e-001 -2.209446e-001 0.000000e+000
      outer loop
         vertex 6.170036e+001 -1.501051e+001 2.540000e+001
         vertex 6.170036e+001 -1.501051e+001 0.000000e+000
         vertex 6.234458e+001 -1.205834e+001 0.000000e+000
      endloop
   endfacet
   facet normal 9.786689e-001 -2.054438e-001 0.000000e+000
      outer loop
         vertex 6.170036e+001 -1.501051e+001 2.540000e+001
         vertex 6.234458e+001 -1.205834e+001 0.000000e+000
         vertex 6.234458e+001 -1.205834e+001 2.540000e+001
      endloop
   endfacet
   facet normal 9.846928e-001 -1.742988e-001 0.000000e+000
      outer loop
         vertex 6.234458e+001 -1.205834e+001 2.540000e+001
         vertex 6.234458e+001 -1.205834e+001 0.000000e+000
         vertex 6.284762e+001 -9.078876e+000 0.000000e+000
      endloop
   endfacet
   facet normal 9.873342e-001 -1.586546e-001 0.000000e+000
      outer loop
         vertex 6.234458e+001 -1.205834e+001 2.540000e+001
         vertex 6.284762e+001 -9.078876e+000 0.000000e+000
         vertex 6.284762e+001 -9.078876e+000 2.540000e+001
      endloop
   endfacet
   facet normal 9.918696e-001 -1.272583e-001 0.000000e+000
      outer loop
         vertex 6.284762e+001 -9.078876e+000 2.540000e+001
         vertex 6.284762e+001 -9.078876e+000 0.000000e+000
         vertex 6.320836e+001 -6.078850e+000 0.000000e+000
      endloop
   endfacet
   facet normal 9.937637e-001 -1.115061e-001 0.000000e+000
      outer loop
         vertex 6.284762e+001 -9.078876e+000 2.540000e+001
         vertex 6.320836e+001 -6.078850e+000 0.000000e+000
         vertex 6.320836e+001 -6.078850e+000 2.540000e+001
      endloop
   endfacet
   facet normal 9.968005e-001 -7.992963e-002 0.000000e+000
      outer loop
         vertex 6.320836e+001 -6.078850e+000 2.540000e+001
         vertex 6.320836e+001 -6.078850e+000 0.000000e+000
         vertex 6.342598e+001 -3.065061e+000 0.000000e+000
      endloop
   endfacet
   facet normal 9.979432e-001 -6.410523e-002 0.000000e+000
      outer loop
         vertex 6.320836e+001 -6.078850e+000 2.540000e+001
         vertex 6.342598e+001 -3.065061e+000 0.000000e+000
         vertex 6.342598e+001 -3.065061e+000 2.540000e+001
      endloop
   endfacet
   facet normal 9.994743e-001 -3.241999e-002 0.000000e+000
      outer loop
         vertex 6.342598e+001 -3.065061e+000 2.540000e+001
         vertex 6.342598e+001 -3.065061e+000 0.000000e+000
         vertex 6.349999e+001 -4.433136e-002 0.000000e+000
      endloop
   endfacet
   facet normal 9.998628e-001 -1.655915e-002 0.000000e+000
      outer loop
         vertex 6.342598e+001 -3.065061e+000 2.540000e+001
         vertex 6.349999e+001 -4.433136e-002 0.000000e+000
         vertex 6.349999e+001 -4.433136e-002 2.540000e+001
      endloop
   endfacet
   facet normal 9.998851e-001 1.516306e-002 0.000000e+000
      outer loop
         vertex 6.349999e+001 -4.433136e-002 2.540000e+001
         vertex 6.349999e+001 -4.433136e-002 0.000000e+000
         vertex 6.343021e+001 2.976499e+000 0.000000e+000
      endloop
   endfacet
   facet normal 9.995186e-001 3.102443e-002 0.000000e+000
      outer loop
         vertex 6.349999e+001 -4.433136e-002 2.540000e+001
         vertex 6.343021e+001 2.976499e+000 0.000000e+000
         vertex 6.343021e+001 2.976499e+000 2.540000e+001
      endloop
   endfacet
   facet normal 9.980317e-001 6.271178e-002 0.000000e+000
      outer loop
         vertex 6.343021e+001 2.976499e+000 2.540000e+001
         vertex 6.343021e+001 2.976499e+000 0.000000e+000
         vertex 6.321679e+001 5.990590e+000 0.000000e+000
      endloop
   endfacet
   facet normal 9.969112e-001 7.853776e-002 0.000000e+000
      outer loop
         vertex 6.343021e+001 2.976499e+000 2.540000e+001
         vertex 6.321679e+001 5.990590e+000 0.000000e+000
         vertex 6.321679e+001 5.990590e+000 2.540000e+001
      endloop
   endfacet
   facet normal 9.939184e-001 1.101185e-001 0.000000e+000
      outer loop
         vertex 6.321679e+001 5.990590e+000 2.540000e+001
         vertex 6.321679e+001 5.990590e+000 0.000000e+000
         vertex 6.286024e+001 8.991115e+000 0.000000e+000
      endloop
   endfacet
   facet normal 9.920463e-001 1.258733e-001 0.000000e+000
      outer loop
         vertex 6.321679e+001 5.990590e+000 2.540000e+001
         vertex 6.286024e+001 8.991115e+000 0.000000e+000
         vertex 6.286024e+001 8.991115e+000 2.540000e+001
      endloop
   endfacet
   facet normal 9.875547e-001 1.572759e-001 0.000000e+000
      outer loop
         vertex 6.286024e+001 8.991115e+000 2.540000e+001
         vertex 6.286024e+001 8.991115e+000 0.000000e+000
         vertex 6.236135e+001 1.197128e+001 0.000000e+000
      endloop
   endfacet
   facet normal 9.849352e-001 1.729237e-001 0.000000e+000
      outer loop
         vertex 6.286024e+001 8.991115e+000 2.540000e+001
         vertex 6.236135e+001 1.197128e+001 0.000000e+000
         vertex 6.236135e+001 1.197128e+001 2.540000e+001
      endloop
   endfacet
   facet normal 9.789548e-001 2.040771e-001 0.000000e+000
      outer loop
         vertex 6.236135e+001 1.197128e+001 2.540000e+001
         vertex 6.236135e+001 1.197128e+001 0.000000e+000
         vertex 6.172126e+001 1.492434e+001 0.000000e+000
      endloop
   endfacet
   facet normal 9.755939e-001 2.195826e-001 0.000000e+000
      outer loop
         vertex 6.236135e+001 1.197128e+001 2.540000e+001
         vertex 6.172126e+001 1.492434e+001 0.000000e+000
         vertex 6.172126e+001 1.492434e+001 2.540000e+001
      endloop
   endfacet
   facet normal 9.681383e-001 2.504162e-001 0.000000e+000
      outer loop
         vertex 6.172126e+001 1.492434e+001 2.540000e+001
         vertex 6.172126e+001 1.492434e+001 0.000000e+000
         vertex 6.094141e+001 1.784361e+001 0.000000e+000
      endloop
   endfacet
   facet normal 9.640436e-001 2.657444e-001 0.000000e+000
      outer loop
         vertex 6.172126e+001 1.492434e+001 2.540000e+001
         vertex 6.094141e+001 1.784361e+001 0.000000e+000
         vertex 6.094141e+001 1.784361e+001 2.540000e+001
      endloop
   endfacet
   facet normal -9.648815e-001 -2.626854e-001 0.000000e+000
      outer loop
         vertex 4.875313e+001 1.427489e+001 2.540000e+001
         vertex 4.875313e+001 1.427489e+001 0.000000e+000
         vertex 4.948841e+001 1.146898e+001 0.000000e+000
      endloop
   endfacet
   facet normal -9.697080e-001 -2.442672e-001 0.000000e+000
      outer loop
         vertex 4.875313e+001 1.427489e+001 2.540000e+001
         vertex 4.948841e+001 1.146898e+001 0.000000e+000
         vertex 4.948841e+001 1.146898e+001 2.540000e+001
      endloop
   endfacet
   facet normal -9.783017e-001 -2.071855e-001 0.000000e+000
      outer loop
         vertex 4.948841e+001 1.146898e+001 2.540000e+001
         vertex 4.948841e+001 1.146898e+001 0.000000e+000
         vertex 5.006234e+001 8.625673e+000 0.000000e+000
      endloop
   endfacet
   facet normal -9.820690e-001 -1.885219e-001 0.000000e+000
      outer loop
         vertex 4.948841e+001 1.146898e+001 2.540000e+001
         vertex 5.006234e+001 8.625673e+000 0.000000e+000
         vertex 5.006234e+001 8.625673e+000 2.540000e+001
      endloop
   endfacet
   facet normal -9.885322e-001 -1.510101e-001 0.000000e+000
      outer loop
         vertex 5.006234e+001 8.625673e+000 2.540000e+001
         vertex 5.006234e+001 8.625673e+000 0.000000e+000
         vertex 5.047305e+001 5.754247e+000 0.000000e+000
      endloop
   endfacet
   facet normal -9.912282e-001 -1.321619e-001 0.000000e+000
      outer loop
         vertex 5.006234e+001 8.625673e+000 2.540000e+001
         vertex 5.047305e+001 5.754247e+000 0.000000e+000
         vertex 5.047305e+001 5.754247e+000 2.540000e+001
      endloop
   endfacet
   facet normal -9.955398e-001 -9.434228e-002 0.000000e+000
      outer loop
         vertex 5.047305e+001 5.754247e+000 2.540000e+001
         vertex 5.047305e+001 5.754247e+000 0.000000e+000
         vertex 5.071920e+001 2.864060e+000 0.000000e+000
      endloop
   endfacet
   facet normal -9.971556e-001 -7.537092e-002 0.000000e+000
      outer loop
         vertex 5.047305e+001 5.754247e+000 2.540000e+001
         vertex 5.071920e+001 2.864060e+000 0.000000e+000
         vertex 5.071920e+001 2.864060e+000 2.540000e+001
      endloop
   endfacet
   facet normal -9.993016e-001 -3.736692e-002 0.000000e+000
      outer loop
         vertex 5.071920e+001 2.864060e+000 2.540000e+001
         vertex 5.071920e+001 2.864060e+000 0.000000e+000
         vertex 5.079999e+001 -3.546509e-002 0.000000e+000
      endloop
   endfacet
   facet normal -9.998319e-001 -1.833427e-002 0.000000e+000
      outer loop
         vertex 5.071920e+001 2.864060e+000 2.540000e+001
         vertex 5.079999e+001 -3.546509e-002 0.000000e+000
         vertex 5.079999e+001 -3.546509e-002 2.540000e+001
      endloop
   endfacet
   facet normal -9.998054e-001 1.973028e-002 0.000000e+000
      outer loop
         vertex 5.079999e+001 -3.546509e-002 2.540000e+001
         vertex 5.079999e+001 -3.546509e-002 0.000000e+000
         vertex 5.071515e+001 -2.934875e+000 0.000000e+000
      endloop
   endfacet
   facet normal -9.992484e-001 3.876216e-002 0.000000e+000
      outer loop
         vertex 5.079999e+001 -3.546509e-002 2.540000e+001
         vertex 5.071515e+001 -2.934875e+000 0.000000e+000
         vertex 5.071515e+001 -2.934875e+000 2.540000e+001
      endloop
   endfacet
   facet normal -9.970494e-001 7.676314e-002 0.000000e+000
      outer loop
         vertex 5.071515e+001 -2.934875e+000 2.540000e+001
         vertex 5.071515e+001 -2.934875e+000 0.000000e+000
         vertex 5.046497e+001 -5.824715e+000 0.000000e+000
      endloop
   endfacet
   facet normal -9.954071e-001 9.573222e-002 0.000000e+000
      outer loop
         vertex 5.071515e+001 -2.934875e+000 2.540000e+001
         vertex 5.046497e+001 -5.824715e+000 0.000000e+000
         vertex 5.046497e+001 -5.824715e+000 2.540000e+001
      endloop
   endfacet
   facet normal -9.910427e-001 1.335457e-001 0.000000e+000
      outer loop
         vertex 5.046497e+001 -5.824715e+000 2.540000e+001
         vertex 5.046497e+001 -5.824715e+000 0.000000e+000
         vertex 5.005025e+001 -8.695565e+000 0.000000e+000
      endloop
   endfacet
   facet normal -9.883204e-001 1.523902e-001 0.000000e+000
      outer loop
         vertex 5.046497e+001 -5.824715e+000 2.540000e+001
         vertex 5.005025e+001 -8.695565e+000 0.000000e+000
         vertex 5.005025e+001 -8.695565e+000 2.540000e+001
      endloop
   endfacet
   facet normal -9.818048e-001 1.898929e-001 0.000000e+000
      outer loop
         vertex 5.005025e+001 -8.695565e+000 2.540000e+001
         vertex 5.005025e+001 -8.695565e+000 0.000000e+000
         vertex 4.947235e+001 -1.153806e+001 0.000000e+000
      endloop
   endfacet
   facet normal -9.780114e-001 2.085513e-001 0.000000e+000
      outer loop
         vertex 5.005025e+001 -8.695565e+000 2.540000e+001
         vertex 4.947235e+001 -1.153806e+001 0.000000e+000
         vertex 4.947235e+001 -1.153806e+001 2.540000e+001
      endloop
   endfacet
   facet normal -9.693660e-001 2.456210e-001 0.000000e+000
      outer loop
         vertex 4.947235e+001 -1.153806e+001 2.540000e+001
         vertex 4.947235e+001 -1.153806e+001 0.000000e+000
         vertex 4.873315e+001 -1.434295e+001 0.000000e+000
      endloop
   endfacet
   facet normal -9.645138e-001 2.640324e-001 0.000000e+000
      outer loop
         vertex 4.947235e+001 -1.153806e+001 2.540000e+001
         vertex 4.873315e+001 -1.434295e+001 0.000000e+000
         vertex 4.873315e+001 -1.434295e+001 2.540000e+001
      endloop
   endfacet
   facet normal -2.810017e-001 9.597073e-001 0.000000e+000
      outer loop
         vertex 4.875313e+001 1.427489e+001 0.000000e+000
         vertex 4.875313e+001 1.427489e+001 2.540000e+001
         vertex 6.094141e+001 1.784361e+001 0.000000e+000
      endloop
   endfacet
   facet normal -2.810017e-001 9.597073e-001 0.000000e+000
      outer loop
         vertex 6.094141e+001 1.784361e+001 0.000000e+000
         vertex 4.875313e+001 1.427489e+001 2.540000e+001
         vertex 6.094141e+001 1.784361e+001 2.540000e+001
      endloop
   endfacet
   facet normal -2.823415e-001 -9.593140e-001 0.000000e+000
      outer loop
         vertex 4.873315e+001 -1.434295e+001 0.000000e+000
         vertex 6.091644e+001 -1.792868e+001 0.000000e+000
         vertex 4.873315e+001 -1.434295e+001 2.540000e+001
      endloop
   endfacet
   facet normal -2.823415e-001 -9.593140e-001 0.000000e+000
      outer loop
         vertex 4.873315e+001 -1.434295e+001 2.540000e+001
         vertex 6.091644e+001 -1.792868e+001 0.000000e+000
         vertex 6.091644e+001 -1.792868e+001 2.540000e+001
      endloop
   endfacet
endsolid