solid 7
   facet normal 0.000000e+000 0.000000e+000 1.000000e+000
      outer loop
         vertex 4.162628e+001 4.795313e+001 2.540000e+001
         vertex 3.330103e+001 3.836250e+001 2.540000e+001
         vertex 4.405859e+001 4.572844e+001 2.540000e+001
      endloop
   endfacet
   facet normal 0.000000e+000 0.000000e+000 1.000000e+000
      outer loop
         vertex 4.405859e+001 4.572844e+001 2.540000e+001
         vertex 3.330103e+001 3.836250e+001 2.540000e+001
         vertex 3.543632e+001 3.639927e+001 2.540000e+001
      endloop
   endfacet
   facet normal 0.000000e+000 0.000000e+000 1.000000e+000
      outer loop
         vertex 4.405859e+001 4.572844e+001 2.540000e+001
         vertex 3.543632e+001 3.639927e+001 2.540000e+001
         vertex 4.637218e+001 4.338053e+001 2.540000e+001
      endloop
   endfacet
   facet normal 0.000000e+000 0.000000e+000 1.000000e+000
      outer loop
         vertex 4.637218e+001 4.338053e+001 2.540000e+001
         vertex 3.543632e+001 3.639927e+001 2.540000e+001
         vertex 3.745609e+001 3.431737e+001 2.540000e+001
      endloop
   endfacet
   facet normal 0.000000e+000 0.000000e+000 1.000000e+000
      outer loop
         vertex 4.637218e+001 4.338053e+001 2.540000e+001
         vertex 3.745609e+001 3.431737e+001 2.540000e+001
         vertex 4.856083e+001 4.091572e+001 2.540000e+001
      endloop
   endfacet
   facet normal 0.000000e+000 0.000000e+000 1.000000e+000
      outer loop
         vertex 4.856083e+001 4.091572e+001 2.540000e+001
         vertex 3.745609e+001 3.431737e+001 2.540000e+001
         vertex 3.935373e+001 3.212358e+001 2.540000e+001
      endloop
   endfacet
   facet normal 0.000000e+000 0.000000e+000 1.000000e+000
      outer loop
         vertex 4.856083e+001 4.091572e+001 2.540000e+001
         vertex 3.935373e+001 3.212358e+001 2.540000e+001
         vertex 5.061861e+001 3.834066e+001 2.540000e+001
      endloop
   endfacet
   facet normal 0.000000e+000 0.000000e+000 1.000000e+000
      outer loop
         vertex 5.061861e+001 3.834066e+001 2.540000e+001
         vertex 3.935373e+001 3.212358e+001 2.540000e+001
         vertex 4.112306e+001 2.982505e+001 2.540000e+001
      endloop
   endfacet
   facet normal 0.000000e+000 0.000000e+000 1.000000e+000
      outer loop
         vertex 5.061861e+001 3.834066e+001 2.540000e+001
         vertex 4.112306e+001 2.982505e+001 2.540000e+001
         vertex 5.254000e+001 3.566229e+001 2.540000e+001
      endloop
   endfacet
   facet normal 0.000000e+000 0.000000e+000 1.000000e+000
      outer loop
         vertex 5.254000e+001 3.566229e+001 2.540000e+001
         vertex 4.112306e+001 2.982505e+001 2.540000e+001
         vertex 4.275832e+001 2.742929e+001 2.540000e+001
      endloop
   endfacet
   facet normal 0.000000e+000 0.000000e+000 1.000000e+000
      outer loop
         vertex 4.875313e+001 1.427489e+001 2.540000e+001
         vertex 6.094141e+001 1.784361e+001 2.540000e+001
         vertex 4.785890e+001 1.703426e+001 2.540000e+001
      endloop
   endfacet
   facet normal 0.000000e+000 0.000000e+000 1.000000e+000
      outer loop
         vertex 4.785890e+001 1.703426e+001 2.540000e+001
         vertex 6.094141e+001 1.784361e+001 2.540000e+001
         vertex 5.993336e+001 2.098196e+001 2.540000e+001
      endloop
   endfacet
   facet normal 0.000000e+000 0.000000e+000 1.000000e+000
      outer loop
         vertex 4.785890e+001 1.703426e+001 2.540000e+001
         vertex 5.993336e+001 2.098196e+001 2.540000e+001
         vertex 4.680863e+001 1.973809e+001 2.540000e+001
      endloop
   endfacet
   facet normal 0.000000e+000 0.000000e+000 1.000000e+000
      outer loop
         vertex 4.680863e+001 1.973809e+001 2.540000e+001
         vertex 5.993336e+001 2.098196e+001 2.540000e+001
         vertex 5.876381e+001 2.406377e+001 2.540000e+001
      endloop
   endfacet
   facet normal 0.000000e+000 0.000000e+000 1.000000e+000
      outer loop
         vertex 4.680863e+001 1.973809e+001 2.540000e+001
         vertex 5.876381e+001 2.406377e+001 2.540000e+001
         vertex 4.560575e+001 2.237757e+001 2.540000e+001
      endloop
   endfacet
   facet normal 0.000000e+000 0.000000e+000 1.000000e+000
      outer loop
         vertex 4.560575e+001 2.237757e+001 2.540000e+001
         vertex 5.876381e+001 2.406377e+001 2.540000e+001
         vertex 5.743591e+001 2.708073e+001 2.540000e+001
      endloop
   endfacet
   facet normal 0.000000e+000 0.000000e+000 1.000000e+000
      outer loop
         vertex 4.560575e+001 2.237757e+001 2.540000e+001
         vertex 5.743591e+001 2.708073e+001 2.540000e+001
         vertex 4.425418e+001 2.494409e+001 2.540000e+001
      endloop
   endfacet
   facet normal 0.000000e+000 0.000000e+000 1.000000e+000
      outer loop
         vertex 4.425418e+001 2.494409e+001 2.540000e+001
         vertex 5.743591e+001 2.708073e+001 2.540000e+001
         vertex 5.595325e+001 3.002473e+001 2.540000e+001
      endloop
   endfacet
   facet normal 0.000000e+000 0.000000e+000 1.000000e+000
      outer loop
         vertex 4.425418e+001 2.494409e+001 2.540000e+001
         vertex 5.595325e+001 3.002473e+001 2.540000e+001
         vertex 4.275832e+001 2.742929e+001 2.540000e+001
      endloop
   endfacet
   facet normal 0.000000e+000 0.000000e+000 1.000000e+000
      outer loop
         vertex 4.275832e+001 2.742929e+001 2.540000e+001
         vertex 5.595325e+001 3.002473e+001 2.540000e+001
         vertex 5.431981e+001 3.288782e+001 2.540000e+001
      endloop
   endfacet
   facet normal 0.000000e+000 0.000000e+000 1.000000e+000
      outer loop
         vertex 4.275832e+001 2.742929e+001 2.540000e+001
         vertex 5.431981e+001 3.288782e+001 2.540000e+001
         vertex 5.254000e+001 3.566229e+001 2.540000e+001
      endloop
   endfacet
   facet normal 0.000000e+000 0.000000e+000 -1.000000e+000
      outer loop
         vertex 4.112306e+001 2.982505e+001 0.000000e+000
         vertex 5.254000e+001 3.566229e+001 0.000000e+000
         vertex 4.275832e+001 2.742929e+001 0.000000e+000
      endloop
   endfacet
   facet normal 0.000000e+000 0.000000e+000 -1.000000e+000
      outer loop
         vertex 4.275832e+001 2.742929e+001 0.000000e+000
         vertex 5.254000e+001 3.566229e+001 0.000000e+000
         vertex 5.431981e+001 3.288782e+001 0.000000e+000
      endloop
   endfacet
   facet normal 0.000000e+000 0.000000e+000 -1.000000e+000
      outer loop
         vertex 4.275832e+001 2.742929e+001 0.000000e+000
         vertex 5.431981e+001 3.288782e+001 0.000000e+000
         vertex 4.425418e+001 2.494409e+001 0.000000e+000
      endloop
   endfacet
   facet normal 0.000000e+000 0.000000e+000 -1.000000e+000
      outer loop
         vertex 4.425418e+001 2.494409e+001 0.000000e+000
         vertex 5.431981e+001 3.288782e+001 0.000000e+000
         vertex 5.595325e+001 3.002473e+001 0.000000e+000
      endloop
   endfacet
   facet normal 0.000000e+000 0.000000e+000 -1.000000e+000
      outer loop
         vertex 4.425418e+001 2.494409e+001 0.000000e+000
         vertex 5.595325e+001 3.002473e+001 0.000000e+000
         vertex 4.560575e+001 2.237757e+001 0.000000e+000
      endloop
   endfacet
   facet normal 0.000000e+000 0.000000e+000 -1.000000e+000
      outer loop
         vertex 4.560575e+001 2.237757e+001 0.000000e+000
         vertex 5.595325e+001 3.002473e+001 0.000000e+000
         vertex 5.743591e+001 2.708073e+001 0.000000e+000
      endloop
   endfacet
   facet normal 0.000000e+000 0.000000e+000 -1.000000e+000
      outer loop
         vertex 4.560575e+001 2.237757e+001 0.000000e+000
         vertex 5.743591e+001 2.708073e+001 0.000000e+000
         vertex 4.680863e+001 1.973809e+001 0.000000e+000
      endloop
   endfacet
   facet normal 0.000000e+000 0.000000e+000 -1.000000e+000
      outer loop
         vertex 4.680863e+001 1.973809e+001 0.000000e+000
         vertex 5.743591e+001 2.708073e+001 0.000000e+000
         vertex 5.876381e+001 2.406377e+001 0.000000e+000
      endloop
   endfacet
   facet normal 0.000000e+000 0.000000e+000 -1.000000e+000
      outer loop
         vertex 4.680863e+001 1.973809e+001 0.000000e+000
         vertex 5.876381e+001 2.406377e+001 0.000000e+000
         vertex 4.785890e+001 1.703426e+001 0.000000e+000
      endloop
   endfacet
   facet normal 0.000000e+000 0.000000e+000 -1.000000e+000
      outer loop
         vertex 4.785890e+001 1.703426e+001 0.000000e+000
         vertex 5.876381e+001 2.406377e+001 0.000000e+000
         vertex 5.993336e+001 2.098196e+001 0.000000e+000
      endloop
   endfacet
   facet normal 0.000000e+000 0.000000e+000 -1.000000e+000
      outer loop
         vertex 4.785890e+001 1.703426e+001 0.000000e+000
         vertex 5.993336e+001 2.098196e+001 0.000000e+000
         vertex 4.875313e+001 1.427489e+001 0.000000e+000
      endloop
   endfacet
   facet normal 0.000000e+000 0.000000e+000 -1.000000e+000
      outer loop
         vertex 4.875313e+001 1.427489e+001 0.000000e+000
         vertex 5.993336e+001 2.098196e+001 0.000000e+000
         vertex 6.094141e+001 1.784361e+001 0.000000e+000
      endloop
   endfacet
   facet normal 0.000000e+000 0.000000e+000 -1.000000e+000
      outer loop
         vertex 3.330103e+001 3.836250e+001 0.000000e+000
         vertex 4.162628e+001 4.795313e+001 0.000000e+000
         vertex 3.543632e+001 3.639927e+001 0.000000e+000
      endloop
   endfacet
   facet normal 0.000000e+000 0.000000e+000 -1.000000e+000
      outer loop
         vertex 3.543632e+001 3.639927e+001 0.000000e+000
         vertex 4.162628e+001 4.795313e+001 0.000000e+000
         vertex 4.405859e+001 4.572844e+001 0.000000e+000
      endloop
   endfacet
   facet normal 0.000000e+000 0.000000e+000 -1.000000e+000
      outer loop
         vertex 3.543632e+001 3.639927e+001 0.000000e+000
         vertex 4.405859e+001 4.572844e+001 0.000000e+000
         vertex 3.745609e+001 3.431737e+001 0.000000e+000
      endloop
   endfacet
   facet normal 0.000000e+000 0.000000e+000 -1.000000e+000
      outer loop
         vertex 3.745609e+001 3.431737e+001 0.000000e+000
         vertex 4.405859e+001 4.572844e+001 0.000000e+000
         vertex 4.637218e+001 4.338053e+001 0.000000e+000
      endloop
   endfacet
   facet normal 0.000000e+000 0.000000e+000 -1.000000e+000
      outer loop
         vertex 3.745609e+001 3.431737e+001 0.000000e+000
         vertex 4.637218e+001 4.338053e+001 0.000000e+000
         vertex 3.935373e+001 3.212358e+001 0.000000e+000
      endloop
   endfacet
   facet normal 0.000000e+000 0.000000e+000 -1.000000e+000
      outer loop
         vertex 3.935373e+001 3.212358e+001 0.000000e+000
         vertex 4.637218e+001 4.338053e+001 0.000000e+000
         vertex 4.856083e+001 4.091572e+001 0.000000e+000
      endloop
   endfacet
   facet normal 0.000000e+000 0.000000e+000 -1.000000e+000
      outer loop
         vertex 3.935373e+001 3.212358e+001 0.000000e+000
         vertex 4.856083e+001 4.091572e+001 0.000000e+000
         vertex 4.112306e+001 2.982505e+001 0.000000e+000
      endloop
   endfacet
   facet normal 0.000000e+000 0.000000e+000 -1.000000e+000
      outer loop
         vertex 4.112306e+001 2.982505e+001 0.000000e+000
         vertex 4.856083e+001 4.091572e+001 0.000000e+000
         vertex 5.061861e+001 3.834066e+001 0.000000e+000
      endloop
   endfacet
   facet normal 0.000000e+000 0.000000e+000 -1.000000e+000
      outer loop
         vertex 4.112306e+001 2.982505e+001 0.000000e+000
         vertex 5.061861e+001 3.834066e+001 0.000000e+000
         vertex 5.254000e+001 3.566229e+001 0.000000e+000
      endloop
   endfacet
   facet normal 9.547015e-001 2.975651e-001 0.000000e+000
      outer loop
         vertex 6.094141e+001 1.784361e+001 2.540000e+001
         vertex 6.094141e+001 1.784361e+001 0.000000e+000
         vertex 5.993336e+001 2.098196e+001 0.000000e+000
      endloop
   endfacet
   facet normal 9.494084e-001 3.140443e-001 0.000000e+000
      outer loop
         vertex 6.094141e+001 1.784361e+001 2.540000e+001
         vertex 5.993336e+001 2.098196e+001 0.000000e+000
         vertex 5.993336e+001 2.098196e+001 2.540000e+001
      endloop
   endfacet
   facet normal 9.379739e-001 3.467059e-001 0.000000e+000
      outer loop
         vertex 5.993336e+001 2.098196e+001 2.540000e+001
         vertex 5.993336e+001 2.098196e+001 0.000000e+000
         vertex 5.876381e+001 2.406377e+001 0.000000e+000
      endloop
   endfacet
   facet normal 9.318327e-001 3.628882e-001 0.000000e+000
      outer loop
         vertex 5.993336e+001 2.098196e+001 2.540000e+001
         vertex 5.876381e+001 2.406377e+001 0.000000e+000
         vertex 5.876381e+001 2.406377e+001 2.540000e+001
      endloop
   endfacet
   facet normal 9.187188e-001 3.949123e-001 0.000000e+000
      outer loop
         vertex 5.876381e+001 2.406377e+001 2.540000e+001
         vertex 5.876381e+001 2.406377e+001 0.000000e+000
         vertex 5.743591e+001 2.708073e+001 0.000000e+000
      endloop
   endfacet
   facet normal 9.117461e-001 4.107542e-001 0.000000e+000
      outer loop
         vertex 5.876381e+001 2.406377e+001 2.540000e+001
         vertex 5.743591e+001 2.708073e+001 0.000000e+000
         vertex 5.743591e+001 2.708073e+001 2.540000e+001
      endloop
   endfacet
   facet normal 8.969881e-001 4.420547e-001 0.000000e+000
      outer loop
         vertex 5.743591e+001 2.708073e+001 2.540000e+001
         vertex 5.743591e+001 2.708073e+001 0.000000e+000
         vertex 5.595325e+001 3.002473e+001 0.000000e+000
      endloop
   endfacet
   facet normal 8.892027e-001 4.575133e-001 0.000000e+000
      outer loop
         vertex 5.743591e+001 2.708073e+001 2.540000e+001
         vertex 5.595325e+001 3.002473e+001 0.000000e+000
         vertex 5.595325e+001 3.002473e+001 2.540000e+001
      endloop
   endfacet
   facet normal 8.728403e-001 4.880059e-001 0.000000e+000
      outer loop
         vertex 5.595325e+001 3.002473e+001 2.540000e+001
         vertex 5.595325e+001 3.002473e+001 0.000000e+000
         vertex 5.431981e+001 3.288782e+001 0.000000e+000
      endloop
   endfacet
   facet normal 8.642633e-001 5.030398e-001 0.000000e+000
      outer loop
         vertex 5.595325e+001 3.002473e+001 2.540000e+001
         vertex 5.431981e+001 3.288782e+001 0.000000e+000
         vertex 5.431981e+001 3.288782e+001 2.540000e+001
      endloop
   endfacet
   facet normal 8.463406e-001 5.326421e-001 0.000000e+000
      outer loop
         vertex 5.431981e+001 3.288782e+001 2.540000e+001
         vertex 5.431981e+001 3.288782e+001 0.000000e+000
         vertex 5.254000e+001 3.566229e+001 0.000000e+000
      endloop
   endfacet
   facet normal 8.369950e-001 5.472106e-001 0.000000e+000
      outer loop
         vertex 5.431981e+001 3.288782e+001 2.540000e+001
         vertex 5.254000e+001 3.566229e+001 0.000000e+000
         vertex 5.254000e+001 3.566229e+001 2.540000e+001
      endloop
   endfacet
   facet normal 8.175603e-001 5.758430e-001 0.000000e+000
      outer loop
         vertex 5.254000e+001 3.566229e+001 2.540000e+001
         vertex 5.254000e+001 3.566229e+001 0.000000e+000
         vertex 5.061861e+001 3.834066e+001 0.000000e+000
      endloop
   endfacet
   facet normal 8.074713e-001 5.899069e-001 0.000000e+000
      outer loop
         vertex 5.254000e+001 3.566229e+001 2.540000e+001
         vertex 5.061861e+001 3.834066e+001 0.000000e+000
         vertex 5.061861e+001 3.834066e+001 2.540000e+001
      endloop
   endfacet
   facet normal 7.865770e-001 6.174923e-001 0.000000e+000
      outer loop
         vertex 5.061861e+001 3.834066e+001 2.540000e+001
         vertex 5.061861e+001 3.834066e+001 0.000000e+000
         vertex 4.856083e+001 4.091572e+001 0.000000e+000
      endloop
   endfacet
   facet normal 7.757717e-001 6.310137e-001 0.000000e+000
      outer loop
         vertex 5.061861e+001 3.834066e+001 2.540000e+001
         vertex 4.856083e+001 4.091572e+001 0.000000e+000
         vertex 4.856083e+001 4.091572e+001 2.540000e+001
      endloop
   endfacet
   facet normal 7.534741e-001 6.574776e-001 0.000000e+000
      outer loop
         vertex 4.856083e+001 4.091572e+001 2.540000e+001
         vertex 4.856083e+001 4.091572e+001 0.000000e+000
         vertex 4.637218e+001 4.338053e+001 0.000000e+000
      endloop
   endfacet
   facet normal 7.419818e-001 6.704200e-001 0.000000e+000
      outer loop
         vertex 4.856083e+001 4.091572e+001 2.540000e+001
         vertex 4.637218e+001 4.338053e+001 0.000000e+000
         vertex 4.637218e+001 4.338053e+001 2.540000e+001
      endloop
   endfacet
   facet normal 7.183409e-001 6.956912e-001 0.000000e+000
      outer loop
         vertex 4.637218e+001 4.338053e+001 2.540000e+001
         vertex 4.637218e+001 4.338053e+001 0.000000e+000
         vertex 4.405859e+001 4.572844e+001 0.000000e+000
      endloop
   endfacet
   facet normal 7.061926e-001 7.080199e-001 0.000000e+000
      outer loop
         vertex 4.637218e+001 4.338053e+001 2.540000e+001
         vertex 4.405859e+001 4.572844e+001 0.000000e+000
         vertex 4.405859e+001 4.572844e+001 2.540000e+001
      endloop
   endfacet
   facet normal 6.812721e-001 7.320303e-001 0.000000e+000
      outer loop
         vertex 4.405859e+001 4.572844e+001 2.540000e+001
         vertex 4.405859e+001 4.572844e+001 0.000000e+000
         vertex 4.162628e+001 4.795313e+001 0.000000e+000
      endloop
   endfacet
   facet normal 6.685002e-001 7.437120e-001 0.000000e+000
      outer loop
         vertex 4.405859e+001 4.572844e+001 2.540000e+001
         vertex 4.162628e+001 4.795313e+001 0.000000e+000
         vertex 4.162628e+001 4.795313e+001 2.540000e+001
      endloop
   endfacet
   facet normal -6.697858e-001 -7.425544e-001 0.000000e+000
      outer loop
         vertex 3.330103e+001 3.836250e+001 2.540000e+001
         vertex 3.330103e+001 3.836250e+001 0.000000e+000
         vertex 3.543632e+001 3.639927e+001 0.000000e+000
      endloop
   endfacet
   facet normal -6.838020e-001 -7.296676e-001 0.000000e+000
      outer loop
         vertex 3.330103e+001 3.836250e+001 2.540000e+001
         vertex 3.543632e+001 3.639927e+001 0.000000e+000
         vertex 3.543632e+001 3.639927e+001 2.540000e+001
      endloop
   endfacet
   facet normal -7.110761e-001 -7.031151e-001 0.000000e+000
      outer loop
         vertex 3.543632e+001 3.639927e+001 2.540000e+001
         vertex 3.543632e+001 3.639927e+001 0.000000e+000
         vertex 3.745609e+001 3.431737e+001 0.000000e+000
      endloop
   endfacet
   facet normal -7.243339e-001 -6.894493e-001 0.000000e+000
      outer loop
         vertex 3.543632e+001 3.639927e+001 2.540000e+001
         vertex 3.745609e+001 3.431737e+001 0.000000e+000
         vertex 3.745609e+001 3.431737e+001 2.540000e+001
      endloop
   endfacet
   facet normal -7.500480e-001 -6.613835e-001 0.000000e+000
      outer loop
         vertex 3.745609e+001 3.431737e+001 2.540000e+001
         vertex 3.745609e+001 3.431737e+001 0.000000e+000
         vertex 3.935373e+001 3.212358e+001 0.000000e+000
      endloop
   endfacet
   facet normal -7.625042e-001 -6.469832e-001 0.000000e+000
      outer loop
         vertex 3.745609e+001 3.431737e+001 2.540000e+001
         vertex 3.935373e+001 3.212358e+001 0.000000e+000
         vertex 3.935373e+001 3.212358e+001 2.540000e+001
      endloop
   endfacet
   facet normal -7.865745e-001 -6.174954e-001 0.000000e+000
      outer loop
         vertex 3.935373e+001 3.212358e+001 2.540000e+001
         vertex 3.935373e+001 3.212358e+001 0.000000e+000
         vertex 4.112306e+001 2.982505e+001 0.000000e+000
      endloop
   endfacet
   facet normal -7.981885e-001 -6.024078e-001 0.000000e+000
      outer loop
         vertex 3.935373e+001 3.212358e+001 2.540000e+001
         vertex 4.112306e+001 2.982505e+001 0.000000e+000
         vertex 4.112306e+001 2.982505e+001 2.540000e+001
      endloop
   endfacet
   facet normal -8.205365e-001 -5.715941e-001 0.000000e+000
      outer loop
         vertex 4.112306e+001 2.982505e+001 2.540000e+001
         vertex 4.112306e+001 2.982505e+001 0.000000e+000
         vertex 4.275832e+001 2.742929e+001 0.000000e+000
      endloop
   endfacet
   facet normal -8.312705e-001 -5.558682e-001 0.000000e+000
      outer loop
         vertex 4.112306e+001 2.982505e+001 2.540000e+001
         vertex 4.275832e+001 2.742929e+001 0.000000e+000
         vertex 4.275832e+001 2.742929e+001 2.540000e+001
      endloop
   endfacet
   facet normal -8.518233e-001 -5.238293e-001 0.000000e+000
      outer loop
         vertex 4.275832e+001 2.742929e+001 2.540000e+001
         vertex 4.275832e+001 2.742929e+001 0.000000e+000
         vertex 4.425418e+001 2.494409e+001 0.000000e+000
      endloop
   endfacet
   facet normal -8.616421e-001 -5.075164e-001 0.000000e+000
      outer loop
         vertex 4.275832e+001 2.742929e+001 2.540000e+001
         vertex 4.425418e+001 2.494409e+001 0.000000e+000
         vertex 4.425418e+001 2.494409e+001 2.540000e+001
      endloop
   endfacet
   facet normal -8.803328e-001 -4.743566e-001 0.000000e+000
      outer loop
         vertex 4.425418e+001 2.494409e+001 2.540000e+001
         vertex 4.425418e+001 2.494409e+001 0.000000e+000
         vertex 4.560575e+001 2.237757e+001 0.000000e+000
      endloop
   endfacet
   facet normal -8.892046e-001 -4.575098e-001 0.000000e+000
      outer loop
         vertex 4.425418e+001 2.494409e+001 2.540000e+001
         vertex 4.560575e+001 2.237757e+001 0.000000e+000
         vertex 4.560575e+001 2.237757e+001 2.540000e+001
      endloop
   endfacet
   facet normal -9.059721e-001 -4.233373e-001 0.000000e+000
      outer loop
         vertex 4.560575e+001 2.237757e+001 2.540000e+001
         vertex 4.560575e+001 2.237757e+001 0.000000e+000
         vertex 4.680863e+001 1.973809e+001 0.000000e+000
      endloop
   endfacet
   facet normal -9.138679e-001 -4.060116e-001 0.000000e+000
      outer loop
         vertex 4.560575e+001 2.237757e+001 2.540000e+001
         vertex 4.680863e+001 1.973809e+001 0.000000e+000
         vertex 4.680863e+001 1.973809e+001 2.540000e+001
      endloop
   endfacet
   facet normal -9.286577e-001 -3.709378e-001 0.000000e+000
      outer loop
         vertex 4.680863e+001 1.973809e+001 2.540000e+001
         vertex 4.680863e+001 1.973809e+001 0.000000e+000
         vertex 4.785890e+001 1.703426e+001 0.000000e+000
      endloop
   endfacet
   facet normal -9.355518e-001 -3.531897e-001 0.000000e+000
      outer loop
         vertex 4.680863e+001 1.973809e+001 2.540000e+001
         vertex 4.785890e+001 1.703426e+001 0.000000e+000
         vertex 4.785890e+001 1.703426e+001 2.540000e+001
      endloop
   endfacet
   facet normal -9.483156e-001 -3.173289e-001 0.000000e+000
      outer loop
         vertex 4.785890e+001 1.703426e+001 2.540000e+001
         vertex 4.785890e+001 1.703426e+001 0.000000e+000
         vertex 4.875313e+001 1.427489e+001 0.000000e+000
      endloop
   endfacet
   facet normal -9.541853e-001 -2.992162e-001 0.000000e+000
      outer loop
         vertex 4.785890e+001 1.703426e+001 2.540000e+001
         vertex 4.875313e+001 1.427489e+001 0.000000e+000
         vertex 4.875313e+001 1.427489e+001 2.540000e+001
      endloop
   endfacet
   facet normal -7.551674e-001 6.555320e-001 0.000000e+000
      outer loop
         vertex 3.330103e+001 3.836250e+001 0.000000e+000
         vertex 3.330103e+001 3.836250e+001 2.540000e+001
         vertex 4.162628e+001 4.795313e+001 0.000000e+000
      endloop
   endfacet
   facet normal -7.551674e-001 6.555320e-001 0.000000e+000
      outer loop
         vertex 4.162628e+001 4.795313e+001 0.000000e+000
         vertex 3.330103e+001 3.836250e+001 2.540000e+001
         vertex 4.162628e+001 4.795313e+001 2.540000e+001
      endloop
   endfacet
   facet normal 2.810017e-001 -9.597073e-001 0.000000e+000
      outer loop
         vertex 4.875313e+001 1.427489e+001 0.000000e+000
         vertex 6.094141e+001 1.784361e+001 0.000000e+000
         vertex 4.875313e+001 1.427489e+001 2.540000e+001
      endloop
   endfacet
   facet normal 2.810017e-001 -9.597073e-001 0.000000e+000
      outer loop
         vertex 4.875313e+001 1.427489e+001 2.540000e+001
         vertex 6.094141e+001 1.784361e+001 0.000000e+000
         vertex 6.094141e+001 1.784361e+001 2.540000e+001
      endloop
   endfacet
endsolid