solid 3
   facet normal 0.000000e+000 0.000000e+000 1.000000e+000
      outer loop
         vertex -1.010356e+001 -4.978512e+001 2.540000e+001
         vertex -1.068517e+001 -6.259455e+001 2.540000e+001
         vertex -7.245550e+000 -5.028064e+001 2.540000e+001
      endloop
   endfacet
   facet normal 0.000000e+000 0.000000e+000 1.000000e+000
      outer loop
         vertex -7.245550e+000 -5.028064e+001 2.540000e+001
         vertex -1.068517e+001 -6.259455e+001 2.540000e+001
         vertex -7.422601e+000 -6.306469e+001 2.540000e+001
      endloop
   endfacet
   facet normal 0.000000e+000 0.000000e+000 1.000000e+000
      outer loop
         vertex -7.245550e+000 -5.028064e+001 2.540000e+001
         vertex -7.422601e+000 -6.306469e+001 2.540000e+001
         vertex -4.363914e+000 -5.061221e+001 2.540000e+001
      endloop
   endfacet
   facet normal 0.000000e+000 0.000000e+000 1.000000e+000
      outer loop
         vertex -4.363914e+000 -5.061221e+001 2.540000e+001
         vertex -7.422601e+000 -6.306469e+001 2.540000e+001
         vertex -4.140029e+000 -6.336489e+001 2.540000e+001
      endloop
   endfacet
   facet normal 0.000000e+000 0.000000e+000 1.000000e+000
      outer loop
         vertex -4.363914e+000 -5.061221e+001 2.540000e+001
         vertex -4.140029e+000 -6.336489e+001 2.540000e+001
         vertex -1.468050e+000 -5.077879e+001 2.540000e+001
      endloop
   endfacet
   facet normal 0.000000e+000 0.000000e+000 1.000000e+000
      outer loop
         vertex -1.468050e+000 -5.077879e+001 2.540000e+001
         vertex -4.140029e+000 -6.336489e+001 2.540000e+001
         vertex -8.463010e-001 -6.349436e+001 2.540000e+001
      endloop
   endfacet
   facet normal 0.000000e+000 0.000000e+000 1.000000e+000
      outer loop
         vertex -1.468050e+000 -5.077879e+001 2.540000e+001
         vertex -8.463010e-001 -6.349436e+001 2.540000e+001
         vertex 1.432600e+000 -5.077980e+001 2.540000e+001
      endloop
   endfacet
   facet normal 0.000000e+000 0.000000e+000 1.000000e+000
      outer loop
         vertex 1.432600e+000 -5.077980e+001 2.540000e+001
         vertex -8.463010e-001 -6.349436e+001 2.540000e+001
         vertex 2.449707e+000 -6.345273e+001 2.540000e+001
      endloop
   endfacet
   facet normal 0.000000e+000 0.000000e+000 1.000000e+000
      outer loop
         vertex 1.432600e+000 -5.077980e+001 2.540000e+001
         vertex 2.449707e+000 -6.345273e+001 2.540000e+001
         vertex 4.328579e+000 -5.061525e+001 2.540000e+001
      endloop
   endfacet
   facet normal 0.000000e+000 0.000000e+000 1.000000e+000
      outer loop
         vertex 4.328579e+000 -5.061525e+001 2.540000e+001
         vertex 2.449707e+000 -6.345273e+001 2.540000e+001
         vertex 5.739115e+000 -6.324012e+001 2.540000e+001
      endloop
   endfacet
   facet normal 0.000000e+000 0.000000e+000 1.000000e+000
      outer loop
         vertex 4.328579e+000 -5.061525e+001 2.540000e+001
         vertex 5.739115e+000 -6.324012e+001 2.540000e+001
         vertex 7.210445e+000 -5.028568e+001 2.540000e+001
      endloop
   endfacet
   facet normal 0.000000e+000 0.000000e+000 1.000000e+000
      outer loop
         vertex 7.210445e+000 -5.028568e+001 2.540000e+001
         vertex 5.739115e+000 -6.324012e+001 2.540000e+001
         vertex 9.013057e+000 -6.285710e+001 2.540000e+001
      endloop
   endfacet
   facet normal 0.000000e+000 0.000000e+000 1.000000e+000
      outer loop
         vertex -2.111481e+001 -4.620395e+001 2.540000e+001
         vertex -2.639352e+001 -5.775493e+001 2.540000e+001
         vertex -1.844325e+001 -4.733378e+001 2.540000e+001
      endloop
   endfacet
   facet normal 0.000000e+000 0.000000e+000 1.000000e+000
      outer loop
         vertex -1.844325e+001 -4.733378e+001 2.540000e+001
         vertex -2.639352e+001 -5.775493e+001 2.540000e+001
         vertex -2.336092e+001 -5.904674e+001 2.540000e+001
      endloop
   endfacet
   facet normal 0.000000e+000 0.000000e+000 1.000000e+000
      outer loop
         vertex -1.844325e+001 -4.733378e+001 2.540000e+001
         vertex -2.336092e+001 -5.904674e+001 2.540000e+001
         vertex -1.571156e+001 -4.830928e+001 2.540000e+001
      endloop
   endfacet
   facet normal 0.000000e+000 0.000000e+000 1.000000e+000
      outer loop
         vertex -1.571156e+001 -4.830928e+001 2.540000e+001
         vertex -2.336092e+001 -5.904674e+001 2.540000e+001
         vertex -2.026538e+001 -6.017944e+001 2.540000e+001
      endloop
   endfacet
   facet normal 0.000000e+000 0.000000e+000 1.000000e+000
      outer loop
         vertex -1.571156e+001 -4.830928e+001 2.540000e+001
         vertex -2.026538e+001 -6.017944e+001 2.540000e+001
         vertex -1.292863e+001 -4.912729e+001 2.540000e+001
      endloop
   endfacet
   facet normal 0.000000e+000 0.000000e+000 1.000000e+000
      outer loop
         vertex -1.292863e+001 -4.912729e+001 2.540000e+001
         vertex -2.026538e+001 -6.017944e+001 2.540000e+001
         vertex -1.711522e+001 -6.114997e+001 2.540000e+001
      endloop
   endfacet
   facet normal 0.000000e+000 0.000000e+000 1.000000e+000
      outer loop
         vertex -1.292863e+001 -4.912729e+001 2.540000e+001
         vertex -1.711522e+001 -6.114997e+001 2.540000e+001
         vertex -1.010356e+001 -4.978512e+001 2.540000e+001
      endloop
   endfacet
   facet normal 0.000000e+000 0.000000e+000 1.000000e+000
      outer loop
         vertex -1.010356e+001 -4.978512e+001 2.540000e+001
         vertex -1.711522e+001 -6.114997e+001 2.540000e+001
         vertex -1.391895e+001 -6.195573e+001 2.540000e+001
      endloop
   endfacet
   facet normal 0.000000e+000 0.000000e+000 1.000000e+000
      outer loop
         vertex -1.010356e+001 -4.978512e+001 2.540000e+001
         vertex -1.391895e+001 -6.195573e+001 2.540000e+001
         vertex -1.068517e+001 -6.259455e+001 2.540000e+001
      endloop
   endfacet
   facet normal 0.000000e+000 0.000000e+000 -1.000000e+000
      outer loop
         vertex -2.639352e+001 -5.775493e+001 0.000000e+000
         vertex -2.111481e+001 -4.620395e+001 0.000000e+000
         vertex -2.336092e+001 -5.904674e+001 0.000000e+000
      endloop
   endfacet
   facet normal 0.000000e+000 0.000000e+000 -1.000000e+000
      outer loop
         vertex -2.336092e+001 -5.904674e+001 0.000000e+000
         vertex -2.111481e+001 -4.620395e+001 0.000000e+000
         vertex -1.844325e+001 -4.733378e+001 0.000000e+000
      endloop
   endfacet
   facet normal 0.000000e+000 0.000000e+000 -1.000000e+000
      outer loop
         vertex -2.336092e+001 -5.904674e+001 0.000000e+000
         vertex -1.844325e+001 -4.733378e+001 0.000000e+000
         vertex -2.026538e+001 -6.017944e+001 0.000000e+000
      endloop
   endfacet
   facet normal 0.000000e+000 0.000000e+000 -1.000000e+000
      outer loop
         vertex -2.026538e+001 -6.017944e+001 0.000000e+000
         vertex -1.844325e+001 -4.733378e+001 0.000000e+000
         vertex -1.571156e+001 -4.830928e+001 0.000000e+000
      endloop
   endfacet
   facet normal 0.000000e+000 0.000000e+000 -1.000000e+000
      outer loop
         vertex -2.026538e+001 -6.017944e+001 0.000000e+000
         vertex -1.571156e+001 -4.830928e+001 0.000000e+000
         vertex -1.711522e+001 -6.114997e+001 0.000000e+000
      endloop
   endfacet
   facet normal 0.000000e+000 0.000000e+000 -1.000000e+000
      outer loop
         vertex -1.711522e+001 -6.114997e+001 0.000000e+000
         vertex -1.571156e+001 -4.830928e+001 0.000000e+000
         vertex -1.292863e+001 -4.912729e+001 0.000000e+000
      endloop
   endfacet
   facet normal 0.000000e+000 0.000000e+000 -1.000000e+000
      outer loop
         vertex -1.711522e+001 -6.114997e+001 0.000000e+000
         vertex -1.292863e+001 -4.912729e+001 0.000000e+000
         vertex -1.391895e+001 -6.195573e+001 0.000000e+000
      endloop
   endfacet
   facet normal 0.000000e+000 0.000000e+000 -1.000000e+000
      outer loop
         vertex -1.391895e+001 -6.195573e+001 0.000000e+000
         vertex -1.292863e+001 -4.912729e+001 0.000000e+000
         vertex -1.010356e+001 -4.978512e+001 0.000000e+000
      endloop
   endfacet
   facet normal 0.000000e+000 0.000000e+000 -1.000000e+000
      outer loop
         vertex -1.391895e+001 -6.195573e+001 0.000000e+000
         vertex -1.010356e+001 -4.978512e+001 0.000000e+000
         vertex -1.068517e+001 -6.259455e+001 0.000000e+000
      endloop
   endfacet
   facet normal 0.000000e+000 0.000000e+000 -1.000000e+000
      outer loop
         vertex -1.068517e+001 -6.259455e+001 0.000000e+000
         vertex -1.010356e+001 -4.978512e+001 0.000000e+000
         vertex -7.245550e+000 -5.028064e+001 0.000000e+000
      endloop
   endfacet
   facet normal 0.000000e+000 0.000000e+000 -1.000000e+000
      outer loop
         vertex 7.210445e+000 -5.028568e+001 0.000000e+000
         vertex 9.013057e+000 -6.285710e+001 0.000000e+000
         vertex 4.328579e+000 -5.061525e+001 0.000000e+000
      endloop
   endfacet
   facet normal 0.000000e+000 0.000000e+000 -1.000000e+000
      outer loop
         vertex 4.328579e+000 -5.061525e+001 0.000000e+000
         vertex 9.013057e+000 -6.285710e+001 0.000000e+000
         vertex 5.739115e+000 -6.324012e+001 0.000000e+000
      endloop
   endfacet
   facet normal 0.000000e+000 0.000000e+000 -1.000000e+000
      outer loop
         vertex 4.328579e+000 -5.061525e+001 0.000000e+000
         vertex 5.739115e+000 -6.324012e+001 0.000000e+000
         vertex 1.432600e+000 -5.077980e+001 0.000000e+000
      endloop
   endfacet
   facet normal 0.000000e+000 0.000000e+000 -1.000000e+000
      outer loop
         vertex 1.432600e+000 -5.077980e+001 0.000000e+000
         vertex 5.739115e+000 -6.324012e+001 0.000000e+000
         vertex 2.449707e+000 -6.345273e+001 0.000000e+000
      endloop
   endfacet
   facet normal 0.000000e+000 0.000000e+000 -1.000000e+000
      outer loop
         vertex 1.432600e+000 -5.077980e+001 0.000000e+000
         vertex 2.449707e+000 -6.345273e+001 0.000000e+000
         vertex -1.468050e+000 -5.077879e+001 0.000000e+000
      endloop
   endfacet
   facet normal 0.000000e+000 0.000000e+000 -1.000000e+000
      outer loop
         vertex -1.468050e+000 -5.077879e+001 0.000000e+000
         vertex 2.449707e+000 -6.345273e+001 0.000000e+000
         vertex -8.463010e-001 -6.349436e+001 0.000000e+000
      endloop
   endfacet
   facet normal 0.000000e+000 0.000000e+000 -1.000000e+000
      outer loop
         vertex -1.468050e+000 -5.077879e+001 0.000000e+000
         vertex -8.463010e-001 -6.349436e+001 0.000000e+000
         vertex -4.363914e+000 -5.061221e+001 0.000000e+000
      endloop
   endfacet
   facet normal 0.000000e+000 0.000000e+000 -1.000000e+000
      outer loop
         vertex -4.363914e+000 -5.061221e+001 0.000000e+000
         vertex -8.463010e-001 -6.349436e+001 0.000000e+000
         vertex -4.140029e+000 -6.336489e+001 0.000000e+000
      endloop
   endfacet
   facet normal 0.000000e+000 0.000000e+000 -1.000000e+000
      outer loop
         vertex -4.363914e+000 -5.061221e+001 0.000000e+000
         vertex -4.140029e+000 -6.336489e+001 0.000000e+000
         vertex -7.245550e+000 -5.028064e+001 0.000000e+000
      endloop
   endfacet
   facet normal 0.000000e+000 0.000000e+000 -1.000000e+000
      outer loop
         vertex -7.245550e+000 -5.028064e+001 0.000000e+000
         vertex -4.140029e+000 -6.336489e+001 0.000000e+000
         vertex -7.422601e+000 -6.306469e+001 0.000000e+000
      endloop
   endfacet
   facet normal 0.000000e+000 0.000000e+000 -1.000000e+000
      outer loop
         vertex -7.245550e+000 -5.028064e+001 0.000000e+000
         vertex -7.422601e+000 -6.306469e+001 0.000000e+000
         vertex -1.068517e+001 -6.259455e+001 0.000000e+000
      endloop
   endfacet
   facet normal -3.998465e-001 -9.165821e-001 0.000000e+000
      outer loop
         vertex -2.639352e+001 -5.775493e+001 2.540000e+001
         vertex -2.639352e+001 -5.775493e+001 0.000000e+000
         vertex -2.336092e+001 -5.904674e+001 0.000000e+000
      endloop
   endfacet
   facet normal -3.839226e-001 -9.233653e-001 0.000000e+000
      outer loop
         vertex -2.639352e+001 -5.775493e+001 2.540000e+001
         vertex -2.336092e+001 -5.904674e+001 0.000000e+000
         vertex -2.336092e+001 -5.904674e+001 2.540000e+001
      endloop
   endfacet
   facet normal -3.517442e-001 -9.360961e-001 0.000000e+000
      outer loop
         vertex -2.336092e+001 -5.904674e+001 2.540000e+001
         vertex -2.336092e+001 -5.904674e+001 0.000000e+000
         vertex -2.026538e+001 -6.017944e+001 0.000000e+000
      endloop
   endfacet
   facet normal -3.354898e-001 -9.420438e-001 0.000000e+000
      outer loop
         vertex -2.336092e+001 -5.904674e+001 2.540000e+001
         vertex -2.026538e+001 -6.017944e+001 0.000000e+000
         vertex -2.026538e+001 -6.017944e+001 2.540000e+001
      endloop
   endfacet
   facet normal -3.026941e-001 -9.530877e-001 0.000000e+000
      outer loop
         vertex -2.026538e+001 -6.017944e+001 2.540000e+001
         vertex -2.026538e+001 -6.017944e+001 0.000000e+000
         vertex -1.711522e+001 -6.114997e+001 0.000000e+000
      endloop
   endfacet
   facet normal -2.861530e-001 -9.581839e-001 0.000000e+000
      outer loop
         vertex -2.026538e+001 -6.017944e+001 2.540000e+001
         vertex -1.711522e+001 -6.114997e+001 0.000000e+000
         vertex -1.711522e+001 -6.114997e+001 2.540000e+001
      endloop
   endfacet
   facet normal -2.528284e-001 -9.675111e-001 0.000000e+000
      outer loop
         vertex -1.711522e+001 -6.114997e+001 2.540000e+001
         vertex -1.711522e+001 -6.114997e+001 0.000000e+000
         vertex -1.391895e+001 -6.195573e+001 0.000000e+000
      endloop
   endfacet
   facet normal -2.360451e-001 -9.717421e-001 0.000000e+000
      outer loop
         vertex -1.711522e+001 -6.114997e+001 2.540000e+001
         vertex -1.391895e+001 -6.195573e+001 0.000000e+000
         vertex -1.391895e+001 -6.195573e+001 2.540000e+001
      endloop
   endfacet
   facet normal -2.022814e-001 -9.793274e-001 0.000000e+000
      outer loop
         vertex -1.391895e+001 -6.195573e+001 2.540000e+001
         vertex -1.391895e+001 -6.195573e+001 0.000000e+000
         vertex -1.068517e+001 -6.259455e+001 0.000000e+000
      endloop
   endfacet
   facet normal -1.853011e-001 -9.826818e-001 0.000000e+000
      outer loop
         vertex -1.391895e+001 -6.195573e+001 2.540000e+001
         vertex -1.068517e+001 -6.259455e+001 0.000000e+000
         vertex -1.068517e+001 -6.259455e+001 2.540000e+001
      endloop
   endfacet
   facet normal -1.511893e-001 -9.885048e-001 0.000000e+000
      outer loop
         vertex -1.068517e+001 -6.259455e+001 2.540000e+001
         vertex -1.068517e+001 -6.259455e+001 0.000000e+000
         vertex -7.422601e+000 -6.306469e+001 0.000000e+000
      endloop
   endfacet
   facet normal -1.340578e-001 -9.909735e-001 0.000000e+000
      outer loop
         vertex -1.068517e+001 -6.259455e+001 2.540000e+001
         vertex -7.422601e+000 -6.306469e+001 0.000000e+000
         vertex -7.422601e+000 -6.306469e+001 2.540000e+001
      endloop
   endfacet
   facet normal -9.968985e-002 -9.950185e-001 0.000000e+000
      outer loop
         vertex -7.422601e+000 -6.306469e+001 2.540000e+001
         vertex -7.422601e+000 -6.306469e+001 0.000000e+000
         vertex -4.140029e+000 -6.336489e+001 0.000000e+000
      endloop
   endfacet
   facet normal -8.245335e-002 -9.965950e-001 0.000000e+000
      outer loop
         vertex -7.422601e+000 -6.306469e+001 2.540000e+001
         vertex -4.140029e+000 -6.336489e+001 0.000000e+000
         vertex -4.140029e+000 -6.336489e+001 2.540000e+001
      endloop
   endfacet
   facet normal -4.792174e-002 -9.988511e-001 0.000000e+000
      outer loop
         vertex -4.140029e+000 -6.336489e+001 2.540000e+001
         vertex -4.140029e+000 -6.336489e+001 0.000000e+000
         vertex -8.463010e-001 -6.349436e+001 0.000000e+000
      endloop
   endfacet
   facet normal -3.062665e-002 -9.995309e-001 0.000000e+000
      outer loop
         vertex -4.140029e+000 -6.336489e+001 2.540000e+001
         vertex -8.463010e-001 -6.349436e+001 0.000000e+000
         vertex -8.463010e-001 -6.349436e+001 2.540000e+001
      endloop
   endfacet
   facet normal 3.975496e-003 -9.999921e-001 0.000000e+000
      outer loop
         vertex -8.463010e-001 -6.349436e+001 2.540000e+001
         vertex -8.463010e-001 -6.349436e+001 0.000000e+000
         vertex 2.449707e+000 -6.345273e+001 0.000000e+000
      endloop
   endfacet
   facet normal 2.128256e-002 -9.997735e-001 0.000000e+000
      outer loop
         vertex -8.463010e-001 -6.349436e+001 2.540000e+001
         vertex 2.449707e+000 -6.345273e+001 0.000000e+000
         vertex 2.449707e+000 -6.345273e+001 2.540000e+001
      endloop
   endfacet
   facet normal 5.586203e-002 -9.984385e-001 0.000000e+000
      outer loop
         vertex 2.449707e+000 -6.345273e+001 2.540000e+001
         vertex 2.449707e+000 -6.345273e+001 0.000000e+000
         vertex 5.739115e+000 -6.324012e+001 0.000000e+000
      endloop
   endfacet
   facet normal 7.313442e-002 -9.973221e-001 0.000000e+000
      outer loop
         vertex 2.449707e+000 -6.345273e+001 2.540000e+001
         vertex 5.739115e+000 -6.324012e+001 0.000000e+000
         vertex 5.739115e+000 -6.324012e+001 2.540000e+001
      endloop
   endfacet
   facet normal 1.075980e-001 -9.941945e-001 0.000000e+000
      outer loop
         vertex 5.739115e+000 -6.324012e+001 2.540000e+001
         vertex 5.739115e+000 -6.324012e+001 0.000000e+000
         vertex 9.013057e+000 -6.285710e+001 0.000000e+000
      endloop
   endfacet
   facet normal 1.247892e-001 -9.921833e-001 0.000000e+000
      outer loop
         vertex 5.739115e+000 -6.324012e+001 2.540000e+001
         vertex 9.013057e+000 -6.285710e+001 0.000000e+000
         vertex 9.013057e+000 -6.285710e+001 2.540000e+001
      endloop
   endfacet
   facet normal -1.230726e-001 9.923977e-001 0.000000e+000
      outer loop
         vertex 7.210445e+000 -5.028568e+001 2.540000e+001
         vertex 7.210445e+000 -5.028568e+001 0.000000e+000
         vertex 4.328579e+000 -5.061525e+001 0.000000e+000
      endloop
   endfacet
   facet normal -1.041559e-001 9.945610e-001 0.000000e+000
      outer loop
         vertex 7.210445e+000 -5.028568e+001 2.540000e+001
         vertex 4.328579e+000 -5.061525e+001 0.000000e+000
         vertex 4.328579e+000 -5.061525e+001 2.540000e+001
      endloop
   endfacet
   facet normal -6.622975e-002 9.978044e-001 0.000000e+000
      outer loop
         vertex 4.328579e+000 -5.061525e+001 2.540000e+001
         vertex 4.328579e+000 -5.061525e+001 0.000000e+000
         vertex 1.432600e+000 -5.077980e+001 0.000000e+000
      endloop
   endfacet
   facet normal -4.722038e-002 9.988845e-001 0.000000e+000
      outer loop
         vertex 4.328579e+000 -5.061525e+001 2.540000e+001
         vertex 1.432600e+000 -5.077980e+001 0.000000e+000
         vertex 1.432600e+000 -5.077980e+001 2.540000e+001
      endloop
   endfacet
   facet normal -9.170967e-003 9.999580e-001 0.000000e+000
      outer loop
         vertex 1.432600e+000 -5.077980e+001 2.540000e+001
         vertex 1.432600e+000 -5.077980e+001 0.000000e+000
         vertex -1.468050e+000 -5.077879e+001 0.000000e+000
      endloop
   endfacet
   facet normal 9.869068e-003 9.999513e-001 0.000000e+000
      outer loop
         vertex 1.432600e+000 -5.077980e+001 2.540000e+001
         vertex -1.468050e+000 -5.077879e+001 0.000000e+000
         vertex -1.468050e+000 -5.077879e+001 2.540000e+001
      endloop
   endfacet
   facet normal 4.791772e-002 9.988513e-001 0.000000e+000
      outer loop
         vertex -1.468050e+000 -5.077879e+001 2.540000e+001
         vertex -1.468050e+000 -5.077879e+001 0.000000e+000
         vertex -4.363914e+000 -5.061221e+001 0.000000e+000
      endloop
   endfacet
   facet normal 6.692633e-002 9.977579e-001 0.000000e+000
      outer loop
         vertex -1.468050e+000 -5.077879e+001 2.540000e+001
         vertex -4.363914e+000 -5.061221e+001 0.000000e+000
         vertex -4.363914e+000 -5.061221e+001 2.540000e+001
      endloop
   endfacet
   facet normal 1.048502e-001 9.944880e-001 0.000000e+000
      outer loop
         vertex -4.363914e+000 -5.061221e+001 2.540000e+001
         vertex -4.363914e+000 -5.061221e+001 0.000000e+000
         vertex -7.245550e+000 -5.028064e+001 0.000000e+000
      endloop
   endfacet
   facet normal 1.237654e-001 9.923115e-001 0.000000e+000
      outer loop
         vertex -4.363914e+000 -5.061221e+001 2.540000e+001
         vertex -7.245550e+000 -5.028064e+001 0.000000e+000
         vertex -7.245550e+000 -5.028064e+001 2.540000e+001
      endloop
   endfacet
   facet normal 1.614408e-001 9.868824e-001 0.000000e+000
      outer loop
         vertex -7.245550e+000 -5.028064e+001 2.540000e+001
         vertex -7.245550e+000 -5.028064e+001 0.000000e+000
         vertex -1.010356e+001 -4.978512e+001 0.000000e+000
      endloop
   endfacet
   facet normal 1.802009e-001 9.836298e-001 0.000000e+000
      outer loop
         vertex -7.245550e+000 -5.028064e+001 2.540000e+001
         vertex -1.010356e+001 -4.978512e+001 0.000000e+000
         vertex -1.010356e+001 -4.978512e+001 2.540000e+001
      endloop
   endfacet
   facet normal 2.175051e-001 9.760592e-001 0.000000e+000
      outer loop
         vertex -1.010356e+001 -4.978512e+001 2.540000e+001
         vertex -1.010356e+001 -4.978512e+001 0.000000e+000
         vertex -1.292863e+001 -4.912729e+001 0.000000e+000
      endloop
   endfacet
   facet normal 2.360490e-001 9.717411e-001 0.000000e+000
      outer loop
         vertex -1.010356e+001 -4.978512e+001 2.540000e+001
         vertex -1.292863e+001 -4.912729e+001 0.000000e+000
         vertex -1.292863e+001 -4.912729e+001 2.540000e+001
      endloop
   endfacet
   facet normal 2.728602e-001 9.620537e-001 0.000000e+000
      outer loop
         vertex -1.292863e+001 -4.912729e+001 2.540000e+001
         vertex -1.292863e+001 -4.912729e+001 0.000000e+000
         vertex -1.571156e+001 -4.830928e+001 0.000000e+000
      endloop
   endfacet
   facet normal 2.911274e-001 9.566843e-001 0.000000e+000
      outer loop
         vertex -1.292863e+001 -4.912729e+001 2.540000e+001
         vertex -1.571156e+001 -4.830928e+001 0.000000e+000
         vertex -1.571156e+001 -4.830928e+001 2.540000e+001
      endloop
   endfacet
   facet normal 3.273257e-001 9.449116e-001 0.000000e+000
      outer loop
         vertex -1.571156e+001 -4.830928e+001 2.540000e+001
         vertex -1.571156e+001 -4.830928e+001 0.000000e+000
         vertex -1.844325e+001 -4.733378e+001 0.000000e+000
      endloop
   endfacet
   facet normal 3.452567e-001 9.385083e-001 0.000000e+000
      outer loop
         vertex -1.571156e+001 -4.830928e+001 2.540000e+001
         vertex -1.844325e+001 -4.733378e+001 0.000000e+000
         vertex -1.844325e+001 -4.733378e+001 2.540000e+001
      endloop
   endfacet
   facet normal 3.807240e-001 9.246888e-001 0.000000e+000
      outer loop
         vertex -1.844325e+001 -4.733378e+001 2.540000e+001
         vertex -1.844325e+001 -4.733378e+001 0.000000e+000
         vertex -2.111481e+001 -4.620395e+001 0.000000e+000
      endloop
   endfacet
   facet normal 3.982603e-001 9.172724e-001 0.000000e+000
      outer loop
         vertex -1.844325e+001 -4.733378e+001 2.540000e+001
         vertex -2.111481e+001 -4.620395e+001 0.000000e+000
         vertex -2.111481e+001 -4.620395e+001 2.540000e+001
      endloop
   endfacet
   facet normal 9.898756e-001 1.419379e-001 0.000000e+000
      outer loop
         vertex 7.210445e+000 -5.028568e+001 0.000000e+000
         vertex 7.210445e+000 -5.028568e+001 2.540000e+001
         vertex 9.013057e+000 -6.285710e+001 0.000000e+000
      endloop
   endfacet
   facet normal 9.898756e-001 1.419379e-001 0.000000e+000
      outer loop
         vertex 9.013057e+000 -6.285710e+001 0.000000e+000
         vertex 7.210445e+000 -5.028568e+001 2.540000e+001
         vertex 9.013057e+000 -6.285710e+001 2.540000e+001
      endloop
   endfacet
   facet normal -9.095265e-001 4.156459e-001 0.000000e+000
      outer loop
         vertex -2.111481e+001 -4.620395e+001 0.000000e+000
         vertex -2.639352e+001 -5.775493e+001 0.000000e+000
         vertex -2.111481e+001 -4.620395e+001 2.540000e+001
      endloop
   endfacet
   facet normal -9.095265e-001 4.156459e-001 0.000000e+000
      outer loop
         vertex -2.111481e+001 -4.620395e+001 2.540000e+001
         vertex -2.639352e+001 -5.775493e+001 0.000000e+000
         vertex -2.639352e+001 -5.775493e+001 2.540000e+001
      endloop
   endfacet
endsolid