solid 4
   facet normal 0.000000e+000 0.000000e+000 1.000000e+000
      outer loop
         vertex 7.210445e+000 -5.028568e+001 2.540000e+001
         vertex 9.013057e+000 -6.285710e+001 2.540000e+001
         vertex 1.006880e+001 -4.979216e+001 2.540000e+001
      endloop
   endfacet
   facet normal 0.000000e+000 0.000000e+000 1.000000e+000
      outer loop
         vertex 1.006880e+001 -4.979216e+001 2.540000e+001
         vertex 9.013057e+000 -6.285710e+001 2.540000e+001
         vertex 1.226271e+001 -6.230470e+001 2.540000e+001
      endloop
   endfacet
   facet normal 0.000000e+000 0.000000e+000 1.000000e+000
      outer loop
         vertex 1.006880e+001 -4.979216e+001 2.540000e+001
         vertex 1.226271e+001 -6.230470e+001 2.540000e+001
         vertex 1.289433e+001 -4.913630e+001 2.540000e+001
      endloop
   endfacet
   facet normal 0.000000e+000 0.000000e+000 1.000000e+000
      outer loop
         vertex 1.289433e+001 -4.913630e+001 2.540000e+001
         vertex 1.226271e+001 -6.230470e+001 2.540000e+001
         vertex 1.547932e+001 -6.158442e+001 2.540000e+001
      endloop
   endfacet
   facet normal 0.000000e+000 0.000000e+000 1.000000e+000
      outer loop
         vertex 1.289433e+001 -4.913630e+001 2.540000e+001
         vertex 1.547932e+001 -6.158442e+001 2.540000e+001
         vertex 1.567782e+001 -4.832024e+001 2.540000e+001
      endloop
   endfacet
   facet normal 0.000000e+000 0.000000e+000 1.000000e+000
      outer loop
         vertex 1.567782e+001 -4.832024e+001 2.540000e+001
         vertex 1.547932e+001 -6.158442e+001 2.540000e+001
         vertex 1.865423e+001 -6.069818e+001 2.540000e+001
      endloop
   endfacet
   facet normal 0.000000e+000 0.000000e+000 1.000000e+000
      outer loop
         vertex 1.567782e+001 -4.832024e+001 2.540000e+001
         vertex 1.865423e+001 -6.069818e+001 2.540000e+001
         vertex 1.841020e+001 -4.734665e+001 2.540000e+001
      endloop
   endfacet
   facet normal 0.000000e+000 0.000000e+000 1.000000e+000
      outer loop
         vertex 1.865423e+001 -6.069818e+001 2.540000e+001
         vertex 2.177886e+001 -5.964840e+001 2.540000e+001
         vertex 1.841020e+001 -4.734665e+001 2.540000e+001
      endloop
   endfacet
   facet normal 0.000000e+000 0.000000e+000 1.000000e+000
      outer loop
         vertex 1.841020e+001 -4.734665e+001 2.540000e+001
         vertex 2.177886e+001 -5.964840e+001 2.540000e+001
         vertex 2.484481e+001 -5.843788e+001 2.540000e+001
      endloop
   endfacet
   facet normal 0.000000e+000 0.000000e+000 1.000000e+000
      outer loop
         vertex 1.841020e+001 -4.734665e+001 2.540000e+001
         vertex 2.484481e+001 -5.843788e+001 2.540000e+001
         vertex 2.108255e+001 -4.621867e+001 2.540000e+001
      endloop
   endfacet
   facet normal 0.000000e+000 0.000000e+000 1.000000e+000
      outer loop
         vertex 2.108255e+001 -4.621867e+001 2.540000e+001
         vertex 2.484481e+001 -5.843788e+001 2.540000e+001
         vertex 2.784381e+001 -5.706989e+001 2.540000e+001
      endloop
   endfacet
   facet normal 0.000000e+000 0.000000e+000 1.000000e+000
      outer loop
         vertex 2.108255e+001 -4.621867e+001 2.540000e+001
         vertex 2.784381e+001 -5.706989e+001 2.540000e+001
         vertex 2.368617e+001 -4.494002e+001 2.540000e+001
      endloop
   endfacet
   facet normal 0.000000e+000 0.000000e+000 1.000000e+000
      outer loop
         vertex 2.368617e+001 -4.494002e+001 2.540000e+001
         vertex 2.784381e+001 -5.706989e+001 2.540000e+001
         vertex 3.076779e+001 -5.554811e+001 2.540000e+001
      endloop
   endfacet
   facet normal 0.000000e+000 0.000000e+000 1.000000e+000
      outer loop
         vertex 2.368617e+001 -4.494002e+001 2.540000e+001
         vertex 3.076779e+001 -5.554811e+001 2.540000e+001
         vertex 2.621256e+001 -4.351485e+001 2.540000e+001
      endloop
   endfacet
   facet normal 0.000000e+000 0.000000e+000 1.000000e+000
      outer loop
         vertex 2.621256e+001 -4.351485e+001 2.540000e+001
         vertex 3.076779e+001 -5.554811e+001 2.540000e+001
         vertex 3.360885e+001 -5.387666e+001 2.540000e+001
      endloop
   endfacet
   facet normal 0.000000e+000 0.000000e+000 1.000000e+000
      outer loop
         vertex 2.621256e+001 -4.351485e+001 2.540000e+001
         vertex 3.360885e+001 -5.387666e+001 2.540000e+001
         vertex 2.865349e+001 -4.194780e+001 2.540000e+001
      endloop
   endfacet
   facet normal 0.000000e+000 0.000000e+000 1.000000e+000
      outer loop
         vertex 2.865349e+001 -4.194780e+001 2.540000e+001
         vertex 3.360885e+001 -5.387666e+001 2.540000e+001
         vertex 3.635935e+001 -5.206004e+001 2.540000e+001
      endloop
   endfacet
   facet normal 0.000000e+000 0.000000e+000 1.000000e+000
      outer loop
         vertex 2.865349e+001 -4.194780e+001 2.540000e+001
         vertex 3.635935e+001 -5.206004e+001 2.540000e+001
         vertex 3.100099e+001 -4.024399e+001 2.540000e+001
      endloop
   endfacet
   facet normal 0.000000e+000 0.000000e+000 1.000000e+000
      outer loop
         vertex 3.100099e+001 -4.024399e+001 2.540000e+001
         vertex 3.635935e+001 -5.206004e+001 2.540000e+001
         vertex 3.901188e+001 -5.010312e+001 2.540000e+001
      endloop
   endfacet
   facet normal 0.000000e+000 0.000000e+000 1.000000e+000
      outer loop
         vertex 3.100099e+001 -4.024399e+001 2.540000e+001
         vertex 3.901188e+001 -5.010312e+001 2.540000e+001
         vertex 3.324743e+001 -3.840897e+001 2.540000e+001
      endloop
   endfacet
   facet normal 0.000000e+000 0.000000e+000 1.000000e+000
      outer loop
         vertex 3.324743e+001 -3.840897e+001 2.540000e+001
         vertex 3.901188e+001 -5.010312e+001 2.540000e+001
         vertex 4.155929e+001 -4.801121e+001 2.540000e+001
      endloop
   endfacet
   facet normal 0.000000e+000 0.000000e+000 -1.000000e+000
      outer loop
         vertex 9.013057e+000 -6.285710e+001 0.000000e+000
         vertex 7.210445e+000 -5.028568e+001 0.000000e+000
         vertex 1.226271e+001 -6.230470e+001 0.000000e+000
      endloop
   endfacet
   facet normal 0.000000e+000 0.000000e+000 -1.000000e+000
      outer loop
         vertex 1.226271e+001 -6.230470e+001 0.000000e+000
         vertex 7.210445e+000 -5.028568e+001 0.000000e+000
         vertex 1.006880e+001 -4.979216e+001 0.000000e+000
      endloop
   endfacet
   facet normal 0.000000e+000 0.000000e+000 -1.000000e+000
      outer loop
         vertex 1.226271e+001 -6.230470e+001 0.000000e+000
         vertex 1.006880e+001 -4.979216e+001 0.000000e+000
         vertex 1.547932e+001 -6.158442e+001 0.000000e+000
      endloop
   endfacet
   facet normal 0.000000e+000 0.000000e+000 -1.000000e+000
      outer loop
         vertex 1.547932e+001 -6.158442e+001 0.000000e+000
         vertex 1.006880e+001 -4.979216e+001 0.000000e+000
         vertex 1.289433e+001 -4.913630e+001 0.000000e+000
      endloop
   endfacet
   facet normal 0.000000e+000 0.000000e+000 -1.000000e+000
      outer loop
         vertex 1.547932e+001 -6.158442e+001 0.000000e+000
         vertex 1.289433e+001 -4.913630e+001 0.000000e+000
         vertex 1.865423e+001 -6.069818e+001 0.000000e+000
      endloop
   endfacet
   facet normal 0.000000e+000 0.000000e+000 -1.000000e+000
      outer loop
         vertex 1.865423e+001 -6.069818e+001 0.000000e+000
         vertex 1.289433e+001 -4.913630e+001 0.000000e+000
         vertex 1.567782e+001 -4.832024e+001 0.000000e+000
      endloop
   endfacet
   facet normal 0.000000e+000 0.000000e+000 -1.000000e+000
      outer loop
         vertex 1.865423e+001 -6.069818e+001 0.000000e+000
         vertex 1.567782e+001 -4.832024e+001 0.000000e+000
         vertex 2.177886e+001 -5.964840e+001 0.000000e+000
      endloop
   endfacet
   facet normal 0.000000e+000 0.000000e+000 -1.000000e+000
      outer loop
         vertex 2.177886e+001 -5.964840e+001 0.000000e+000
         vertex 1.567782e+001 -4.832024e+001 0.000000e+000
         vertex 1.841020e+001 -4.734665e+001 0.000000e+000
      endloop
   endfacet
   facet normal 0.000000e+000 0.000000e+000 -1.000000e+000
      outer loop
         vertex 2.177886e+001 -5.964840e+001 0.000000e+000
         vertex 1.841020e+001 -4.734665e+001 0.000000e+000
         vertex 2.484481e+001 -5.843788e+001 0.000000e+000
      endloop
   endfacet
   facet normal 0.000000e+000 0.000000e+000 -1.000000e+000
      outer loop
         vertex 2.484481e+001 -5.843788e+001 0.000000e+000
         vertex 1.841020e+001 -4.734665e+001 0.000000e+000
         vertex 2.108255e+001 -4.621867e+001 0.000000e+000
      endloop
   endfacet
   facet normal 0.000000e+000 0.000000e+000 -1.000000e+000
      outer loop
         vertex 3.324743e+001 -3.840897e+001 0.000000e+000
         vertex 4.155929e+001 -4.801121e+001 0.000000e+000
         vertex 3.100099e+001 -4.024399e+001 0.000000e+000
      endloop
   endfacet
   facet normal 0.000000e+000 0.000000e+000 -1.000000e+000
      outer loop
         vertex 3.100099e+001 -4.024399e+001 0.000000e+000
         vertex 4.155929e+001 -4.801121e+001 0.000000e+000
         vertex 3.901188e+001 -5.010312e+001 0.000000e+000
      endloop
   endfacet
   facet normal 0.000000e+000 0.000000e+000 -1.000000e+000
      outer loop
         vertex 3.100099e+001 -4.024399e+001 0.000000e+000
         vertex 3.901188e+001 -5.010312e+001 0.000000e+000
         vertex 2.865349e+001 -4.194780e+001 0.000000e+000
      endloop
   endfacet
   facet normal 0.000000e+000 0.000000e+000 -1.000000e+000
      outer loop
         vertex 2.865349e+001 -4.194780e+001 0.000000e+000
         vertex 3.901188e+001 -5.010312e+001 0.000000e+000
         vertex 3.635935e+001 -5.206004e+001 0.000000e+000
      endloop
   endfacet
   facet normal 0.000000e+000 0.000000e+000 -1.000000e+000
      outer loop
         vertex 2.865349e+001 -4.194780e+001 0.000000e+000
         vertex 3.635935e+001 -5.206004e+001 0.000000e+000
         vertex 2.621256e+001 -4.351485e+001 0.000000e+000
      endloop
   endfacet
   facet normal 0.000000e+000 0.000000e+000 -1.000000e+000
      outer loop
         vertex 2.621256e+001 -4.351485e+001 0.000000e+000
         vertex 3.635935e+001 -5.206004e+001 0.000000e+000
         vertex 3.360885e+001 -5.387666e+001 0.000000e+000
      endloop
   endfacet
   facet normal 0.000000e+000 0.000000e+000 -1.000000e+000
      outer loop
         vertex 2.621256e+001 -4.351485e+001 0.000000e+000
         vertex 3.360885e+001 -5.387666e+001 0.000000e+000
         vertex 2.368617e+001 -4.494002e+001 0.000000e+000
      endloop
   endfacet
   facet normal 0.000000e+000 0.000000e+000 -1.000000e+000
      outer loop
         vertex 2.368617e+001 -4.494002e+001 0.000000e+000
         vertex 3.360885e+001 -5.387666e+001 0.000000e+000
         vertex 3.076779e+001 -5.554811e+001 0.000000e+000
      endloop
   endfacet
   facet normal 0.000000e+000 0.000000e+000 -1.000000e+000
      outer loop
         vertex 2.368617e+001 -4.494002e+001 0.000000e+000
         vertex 3.076779e+001 -5.554811e+001 0.000000e+000
         vertex 2.108255e+001 -4.621867e+001 0.000000e+000
      endloop
   endfacet
   facet normal 0.000000e+000 0.000000e+000 -1.000000e+000
      outer loop
         vertex 2.108255e+001 -4.621867e+001 0.000000e+000
         vertex 3.076779e+001 -5.554811e+001 0.000000e+000
         vertex 2.784381e+001 -5.706989e+001 0.000000e+000
      endloop
   endfacet
   facet normal 0.000000e+000 0.000000e+000 -1.000000e+000
      outer loop
         vertex 2.108255e+001 -4.621867e+001 0.000000e+000
         vertex 2.784381e+001 -5.706989e+001 0.000000e+000
         vertex 2.484481e+001 -5.843788e+001 0.000000e+000
      endloop
   endfacet
   facet normal 1.590441e-001 -9.872715e-001 0.000000e+000
      outer loop
         vertex 9.013057e+000 -6.285710e+001 2.540000e+001
         vertex 9.013057e+000 -6.285710e+001 0.000000e+000
         vertex 1.226271e+001 -6.230470e+001 0.000000e+000
      endloop
   endfacet
   facet normal 1.761078e-001 -9.843709e-001 0.000000e+000
      outer loop
         vertex 9.013057e+000 -6.285710e+001 2.540000e+001
         vertex 1.226271e+001 -6.230470e+001 0.000000e+000
         vertex 1.226271e+001 -6.230470e+001 2.540000e+001
      endloop
   endfacet
   facet normal 2.100616e-001 -9.776881e-001 0.000000e+000
      outer loop
         vertex 1.226271e+001 -6.230470e+001 2.540000e+001
         vertex 1.226271e+001 -6.230470e+001 0.000000e+000
         vertex 1.547932e+001 -6.158442e+001 0.000000e+000
      endloop
   endfacet
   facet normal 2.269518e-001 -9.739060e-001 0.000000e+000
      outer loop
         vertex 1.226271e+001 -6.230470e+001 2.540000e+001
         vertex 1.547932e+001 -6.158442e+001 0.000000e+000
         vertex 1.547932e+001 -6.158442e+001 2.540000e+001
      endloop
   endfacet
   facet normal 2.605131e-001 -9.654703e-001 0.000000e+000
      outer loop
         vertex 1.547932e+001 -6.158442e+001 2.540000e+001
         vertex 1.547932e+001 -6.158442e+001 0.000000e+000
         vertex 1.865423e+001 -6.069818e+001 0.000000e+000
      endloop
   endfacet
   facet normal 2.771842e-001 -9.608168e-001 0.000000e+000
      outer loop
         vertex 1.547932e+001 -6.158442e+001 2.540000e+001
         vertex 1.865423e+001 -6.069818e+001 0.000000e+000
         vertex 1.865423e+001 -6.069818e+001 2.540000e+001
      endloop
   endfacet
   facet normal 3.102625e-001 -9.506509e-001 0.000000e+000
      outer loop
         vertex 1.865423e+001 -6.069818e+001 2.540000e+001
         vertex 1.865423e+001 -6.069818e+001 0.000000e+000
         vertex 2.177886e+001 -5.964840e+001 0.000000e+000
      endloop
   endfacet
   facet normal 3.266697e-001 -9.451385e-001 0.000000e+000
      outer loop
         vertex 1.865423e+001 -6.069818e+001 2.540000e+001
         vertex 2.177886e+001 -5.964840e+001 0.000000e+000
         vertex 2.177886e+001 -5.964840e+001 2.540000e+001
      endloop
   endfacet
   facet normal 3.591760e-001 -9.332699e-001 0.000000e+000
      outer loop
         vertex 2.177886e+001 -5.964840e+001 2.540000e+001
         vertex 2.177886e+001 -5.964840e+001 0.000000e+000
         vertex 2.484481e+001 -5.843788e+001 0.000000e+000
      endloop
   endfacet
   facet normal 3.752750e-001 -9.269135e-001 0.000000e+000
      outer loop
         vertex 2.177886e+001 -5.964840e+001 2.540000e+001
         vertex 2.484481e+001 -5.843788e+001 0.000000e+000
         vertex 2.484481e+001 -5.843788e+001 2.540000e+001
      endloop
   endfacet
   facet normal 4.071216e-001 -9.133739e-001 0.000000e+000
      outer loop
         vertex 2.484481e+001 -5.843788e+001 2.540000e+001
         vertex 2.484481e+001 -5.843788e+001 0.000000e+000
         vertex 2.784381e+001 -5.706989e+001 0.000000e+000
      endloop
   endfacet
   facet normal 4.228691e-001 -9.061908e-001 0.000000e+000
      outer loop
         vertex 2.484481e+001 -5.843788e+001 2.540000e+001
         vertex 2.784381e+001 -5.706989e+001 0.000000e+000
         vertex 2.784381e+001 -5.706989e+001 2.540000e+001
      endloop
   endfacet
   facet normal 4.539701e-001 -8.910169e-001 0.000000e+000
      outer loop
         vertex 2.784381e+001 -5.706989e+001 2.540000e+001
         vertex 2.784381e+001 -5.706989e+001 0.000000e+000
         vertex 3.076779e+001 -5.554811e+001 0.000000e+000
      endloop
   endfacet
   facet normal 4.693237e-001 -8.830262e-001 0.000000e+000
      outer loop
         vertex 2.784381e+001 -5.706989e+001 2.540000e+001
         vertex 3.076779e+001 -5.554811e+001 0.000000e+000
         vertex 3.076779e+001 -5.554811e+001 2.540000e+001
      endloop
   endfacet
   facet normal 4.995954e-001 -8.662589e-001 0.000000e+000
      outer loop
         vertex 3.076779e+001 -5.554811e+001 2.540000e+001
         vertex 3.076779e+001 -5.554811e+001 0.000000e+000
         vertex 3.360885e+001 -5.387666e+001 0.000000e+000
      endloop
   endfacet
   facet normal 5.145136e-001 -8.574823e-001 0.000000e+000
      outer loop
         vertex 3.076779e+001 -5.554811e+001 2.540000e+001
         vertex 3.360885e+001 -5.387666e+001 0.000000e+000
         vertex 3.360885e+001 -5.387666e+001 2.540000e+001
      endloop
   endfacet
   facet normal 5.438744e-001 -8.391666e-001 0.000000e+000
      outer loop
         vertex 3.360885e+001 -5.387666e+001 2.540000e+001
         vertex 3.360885e+001 -5.387666e+001 0.000000e+000
         vertex 3.635935e+001 -5.206004e+001 0.000000e+000
      endloop
   endfacet
   facet normal 5.583171e-001 -8.296277e-001 0.000000e+000
      outer loop
         vertex 3.360885e+001 -5.387666e+001 2.540000e+001
         vertex 3.635935e+001 -5.206004e+001 0.000000e+000
         vertex 3.635935e+001 -5.206004e+001 2.540000e+001
      endloop
   endfacet
   facet normal 5.866880e-001 -8.098131e-001 0.000000e+000
      outer loop
         vertex 3.635935e+001 -5.206004e+001 2.540000e+001
         vertex 3.635935e+001 -5.206004e+001 0.000000e+000
         vertex 3.901188e+001 -5.010312e+001 0.000000e+000
      endloop
   endfacet
   facet normal 6.006161e-001 -7.995375e-001 0.000000e+000
      outer loop
         vertex 3.635935e+001 -5.206004e+001 2.540000e+001
         vertex 3.901188e+001 -5.010312e+001 0.000000e+000
         vertex 3.901188e+001 -5.010312e+001 2.540000e+001
      endloop
   endfacet
   facet normal 6.279206e-001 -7.782775e-001 0.000000e+000
      outer loop
         vertex 3.901188e+001 -5.010312e+001 2.540000e+001
         vertex 3.901188e+001 -5.010312e+001 0.000000e+000
         vertex 4.155929e+001 -4.801121e+001 0.000000e+000
      endloop
   endfacet
   facet normal 6.412967e-001 -7.672930e-001 0.000000e+000
      outer loop
         vertex 3.901188e+001 -5.010312e+001 2.540000e+001
         vertex 4.155929e+001 -4.801121e+001 0.000000e+000
         vertex 4.155929e+001 -4.801121e+001 2.540000e+001
      endloop
   endfacet
   facet normal -6.399685e-001 7.684012e-001 0.000000e+000
      outer loop
         vertex 3.324743e+001 -3.840897e+001 2.540000e+001
         vertex 3.324743e+001 -3.840897e+001 0.000000e+000
         vertex 3.100099e+001 -4.024399e+001 0.000000e+000
      endloop
   endfacet
   facet normal -6.252227e-001 7.804464e-001 0.000000e+000
      outer loop
         vertex 3.324743e+001 -3.840897e+001 2.540000e+001
         vertex 3.100099e+001 -4.024399e+001 0.000000e+000
         vertex 3.100099e+001 -4.024399e+001 2.540000e+001
      endloop
   endfacet
   facet normal -5.950678e-001 8.036755e-001 0.000000e+000
      outer loop
         vertex 3.100099e+001 -4.024399e+001 2.540000e+001
         vertex 3.100099e+001 -4.024399e+001 0.000000e+000
         vertex 2.865349e+001 -4.194780e+001 0.000000e+000
      endloop
   endfacet
   facet normal -5.796586e-001 8.148594e-001 0.000000e+000
      outer loop
         vertex 3.100099e+001 -4.024399e+001 2.540000e+001
         vertex 2.865349e+001 -4.194780e+001 0.000000e+000
         vertex 2.865349e+001 -4.194780e+001 2.540000e+001
      endloop
   endfacet
   facet normal -5.482271e-001 8.363295e-001 0.000000e+000
      outer loop
         vertex 2.865349e+001 -4.194780e+001 2.540000e+001
         vertex 2.865349e+001 -4.194780e+001 0.000000e+000
         vertex 2.621256e+001 -4.351485e+001 0.000000e+000
      endloop
   endfacet
   facet normal -5.322046e-001 8.466158e-001 0.000000e+000
      outer loop
         vertex 2.865349e+001 -4.194780e+001 2.540000e+001
         vertex 2.621256e+001 -4.351485e+001 0.000000e+000
         vertex 2.621256e+001 -4.351485e+001 2.540000e+001
      endloop
   endfacet
   facet normal -4.995989e-001 8.662569e-001 0.000000e+000
      outer loop
         vertex 2.621256e+001 -4.351485e+001 2.540000e+001
         vertex 2.621256e+001 -4.351485e+001 0.000000e+000
         vertex 2.368617e+001 -4.494002e+001 0.000000e+000
      endloop
   endfacet
   facet normal -4.830155e-001 8.756118e-001 0.000000e+000
      outer loop
         vertex 2.621256e+001 -4.351485e+001 2.540000e+001
         vertex 2.368617e+001 -4.494002e+001 0.000000e+000
         vertex 2.368617e+001 -4.494002e+001 2.540000e+001
      endloop
   endfacet
   facet normal -4.493419e-001 8.933600e-001 0.000000e+000
      outer loop
         vertex 2.368617e+001 -4.494002e+001 2.540000e+001
         vertex 2.368617e+001 -4.494002e+001 0.000000e+000
         vertex 2.108255e+001 -4.621867e+001 0.000000e+000
      endloop
   endfacet
   facet normal -4.322515e-001 9.017531e-001 0.000000e+000
      outer loop
         vertex 2.368617e+001 -4.494002e+001 2.540000e+001
         vertex 2.108255e+001 -4.621867e+001 0.000000e+000
         vertex 2.108255e+001 -4.621867e+001 2.540000e+001
      endloop
   endfacet
   facet normal -3.976198e-001 9.175503e-001 0.000000e+000
      outer loop
         vertex 2.108255e+001 -4.621867e+001 2.540000e+001
         vertex 2.108255e+001 -4.621867e+001 0.000000e+000
         vertex 1.841020e+001 -4.734665e+001 0.000000e+000
      endloop
   endfacet
   facet normal -3.800783e-001 9.249543e-001 0.000000e+000
      outer loop
         vertex 2.108255e+001 -4.621867e+001 2.540000e+001
         vertex 1.841020e+001 -4.734665e+001 0.000000e+000
         vertex 1.841020e+001 -4.734665e+001 2.540000e+001
      endloop
   endfacet
   facet normal -3.446014e-001 9.387491e-001 0.000000e+000
      outer loop
         vertex 1.841020e+001 -4.734665e+001 2.540000e+001
         vertex 1.841020e+001 -4.734665e+001 0.000000e+000
         vertex 1.567782e+001 -4.832024e+001 0.000000e+000
      endloop
   endfacet
   facet normal -3.266659e-001 9.451399e-001 0.000000e+000
      outer loop
         vertex 1.841020e+001 -4.734665e+001 2.540000e+001
         vertex 1.567782e+001 -4.832024e+001 0.000000e+000
         vertex 1.567782e+001 -4.832024e+001 2.540000e+001
      endloop
   endfacet
   facet normal -2.904595e-001 9.568873e-001 0.000000e+000
      outer loop
         vertex 1.567782e+001 -4.832024e+001 2.540000e+001
         vertex 1.567782e+001 -4.832024e+001 0.000000e+000
         vertex 1.289433e+001 -4.913630e+001 0.000000e+000
      endloop
   endfacet
   facet normal -2.721885e-001 9.622439e-001 0.000000e+000
      outer loop
         vertex 1.567782e+001 -4.832024e+001 2.540000e+001
         vertex 1.289433e+001 -4.913630e+001 0.000000e+000
         vertex 1.289433e+001 -4.913630e+001 2.540000e+001
      endloop
   endfacet
   facet normal -2.353705e-001 9.719057e-001 0.000000e+000
      outer loop
         vertex 1.289433e+001 -4.913630e+001 2.540000e+001
         vertex 1.289433e+001 -4.913630e+001 0.000000e+000
         vertex 1.006880e+001 -4.979216e+001 0.000000e+000
      endloop
   endfacet
   facet normal -2.168236e-001 9.762108e-001 0.000000e+000
      outer loop
         vertex 1.289433e+001 -4.913630e+001 2.540000e+001
         vertex 1.006880e+001 -4.979216e+001 0.000000e+000
         vertex 1.006880e+001 -4.979216e+001 2.540000e+001
      endloop
   endfacet
   facet normal -1.795142e-001 9.837554e-001 0.000000e+000
      outer loop
         vertex 1.006880e+001 -4.979216e+001 2.540000e+001
         vertex 1.006880e+001 -4.979216e+001 0.000000e+000
         vertex 7.210445e+000 -5.028568e+001 0.000000e+000
      endloop
   endfacet
   facet normal -1.607518e-001 9.869949e-001 0.000000e+000
      outer loop
         vertex 1.006880e+001 -4.979216e+001 2.540000e+001
         vertex 7.210445e+000 -5.028568e+001 0.000000e+000
         vertex 7.210445e+000 -5.028568e+001 2.540000e+001
      endloop
   endfacet
   facet normal 7.560820e-001 6.544769e-001 0.000000e+000
      outer loop
         vertex 3.324743e+001 -3.840897e+001 0.000000e+000
         vertex 3.324743e+001 -3.840897e+001 2.540000e+001
         vertex 4.155929e+001 -4.801121e+001 0.000000e+000
      endloop
   endfacet
   facet normal 7.560820e-001 6.544769e-001 0.000000e+000
      outer loop
         vertex 4.155929e+001 -4.801121e+001 0.000000e+000
         vertex 3.324743e+001 -3.840897e+001 2.540000e+001
         vertex 4.155929e+001 -4.801121e+001 2.540000e+001
      endloop
   endfacet
   facet normal -9.898756e-001 -1.419379e-001 0.000000e+000
      outer loop
         vertex 7.210445e+000 -5.028568e+001 0.000000e+000
         vertex 9.013057e+000 -6.285710e+001 0.000000e+000
         vertex 7.210445e+000 -5.028568e+001 2.540000e+001
      endloop
   endfacet
   facet normal -9.898756e-001 -1.419379e-001 0.000000e+000
      outer loop
         vertex 7.210445e+000 -5.028568e+001 2.540000e+001
         vertex 9.013057e+000 -6.285710e+001 0.000000e+000
         vertex 9.013057e+000 -6.285710e+001 2.540000e+001
      endloop
   endfacet
endsolid