solid 5
   facet normal 0.000000e+000 0.000000e+000 1.000000e+000
      outer loop
         vertex 6.091644e+001 -1.792868e+001 2.540000e+001
         vertex 4.873315e+001 -1.434295e+001 2.540000e+001
         vertex 5.990400e+001 -2.106562e+001 2.540000e+001
      endloop
   endfacet
   facet normal 0.000000e+000 0.000000e+000 1.000000e+000
      outer loop
         vertex 5.990400e+001 -2.106562e+001 2.540000e+001
         vertex 4.873315e+001 -1.434295e+001 2.540000e+001
         vertex 4.783507e+001 -1.710106e+001 2.540000e+001
      endloop
   endfacet
   facet normal 0.000000e+000 0.000000e+000 1.000000e+000
      outer loop
         vertex 5.990400e+001 -2.106562e+001 2.540000e+001
         vertex 4.783507e+001 -1.710106e+001 2.540000e+001
         vertex 5.873015e+001 -2.414580e+001 2.540000e+001
      endloop
   endfacet
   facet normal 0.000000e+000 0.000000e+000 1.000000e+000
      outer loop
         vertex 5.873015e+001 -2.414580e+001 2.540000e+001
         vertex 4.783507e+001 -1.710106e+001 2.540000e+001
         vertex 4.678102e+001 -1.980343e+001 2.540000e+001
      endloop
   endfacet
   facet normal 0.000000e+000 0.000000e+000 1.000000e+000
      outer loop
         vertex 5.873015e+001 -2.414580e+001 2.540000e+001
         vertex 4.678102e+001 -1.980343e+001 2.540000e+001
         vertex 5.739804e+001 -2.716091e+001 2.540000e+001
      endloop
   endfacet
   facet normal 0.000000e+000 0.000000e+000 1.000000e+000
      outer loop
         vertex 5.739804e+001 -2.716091e+001 2.540000e+001
         vertex 4.678102e+001 -1.980343e+001 2.540000e+001
         vertex 4.557446e+001 -2.244123e+001 2.540000e+001
      endloop
   endfacet
   facet normal 0.000000e+000 0.000000e+000 1.000000e+000
      outer loop
         vertex 5.739804e+001 -2.716091e+001 2.540000e+001
         vertex 4.557446e+001 -2.244123e+001 2.540000e+001
         vertex 5.591127e+001 -3.010283e+001 2.540000e+001
      endloop
   endfacet
   facet normal 0.000000e+000 0.000000e+000 1.000000e+000
      outer loop
         vertex 5.591127e+001 -3.010283e+001 2.540000e+001
         vertex 4.557446e+001 -2.244123e+001 2.540000e+001
         vertex 4.421931e+001 -2.500586e+001 2.540000e+001
      endloop
   endfacet
   facet normal 0.000000e+000 0.000000e+000 1.000000e+000
      outer loop
         vertex 5.591127e+001 -3.010283e+001 2.540000e+001
         vertex 4.421931e+001 -2.500586e+001 2.540000e+001
         vertex 5.427383e+001 -3.296363e+001 2.540000e+001
      endloop
   endfacet
   facet normal 0.000000e+000 0.000000e+000 1.000000e+000
      outer loop
         vertex 5.427383e+001 -3.296363e+001 2.540000e+001
         vertex 4.421931e+001 -2.500586e+001 2.540000e+001
         vertex 4.271999e+001 -2.748896e+001 2.540000e+001
      endloop
   endfacet
   facet normal 0.000000e+000 0.000000e+000 1.000000e+000
      outer loop
         vertex 3.324743e+001 -3.840897e+001 2.540000e+001
         vertex 4.155929e+001 -4.801121e+001 2.540000e+001
         vertex 3.538546e+001 -3.644872e+001 2.540000e+001
      endloop
   endfacet
   facet normal 0.000000e+000 0.000000e+000 1.000000e+000
      outer loop
         vertex 3.538546e+001 -3.644872e+001 2.540000e+001
         vertex 4.155929e+001 -4.801121e+001 2.540000e+001
         vertex 4.399470e+001 -4.578991e+001 2.540000e+001
      endloop
   endfacet
   facet normal 0.000000e+000 0.000000e+000 1.000000e+000
      outer loop
         vertex 3.538546e+001 -3.644872e+001 2.540000e+001
         vertex 4.399470e+001 -4.578991e+001 2.540000e+001
         vertex 3.740813e+001 -3.436963e+001 2.540000e+001
      endloop
   endfacet
   facet normal 0.000000e+000 0.000000e+000 1.000000e+000
      outer loop
         vertex 3.740813e+001 -3.436963e+001 2.540000e+001
         vertex 4.399470e+001 -4.578991e+001 2.540000e+001
         vertex 4.631157e+001 -4.344523e+001 2.540000e+001
      endloop
   endfacet
   facet normal 0.000000e+000 0.000000e+000 1.000000e+000
      outer loop
         vertex 3.740813e+001 -3.436963e+001 2.540000e+001
         vertex 4.631157e+001 -4.344523e+001 2.540000e+001
         vertex 3.930883e+001 -3.217849e+001 2.540000e+001
      endloop
   endfacet
   facet normal 0.000000e+000 0.000000e+000 1.000000e+000
      outer loop
         vertex 3.930883e+001 -3.217849e+001 2.540000e+001
         vertex 4.631157e+001 -4.344523e+001 2.540000e+001
         vertex 4.850365e+001 -4.098348e+001 2.540000e+001
      endloop
   endfacet
   facet normal 0.000000e+000 0.000000e+000 1.000000e+000
      outer loop
         vertex 3.930883e+001 -3.217849e+001 2.540000e+001
         vertex 4.850365e+001 -4.098348e+001 2.540000e+001
         vertex 4.108138e+001 -2.988244e+001 2.540000e+001
      endloop
   endfacet
   facet normal 0.000000e+000 0.000000e+000 1.000000e+000
      outer loop
         vertex 4.108138e+001 -2.988244e+001 2.540000e+001
         vertex 4.850365e+001 -4.098348e+001 2.540000e+001
         vertex 5.056503e+001 -3.841130e+001 2.540000e+001
      endloop
   endfacet
   facet normal 0.000000e+000 0.000000e+000 1.000000e+000
      outer loop
         vertex 4.108138e+001 -2.988244e+001 2.540000e+001
         vertex 5.056503e+001 -3.841130e+001 2.540000e+001
         vertex 4.271999e+001 -2.748896e+001 2.540000e+001
      endloop
   endfacet
   facet normal 0.000000e+000 0.000000e+000 1.000000e+000
      outer loop
         vertex 4.271999e+001 -2.748896e+001 2.540000e+001
         vertex 5.056503e+001 -3.841130e+001 2.540000e+001
         vertex 5.249015e+001 -3.573561e+001 2.540000e+001
      endloop
   endfacet
   facet normal 0.000000e+000 0.000000e+000 1.000000e+000
      outer loop
         vertex 4.271999e+001 -2.748896e+001 2.540000e+001
         vertex 5.249015e+001 -3.573561e+001 2.540000e+001
         vertex 5.427383e+001 -3.296363e+001 2.540000e+001
      endloop
   endfacet
   facet normal 0.000000e+000 0.000000e+000 -1.000000e+000
      outer loop
         vertex 4.421931e+001 -2.500586e+001 0.000000e+000
         vertex 5.427383e+001 -3.296363e+001 0.000000e+000
         vertex 4.271999e+001 -2.748896e+001 0.000000e+000
      endloop
   endfacet
   facet normal 0.000000e+000 0.000000e+000 -1.000000e+000
      outer loop
         vertex 4.271999e+001 -2.748896e+001 0.000000e+000
         vertex 5.427383e+001 -3.296363e+001 0.000000e+000
         vertex 5.249015e+001 -3.573561e+001 0.000000e+000
      endloop
   endfacet
   facet normal 0.000000e+000 0.000000e+000 -1.000000e+000
      outer loop
         vertex 4.271999e+001 -2.748896e+001 0.000000e+000
         vertex 5.249015e+001 -3.573561e+001 0.000000e+000
         vertex 4.108138e+001 -2.988244e+001 0.000000e+000
      endloop
   endfacet
   facet normal 0.000000e+000 0.000000e+000 -1.000000e+000
      outer loop
         vertex 4.108138e+001 -2.988244e+001 0.000000e+000
         vertex 5.249015e+001 -3.573561e+001 0.000000e+000
         vertex 5.056503e+001 -3.841130e+001 0.000000e+000
      endloop
   endfacet
   facet normal 0.000000e+000 0.000000e+000 -1.000000e+000
      outer loop
         vertex 4.108138e+001 -2.988244e+001 0.000000e+000
         vertex 5.056503e+001 -3.841130e+001 0.000000e+000
         vertex 3.930883e+001 -3.217849e+001 0.000000e+000
      endloop
   endfacet
   facet normal 0.000000e+000 0.000000e+000 -1.000000e+000
      outer loop
         vertex 3.930883e+001 -3.217849e+001 0.000000e+000
         vertex 5.056503e+001 -3.841130e+001 0.000000e+000
         vertex 4.850365e+001 -4.098348e+001 0.000000e+000
      endloop
   endfacet
   facet normal 0.000000e+000 0.000000e+000 -1.000000e+000
      outer loop
         vertex 3.930883e+001 -3.217849e+001 0.000000e+000
         vertex 4.850365e+001 -4.098348e+001 0.000000e+000
         vertex 3.740813e+001 -3.436963e+001 0.000000e+000
      endloop
   endfacet
   facet normal 0.000000e+000 0.000000e+000 -1.000000e+000
      outer loop
         vertex 3.740813e+001 -3.436963e+001 0.000000e+000
         vertex 4.850365e+001 -4.098348e+001 0.000000e+000
         vertex 4.631157e+001 -4.344523e+001 0.000000e+000
      endloop
   endfacet
   facet normal 0.000000e+000 0.000000e+000 -1.000000e+000
      outer loop
         vertex 3.740813e+001 -3.436963e+001 0.000000e+000
         vertex 4.631157e+001 -4.344523e+001 0.000000e+000
         vertex 3.538546e+001 -3.644872e+001 0.000000e+000
      endloop
   endfacet
   facet normal 0.000000e+000 0.000000e+000 -1.000000e+000
      outer loop
         vertex 3.538546e+001 -3.644872e+001 0.000000e+000
         vertex 4.631157e+001 -4.344523e+001 0.000000e+000
         vertex 4.399470e+001 -4.578991e+001 0.000000e+000
      endloop
   endfacet
   facet normal 0.000000e+000 0.000000e+000 -1.000000e+000
      outer loop
         vertex 3.538546e+001 -3.644872e+001 0.000000e+000
         vertex 4.399470e+001 -4.578991e+001 0.000000e+000
         vertex 3.324743e+001 -3.840897e+001 0.000000e+000
      endloop
   endfacet
   facet normal 0.000000e+000 0.000000e+000 -1.000000e+000
      outer loop
         vertex 3.324743e+001 -3.840897e+001 0.000000e+000
         vertex 4.399470e+001 -4.578991e+001 0.000000e+000
         vertex 4.155929e+001 -4.801121e+001 0.000000e+000
      endloop
   endfacet
   facet normal 0.000000e+000 0.000000e+000 -1.000000e+000
      outer loop
         vertex 4.873315e+001 -1.434295e+001 0.000000e+000
         vertex 6.091644e+001 -1.792868e+001 0.000000e+000
         vertex 4.783507e+001 -1.710106e+001 0.000000e+000
      endloop
   endfacet
   facet normal 0.000000e+000 0.000000e+000 -1.000000e+000
      outer loop
         vertex 4.783507e+001 -1.710106e+001 0.000000e+000
         vertex 6.091644e+001 -1.792868e+001 0.000000e+000
         vertex 5.990400e+001 -2.106562e+001 0.000000e+000
      endloop
   endfacet
   facet normal 0.000000e+000 0.000000e+000 -1.000000e+000
      outer loop
         vertex 4.783507e+001 -1.710106e+001 0.000000e+000
         vertex 5.990400e+001 -2.106562e+001 0.000000e+000
         vertex 4.678102e+001 -1.980343e+001 0.000000e+000
      endloop
   endfacet
   facet normal 0.000000e+000 0.000000e+000 -1.000000e+000
      outer loop
         vertex 4.678102e+001 -1.980343e+001 0.000000e+000
         vertex 5.990400e+001 -2.106562e+001 0.000000e+000
         vertex 5.873015e+001 -2.414580e+001 0.000000e+000
      endloop
   endfacet
   facet normal 0.000000e+000 0.000000e+000 -1.000000e+000
      outer loop
         vertex 4.678102e+001 -1.980343e+001 0.000000e+000
         vertex 5.873015e+001 -2.414580e+001 0.000000e+000
         vertex 4.557446e+001 -2.244123e+001 0.000000e+000
      endloop
   endfacet
   facet normal 0.000000e+000 0.000000e+000 -1.000000e+000
      outer loop
         vertex 4.557446e+001 -2.244123e+001 0.000000e+000
         vertex 5.873015e+001 -2.414580e+001 0.000000e+000
         vertex 5.739804e+001 -2.716091e+001 0.000000e+000
      endloop
   endfacet
   facet normal 0.000000e+000 0.000000e+000 -1.000000e+000
      outer loop
         vertex 4.557446e+001 -2.244123e+001 0.000000e+000
         vertex 5.739804e+001 -2.716091e+001 0.000000e+000
         vertex 4.421931e+001 -2.500586e+001 0.000000e+000
      endloop
   endfacet
   facet normal 0.000000e+000 0.000000e+000 -1.000000e+000
      outer loop
         vertex 4.421931e+001 -2.500586e+001 0.000000e+000
         vertex 5.739804e+001 -2.716091e+001 0.000000e+000
         vertex 5.591127e+001 -3.010283e+001 0.000000e+000
      endloop
   endfacet
   facet normal 0.000000e+000 0.000000e+000 -1.000000e+000
      outer loop
         vertex 4.421931e+001 -2.500586e+001 0.000000e+000
         vertex 5.591127e+001 -3.010283e+001 0.000000e+000
         vertex 5.427383e+001 -3.296363e+001 0.000000e+000
      endloop
   endfacet
   facet normal 6.674612e-001 -7.446446e-001 0.000000e+000
      outer loop
         vertex 4.155929e+001 -4.801121e+001 2.540000e+001
         vertex 4.155929e+001 -4.801121e+001 0.000000e+000
         vertex 4.399470e+001 -4.578991e+001 0.000000e+000
      endloop
   endfacet
   facet normal 6.802493e-001 -7.329808e-001 0.000000e+000
      outer loop
         vertex 4.155929e+001 -4.801121e+001 2.540000e+001
         vertex 4.399470e+001 -4.578991e+001 0.000000e+000
         vertex 4.399470e+001 -4.578991e+001 2.540000e+001
      endloop
   endfacet
   facet normal 7.052032e-001 -7.090053e-001 0.000000e+000
      outer loop
         vertex 4.399470e+001 -4.578991e+001 2.540000e+001
         vertex 4.399470e+001 -4.578991e+001 0.000000e+000
         vertex 4.631157e+001 -4.344523e+001 0.000000e+000
      endloop
   endfacet
   facet normal 7.173688e-001 -6.966936e-001 0.000000e+000
      outer loop
         vertex 4.399470e+001 -4.578991e+001 2.540000e+001
         vertex 4.631157e+001 -4.344523e+001 0.000000e+000
         vertex 4.631157e+001 -4.344523e+001 2.540000e+001
      endloop
   endfacet
   facet normal 7.410450e-001 -6.714554e-001 0.000000e+000
      outer loop
         vertex 4.631157e+001 -4.344523e+001 2.540000e+001
         vertex 4.631157e+001 -4.344523e+001 0.000000e+000
         vertex 4.850365e+001 -4.098348e+001 0.000000e+000
      endloop
   endfacet
   facet normal 7.525554e-001 -6.585290e-001 0.000000e+000
      outer loop
         vertex 4.631157e+001 -4.344523e+001 2.540000e+001
         vertex 4.850365e+001 -4.098348e+001 0.000000e+000
         vertex 4.850365e+001 -4.098348e+001 2.540000e+001
      endloop
   endfacet
   facet normal 7.748899e-001 -6.320962e-001 0.000000e+000
      outer loop
         vertex 4.850365e+001 -4.098348e+001 2.540000e+001
         vertex 4.850365e+001 -4.098348e+001 0.000000e+000
         vertex 5.056503e+001 -3.841130e+001 0.000000e+000
      endloop
   endfacet
   facet normal 7.857140e-001 -6.185899e-001 0.000000e+000
      outer loop
         vertex 4.850365e+001 -4.098348e+001 2.540000e+001
         vertex 5.056503e+001 -3.841130e+001 0.000000e+000
         vertex 5.056503e+001 -3.841130e+001 2.540000e+001
      endloop
   endfacet
   facet normal 8.066468e-001 -5.910338e-001 0.000000e+000
      outer loop
         vertex 5.056503e+001 -3.841130e+001 2.540000e+001
         vertex 5.056503e+001 -3.841130e+001 0.000000e+000
         vertex 5.249015e+001 -3.573561e+001 0.000000e+000
      endloop
   endfacet
   facet normal 8.167555e-001 -5.769840e-001 0.000000e+000
      outer loop
         vertex 5.056503e+001 -3.841130e+001 2.540000e+001
         vertex 5.249015e+001 -3.573561e+001 0.000000e+000
         vertex 5.249015e+001 -3.573561e+001 2.540000e+001
      endloop
   endfacet
   facet normal 8.362301e-001 -5.483787e-001 0.000000e+000
      outer loop
         vertex 5.249015e+001 -3.573561e+001 2.540000e+001
         vertex 5.249015e+001 -3.573561e+001 0.000000e+000
         vertex 5.427383e+001 -3.296363e+001 0.000000e+000
      endloop
   endfacet
   facet normal 8.455961e-001 -5.338233e-001 0.000000e+000
      outer loop
         vertex 5.249015e+001 -3.573561e+001 2.540000e+001
         vertex 5.427383e+001 -3.296363e+001 0.000000e+000
         vertex 5.427383e+001 -3.296363e+001 2.540000e+001
      endloop
   endfacet
   facet normal 8.635601e-001 -5.042460e-001 0.000000e+000
      outer loop
         vertex 5.427383e+001 -3.296363e+001 2.540000e+001
         vertex 5.427383e+001 -3.296363e+001 0.000000e+000
         vertex 5.591127e+001 -3.010283e+001 0.000000e+000
      endloop
   endfacet
   facet normal 8.721581e-001 -4.892241e-001 0.000000e+000
      outer loop
         vertex 5.427383e+001 -3.296363e+001 2.540000e+001
         vertex 5.591127e+001 -3.010283e+001 0.000000e+000
         vertex 5.591127e+001 -3.010283e+001 2.540000e+001
      endloop
   endfacet
   facet normal 8.885630e-001 -4.587545e-001 0.000000e+000
      outer loop
         vertex 5.591127e+001 -3.010283e+001 2.540000e+001
         vertex 5.591127e+001 -3.010283e+001 0.000000e+000
         vertex 5.739804e+001 -2.716091e+001 0.000000e+000
      endloop
   endfacet
   facet normal 8.963700e-001 -4.433067e-001 0.000000e+000
      outer loop
         vertex 5.591127e+001 -3.010283e+001 2.540000e+001
         vertex 5.739804e+001 -2.716091e+001 0.000000e+000
         vertex 5.739804e+001 -2.716091e+001 2.540000e+001
      endloop
   endfacet
   facet normal 9.111717e-001 -4.120269e-001 0.000000e+000
      outer loop
         vertex 5.739804e+001 -2.716091e+001 2.540000e+001
         vertex 5.739804e+001 -2.716091e+001 0.000000e+000
         vertex 5.873015e+001 -2.414580e+001 0.000000e+000
      endloop
   endfacet
   facet normal 9.181665e-001 -3.961947e-001 0.000000e+000
      outer loop
         vertex 5.739804e+001 -2.716091e+001 2.540000e+001
         vertex 5.873015e+001 -2.414580e+001 0.000000e+000
         vertex 5.873015e+001 -2.414580e+001 2.540000e+001
      endloop
   endfacet
   facet normal 9.313251e-001 -3.641889e-001 0.000000e+000
      outer loop
         vertex 5.873015e+001 -2.414580e+001 2.540000e+001
         vertex 5.873015e+001 -2.414580e+001 0.000000e+000
         vertex 5.990400e+001 -2.106562e+001 0.000000e+000
      endloop
   endfacet
   facet normal 9.374889e-001 -3.480152e-001 0.000000e+000
      outer loop
         vertex 5.873015e+001 -2.414580e+001 2.540000e+001
         vertex 5.990400e+001 -2.106562e+001 0.000000e+000
         vertex 5.990400e+001 -2.106562e+001 2.540000e+001
      endloop
   endfacet
   facet normal 9.489689e-001 -3.153696e-001 0.000000e+000
      outer loop
         vertex 5.990400e+001 -2.106562e+001 2.540000e+001
         vertex 5.990400e+001 -2.106562e+001 0.000000e+000
         vertex 6.091644e+001 -1.792868e+001 0.000000e+000
      endloop
   endfacet
   facet normal 9.542851e-001 -2.988978e-001 0.000000e+000
      outer loop
         vertex 5.990400e+001 -2.106562e+001 2.540000e+001
         vertex 6.091644e+001 -1.792868e+001 0.000000e+000
         vertex 6.091644e+001 -1.792868e+001 2.540000e+001
      endloop
   endfacet
   facet normal -9.537666e-001 3.005483e-001 0.000000e+000
      outer loop
         vertex 4.873315e+001 -1.434295e+001 2.540000e+001
         vertex 4.873315e+001 -1.434295e+001 0.000000e+000
         vertex 4.783507e+001 -1.710106e+001 0.000000e+000
      endloop
   endfacet
   facet normal -9.478715e-001 3.186527e-001 0.000000e+000
      outer loop
         vertex 4.873315e+001 -1.434295e+001 2.540000e+001
         vertex 4.783507e+001 -1.710106e+001 0.000000e+000
         vertex 4.783507e+001 -1.710106e+001 2.540000e+001
      endloop
   endfacet
   facet normal -9.350577e-001 3.544956e-001 0.000000e+000
      outer loop
         vertex 4.783507e+001 -1.710106e+001 2.540000e+001
         vertex 4.783507e+001 -1.710106e+001 0.000000e+000
         vertex 4.678102e+001 -1.980343e+001 0.000000e+000
      endloop
   endfacet
   facet normal -9.281389e-001 3.722341e-001 0.000000e+000
      outer loop
         vertex 4.783507e+001 -1.710106e+001 2.540000e+001
         vertex 4.678102e+001 -1.980343e+001 0.000000e+000
         vertex 4.678102e+001 -1.980343e+001 2.540000e+001
      endloop
   endfacet
   facet normal -9.133002e-001 4.072872e-001 0.000000e+000
      outer loop
         vertex 4.678102e+001 -1.980343e+001 2.540000e+001
         vertex 4.678102e+001 -1.980343e+001 0.000000e+000
         vertex 4.557446e+001 -2.244123e+001 0.000000e+000
      endloop
   endfacet
   facet normal -9.053802e-001 4.246019e-001 0.000000e+000
      outer loop
         vertex 4.678102e+001 -1.980343e+001 2.540000e+001
         vertex 4.557446e+001 -2.244123e+001 0.000000e+000
         vertex 4.557446e+001 -2.244123e+001 2.540000e+001
      endloop
   endfacet
   facet normal -8.885649e-001 4.587509e-001 0.000000e+000
      outer loop
         vertex 4.557446e+001 -2.244123e+001 2.540000e+001
         vertex 4.557446e+001 -2.244123e+001 0.000000e+000
         vertex 4.421931e+001 -2.500586e+001 0.000000e+000
      endloop
   endfacet
   facet normal -8.796697e-001 4.755853e-001 0.000000e+000
      outer loop
         vertex 4.557446e+001 -2.244123e+001 2.540000e+001
         vertex 4.421931e+001 -2.500586e+001 0.000000e+000
         vertex 4.421931e+001 -2.500586e+001 2.540000e+001
      endloop
   endfacet
   facet normal -8.609327e-001 5.087190e-001 0.000000e+000
      outer loop
         vertex 4.421931e+001 -2.500586e+001 2.540000e+001
         vertex 4.421931e+001 -2.500586e+001 0.000000e+000
         vertex 4.271999e+001 -2.748896e+001 0.000000e+000
      endloop
   endfacet
   facet normal -8.510910e-001 5.250182e-001 0.000000e+000
      outer loop
         vertex 4.421931e+001 -2.500586e+001 2.540000e+001
         vertex 4.271999e+001 -2.748896e+001 0.000000e+000
         vertex 4.271999e+001 -2.748896e+001 2.540000e+001
      endloop
   endfacet
   facet normal -8.304935e-001 5.570284e-001 0.000000e+000
      outer loop
         vertex 4.271999e+001 -2.748896e+001 2.540000e+001
         vertex 4.271999e+001 -2.748896e+001 0.000000e+000
         vertex 4.108138e+001 -2.988244e+001 0.000000e+000
      endloop
   endfacet
   facet normal -8.197376e-001 5.727392e-001 0.000000e+000
      outer loop
         vertex 4.271999e+001 -2.748896e+001 2.540000e+001
         vertex 4.108138e+001 -2.988244e+001 0.000000e+000
         vertex 4.108138e+001 -2.988244e+001 2.540000e+001
      endloop
   endfacet
   facet normal -7.973467e-001 6.035216e-001 0.000000e+000
      outer loop
         vertex 4.108138e+001 -2.988244e+001 2.540000e+001
         vertex 4.108138e+001 -2.988244e+001 0.000000e+000
         vertex 3.930883e+001 -3.217849e+001 0.000000e+000
      endloop
   endfacet
   facet normal -7.857115e-001 6.185931e-001 0.000000e+000
      outer loop
         vertex 4.108138e+001 -2.988244e+001 2.540000e+001
         vertex 3.930883e+001 -3.217849e+001 0.000000e+000
         vertex 3.930883e+001 -3.217849e+001 2.540000e+001
      endloop
   endfacet
   facet normal -7.616002e-001 6.480473e-001 0.000000e+000
      outer loop
         vertex 3.930883e+001 -3.217849e+001 2.540000e+001
         vertex 3.930883e+001 -3.217849e+001 0.000000e+000
         vertex 3.740813e+001 -3.436963e+001 0.000000e+000
      endloop
   endfacet
   facet normal -7.491238e-001 6.624300e-001 0.000000e+000
      outer loop
         vertex 3.930883e+001 -3.217849e+001 2.540000e+001
         vertex 3.740813e+001 -3.436963e+001 0.000000e+000
         vertex 3.740813e+001 -3.436963e+001 2.540000e+001
      endloop
   endfacet
   facet normal -7.233706e-001 6.904600e-001 0.000000e+000
      outer loop
         vertex 3.740813e+001 -3.436963e+001 2.540000e+001
         vertex 3.740813e+001 -3.436963e+001 0.000000e+000
         vertex 3.538546e+001 -3.644872e+001 0.000000e+000
      endloop
   endfacet
   facet normal -7.100936e-001 7.041073e-001 0.000000e+000
      outer loop
         vertex 3.740813e+001 -3.436963e+001 2.540000e+001
         vertex 3.538546e+001 -3.644872e+001 0.000000e+000
         vertex 3.538546e+001 -3.644872e+001 2.540000e+001
      endloop
   endfacet
   facet normal -6.827826e-001 7.306216e-001 0.000000e+000
      outer loop
         vertex 3.538546e+001 -3.644872e+001 2.540000e+001
         vertex 3.538546e+001 -3.644872e+001 0.000000e+000
         vertex 3.324743e+001 -3.840897e+001 0.000000e+000
      endloop
   endfacet
   facet normal -6.687484e-001 7.434888e-001 0.000000e+000
      outer loop
         vertex 3.538546e+001 -3.644872e+001 2.540000e+001
         vertex 3.324743e+001 -3.840897e+001 0.000000e+000
         vertex 3.324743e+001 -3.840897e+001 2.540000e+001
      endloop
   endfacet
   facet normal 2.823415e-001 9.593140e-001 0.000000e+000
      outer loop
         vertex 4.873315e+001 -1.434295e+001 0.000000e+000
         vertex 4.873315e+001 -1.434295e+001 2.540000e+001
         vertex 6.091644e+001 -1.792868e+001 0.000000e+000
      endloop
   endfacet
   facet normal 2.823415e-001 9.593140e-001 0.000000e+000
      outer loop
         vertex 6.091644e+001 -1.792868e+001 0.000000e+000
         vertex 4.873315e+001 -1.434295e+001 2.540000e+001
         vertex 6.091644e+001 -1.792868e+001 2.540000e+001
      endloop
   endfacet
   facet normal -7.560820e-001 -6.544769e-001 0.000000e+000
      outer loop
         vertex 3.324743e+001 -3.840897e+001 0.000000e+000
         vertex 4.155929e+001 -4.801121e+001 0.000000e+000
         vertex 3.324743e+001 -3.840897e+001 2.540000e+001
      endloop
   endfacet
   facet normal -7.560820e-001 -6.544769e-001 0.000000e+000
      outer loop
         vertex 3.324743e+001 -3.840897e+001 2.540000e+001
         vertex 4.155929e+001 -4.801121e+001 0.000000e+000
         vertex 4.155929e+001 -4.801121e+001 2.540000e+001
      endloop
   endfacet
endsolid