solid 9
   facet normal 0.000000e+000 0.000000e+000 1.000000e+000
      outer loop
         vertex 7.280651e+000 5.027556e+001 2.540000e+001
         vertex 9.100814e+000 6.284446e+001 2.540000e+001
         vertex 4.399247e+000 5.060916e+001 2.540000e+001
      endloop
   endfacet
   facet normal 0.000000e+000 0.000000e+000 1.000000e+000
      outer loop
         vertex 4.399247e+000 5.060916e+001 2.540000e+001
         vertex 9.100814e+000 6.284446e+001 2.540000e+001
         vertex 5.827409e+000 6.323204e+001 2.540000e+001
      endloop
   endfacet
   facet normal 0.000000e+000 0.000000e+000 1.000000e+000
      outer loop
         vertex 4.399247e+000 5.060916e+001 2.540000e+001
         vertex 5.827409e+000 6.323204e+001 2.540000e+001
         vertex 1.503500e+000 5.077774e+001 2.540000e+001
      endloop
   endfacet
   facet normal 0.000000e+000 0.000000e+000 1.000000e+000
      outer loop
         vertex 1.503500e+000 5.077774e+001 2.540000e+001
         vertex 5.827409e+000 6.323204e+001 2.540000e+001
         vertex 2.538301e+000 6.344925e+001 2.540000e+001
      endloop
   endfacet
   facet normal 0.000000e+000 0.000000e+000 1.000000e+000
      outer loop
         vertex 1.503500e+000 5.077774e+001 2.540000e+001
         vertex 2.538301e+000 6.344925e+001 2.540000e+001
         vertex -1.397148e+000 5.078078e+001 2.540000e+001
      endloop
   endfacet
   facet normal 0.000000e+000 0.000000e+000 1.000000e+000
      outer loop
         vertex -1.397148e+000 5.078078e+001 2.540000e+001
         vertex 2.538301e+000 6.344925e+001 2.540000e+001
         vertex -7.576453e-001 6.349548e+001 2.540000e+001
      endloop
   endfacet
   facet normal 0.000000e+000 0.000000e+000 1.000000e+000
      outer loop
         vertex -1.397148e+000 5.078078e+001 2.540000e+001
         vertex -7.576453e-001 6.349548e+001 2.540000e+001
         vertex -4.293242e+000 5.061826e+001 2.540000e+001
      endloop
   endfacet
   facet normal 0.000000e+000 0.000000e+000 1.000000e+000
      outer loop
         vertex -4.293242e+000 5.061826e+001 2.540000e+001
         vertex -7.576453e-001 6.349548e+001 2.540000e+001
         vertex -4.051551e+000 6.337062e+001 2.540000e+001
      endloop
   endfacet
   facet normal 0.000000e+000 0.000000e+000 1.000000e+000
      outer loop
         vertex -4.293242e+000 5.061826e+001 2.540000e+001
         vertex -4.051551e+000 6.337062e+001 2.540000e+001
         vertex -7.175338e+000 5.029070e+001 2.540000e+001
      endloop
   endfacet
   facet normal 0.000000e+000 0.000000e+000 1.000000e+000
      outer loop
         vertex -2.631285e+001 5.779173e+001 2.540000e+001
         vertex -2.105028e+001 4.623338e+001 2.540000e+001
         vertex -2.327845e+001 5.907930e+001 2.540000e+001
      endloop
   endfacet
   facet normal 0.000000e+000 0.000000e+000 1.000000e+000
      outer loop
         vertex -2.327845e+001 5.907930e+001 2.540000e+001
         vertex -2.105028e+001 4.623338e+001 2.540000e+001
         vertex -1.837714e+001 4.735949e+001 2.540000e+001
      endloop
   endfacet
   facet normal 0.000000e+000 0.000000e+000 1.000000e+000
      outer loop
         vertex -2.327845e+001 5.907930e+001 2.540000e+001
         vertex -1.837714e+001 4.735949e+001 2.540000e+001
         vertex -2.018133e+001 6.020767e+001 2.540000e+001
      endloop
   endfacet
   facet normal 0.000000e+000 0.000000e+000 1.000000e+000
      outer loop
         vertex -2.018133e+001 6.020767e+001 2.540000e+001
         vertex -1.837714e+001 4.735949e+001 2.540000e+001
         vertex -1.564409e+001 4.833118e+001 2.540000e+001
      endloop
   endfacet
   facet normal 0.000000e+000 0.000000e+000 1.000000e+000
      outer loop
         vertex -2.018133e+001 6.020767e+001 2.540000e+001
         vertex -1.564409e+001 4.833118e+001 2.540000e+001
         vertex -1.702982e+001 6.117381e+001 2.540000e+001
      endloop
   endfacet
   facet normal 0.000000e+000 0.000000e+000 1.000000e+000
      outer loop
         vertex -1.702982e+001 6.117381e+001 2.540000e+001
         vertex -1.564409e+001 4.833118e+001 2.540000e+001
         vertex -1.286003e+001 4.914529e+001 2.540000e+001
      endloop
   endfacet
   facet normal 0.000000e+000 0.000000e+000 1.000000e+000
      outer loop
         vertex -1.702982e+001 6.117381e+001 2.540000e+001
         vertex -1.286003e+001 4.914529e+001 2.540000e+001
         vertex -1.383243e+001 6.197511e+001 2.540000e+001
      endloop
   endfacet
   facet normal 0.000000e+000 0.000000e+000 1.000000e+000
      outer loop
         vertex -1.383243e+001 6.197511e+001 2.540000e+001
         vertex -1.286003e+001 4.914529e+001 2.540000e+001
         vertex -1.003404e+001 4.979918e+001 2.540000e+001
      endloop
   endfacet
   facet normal 0.000000e+000 0.000000e+000 1.000000e+000
      outer loop
         vertex -1.383243e+001 6.197511e+001 2.540000e+001
         vertex -1.003404e+001 4.979918e+001 2.540000e+001
         vertex -1.059776e+001 6.260941e+001 2.540000e+001
      endloop
   endfacet
   facet normal 0.000000e+000 0.000000e+000 1.000000e+000
      outer loop
         vertex -1.059776e+001 6.260941e+001 2.540000e+001
         vertex -1.003404e+001 4.979918e+001 2.540000e+001
         vertex -7.175338e+000 5.029070e+001 2.540000e+001
      endloop
   endfacet
   facet normal 0.000000e+000 0.000000e+000 1.000000e+000
      outer loop
         vertex -1.059776e+001 6.260941e+001 2.540000e+001
         vertex -7.175338e+000 5.029070e+001 2.540000e+001
         vertex -7.334539e+000 6.307499e+001 2.540000e+001
      endloop
   endfacet
   facet normal 0.000000e+000 0.000000e+000 1.000000e+000
      outer loop
         vertex -7.334539e+000 6.307499e+001 2.540000e+001
         vertex -7.175338e+000 5.029070e+001 2.540000e+001
         vertex -4.051551e+000 6.337062e+001 2.540000e+001
      endloop
   endfacet
   facet normal 0.000000e+000 0.000000e+000 -1.000000e+000
      outer loop
         vertex 9.100814e+000 6.284446e+001 0.000000e+000
         vertex 7.280651e+000 5.027556e+001 0.000000e+000
         vertex 5.827409e+000 6.323204e+001 0.000000e+000
      endloop
   endfacet
   facet normal 0.000000e+000 0.000000e+000 -1.000000e+000
      outer loop
         vertex 5.827409e+000 6.323204e+001 0.000000e+000
         vertex 7.280651e+000 5.027556e+001 0.000000e+000
         vertex 4.399247e+000 5.060916e+001 0.000000e+000
      endloop
   endfacet
   facet normal 0.000000e+000 0.000000e+000 -1.000000e+000
      outer loop
         vertex 5.827409e+000 6.323204e+001 0.000000e+000
         vertex 4.399247e+000 5.060916e+001 0.000000e+000
         vertex 2.538301e+000 6.344925e+001 0.000000e+000
      endloop
   endfacet
   facet normal 0.000000e+000 0.000000e+000 -1.000000e+000
      outer loop
         vertex 2.538301e+000 6.344925e+001 0.000000e+000
         vertex 4.399247e+000 5.060916e+001 0.000000e+000
         vertex 1.503500e+000 5.077774e+001 0.000000e+000
      endloop
   endfacet
   facet normal 0.000000e+000 0.000000e+000 -1.000000e+000
      outer loop
         vertex 2.538301e+000 6.344925e+001 0.000000e+000
         vertex 1.503500e+000 5.077774e+001 0.000000e+000
         vertex -7.576453e-001 6.349548e+001 0.000000e+000
      endloop
   endfacet
   facet normal 0.000000e+000 0.000000e+000 -1.000000e+000
      outer loop
         vertex -7.576453e-001 6.349548e+001 0.000000e+000
         vertex 1.503500e+000 5.077774e+001 0.000000e+000
         vertex -1.397148e+000 5.078078e+001 0.000000e+000
      endloop
   endfacet
   facet normal 0.000000e+000 0.000000e+000 -1.000000e+000
      outer loop
         vertex -7.576453e-001 6.349548e+001 0.000000e+000
         vertex -1.397148e+000 5.078078e+001 0.000000e+000
         vertex -4.051551e+000 6.337062e+001 0.000000e+000
      endloop
   endfacet
   facet normal 0.000000e+000 0.000000e+000 -1.000000e+000
      outer loop
         vertex -4.051551e+000 6.337062e+001 0.000000e+000
         vertex -1.397148e+000 5.078078e+001 0.000000e+000
         vertex -4.293242e+000 5.061826e+001 0.000000e+000
      endloop
   endfacet
   facet normal 0.000000e+000 0.000000e+000 -1.000000e+000
      outer loop
         vertex -4.051551e+000 6.337062e+001 0.000000e+000
         vertex -4.293242e+000 5.061826e+001 0.000000e+000
         vertex -7.334539e+000 6.307499e+001 0.000000e+000
      endloop
   endfacet
   facet normal 0.000000e+000 0.000000e+000 -1.000000e+000
      outer loop
         vertex -7.334539e+000 6.307499e+001 0.000000e+000
         vertex -4.293242e+000 5.061826e+001 0.000000e+000
         vertex -7.175338e+000 5.029070e+001 0.000000e+000
      endloop
   endfacet
   facet normal 0.000000e+000 0.000000e+000 -1.000000e+000
      outer loop
         vertex -7.334539e+000 6.307499e+001 0.000000e+000
         vertex -7.175338e+000 5.029070e+001 0.000000e+000
         vertex -1.059776e+001 6.260941e+001 0.000000e+000
      endloop
   endfacet
   facet normal 0.000000e+000 0.000000e+000 -1.000000e+000
      outer loop
         vertex -1.059776e+001 6.260941e+001 0.000000e+000
         vertex -7.175338e+000 5.029070e+001 0.000000e+000
         vertex -1.003404e+001 4.979918e+001 0.000000e+000
      endloop
   endfacet
   facet normal 0.000000e+000 0.000000e+000 -1.000000e+000
      outer loop
         vertex -2.105028e+001 4.623338e+001 0.000000e+000
         vertex -2.631285e+001 5.779173e+001 0.000000e+000
         vertex -1.837714e+001 4.735949e+001 0.000000e+000
      endloop
   endfacet
   facet normal 0.000000e+000 0.000000e+000 -1.000000e+000
      outer loop
         vertex -1.837714e+001 4.735949e+001 0.000000e+000
         vertex -2.631285e+001 5.779173e+001 0.000000e+000
         vertex -2.327845e+001 5.907930e+001 0.000000e+000
      endloop
   endfacet
   facet normal 0.000000e+000 0.000000e+000 -1.000000e+000
      outer loop
         vertex -1.837714e+001 4.735949e+001 0.000000e+000
         vertex -2.327845e+001 5.907930e+001 0.000000e+000
         vertex -1.564409e+001 4.833118e+001 0.000000e+000
      endloop
   endfacet
   facet normal 0.000000e+000 0.000000e+000 -1.000000e+000
      outer loop
         vertex -1.564409e+001 4.833118e+001 0.000000e+000
         vertex -2.327845e+001 5.907930e+001 0.000000e+000
         vertex -2.018133e+001 6.020767e+001 0.000000e+000
      endloop
   endfacet
   facet normal 0.000000e+000 0.000000e+000 -1.000000e+000
      outer loop
         vertex -1.564409e+001 4.833118e+001 0.000000e+000
         vertex -2.018133e+001 6.020767e+001 0.000000e+000
         vertex -1.286003e+001 4.914529e+001 0.000000e+000
      endloop
   endfacet
   facet normal 0.000000e+000 0.000000e+000 -1.000000e+000
      outer loop
         vertex -1.286003e+001 4.914529e+001 0.000000e+000
         vertex -2.018133e+001 6.020767e+001 0.000000e+000
         vertex -1.702982e+001 6.117381e+001 0.000000e+000
      endloop
   endfacet
   facet normal 0.000000e+000 0.000000e+000 -1.000000e+000
      outer loop
         vertex -1.286003e+001 4.914529e+001 0.000000e+000
         vertex -1.702982e+001 6.117381e+001 0.000000e+000
         vertex -1.003404e+001 4.979918e+001 0.000000e+000
      endloop
   endfacet
   facet normal 0.000000e+000 0.000000e+000 -1.000000e+000
      outer loop
         vertex -1.003404e+001 4.979918e+001 0.000000e+000
         vertex -1.702982e+001 6.117381e+001 0.000000e+000
         vertex -1.383243e+001 6.197511e+001 0.000000e+000
      endloop
   endfacet
   facet normal 0.000000e+000 0.000000e+000 -1.000000e+000
      outer loop
         vertex -1.003404e+001 4.979918e+001 0.000000e+000
         vertex -1.383243e+001 6.197511e+001 0.000000e+000
         vertex -1.059776e+001 6.260941e+001 0.000000e+000
      endloop
   endfacet
   facet normal 1.261744e-001 9.920081e-001 0.000000e+000
      outer loop
         vertex 9.100814e+000 6.284446e+001 2.540000e+001
         vertex 9.100814e+000 6.284446e+001 0.000000e+000
         vertex 5.827409e+000 6.323204e+001 0.000000e+000
      endloop
   endfacet
   facet normal 1.089861e-001 9.940433e-001 0.000000e+000
      outer loop
         vertex 9.100814e+000 6.284446e+001 2.540000e+001
         vertex 5.827409e+000 6.323204e+001 0.000000e+000
         vertex 5.827409e+000 6.323204e+001 2.540000e+001
      endloop
   endfacet
   facet normal 7.452688e-002 9.972190e-001 0.000000e+000
      outer loop
         vertex 5.827409e+000 6.323204e+001 2.540000e+001
         vertex 5.827409e+000 6.323204e+001 0.000000e+000
         vertex 2.538301e+000 6.344925e+001 0.000000e+000
      endloop
   endfacet
   facet normal 5.725605e-002 9.983596e-001 0.000000e+000
      outer loop
         vertex 5.827409e+000 6.323204e+001 2.540000e+001
         vertex 2.538301e+000 6.344925e+001 0.000000e+000
         vertex 2.538301e+000 6.344925e+001 2.540000e+001
      endloop
   endfacet
   facet normal 2.267849e-002 9.997428e-001 0.000000e+000
      outer loop
         vertex 2.538301e+000 6.344925e+001 2.540000e+001
         vertex 2.538301e+000 6.344925e+001 0.000000e+000
         vertex -7.576453e-001 6.349548e+001 0.000000e+000
      endloop
   endfacet
   facet normal 5.371745e-003 9.999856e-001 0.000000e+000
      outer loop
         vertex 2.538301e+000 6.344925e+001 2.540000e+001
         vertex -7.576453e-001 6.349548e+001 0.000000e+000
         vertex -7.576453e-001 6.349548e+001 2.540000e+001
      endloop
   endfacet
   facet normal -2.923102e-002 9.995727e-001 0.000000e+000
      outer loop
         vertex -7.576453e-001 6.349548e+001 2.540000e+001
         vertex -7.576453e-001 6.349548e+001 0.000000e+000
         vertex -4.051551e+000 6.337062e+001 0.000000e+000
      endloop
   endfacet
   facet normal -4.652704e-002 9.989170e-001 0.000000e+000
      outer loop
         vertex -7.576453e-001 6.349548e+001 2.540000e+001
         vertex -4.051551e+000 6.337062e+001 0.000000e+000
         vertex -4.051551e+000 6.337062e+001 2.540000e+001
      endloop
   endfacet
   facet normal -8.106176e-002 9.967090e-001 0.000000e+000
      outer loop
         vertex -4.051551e+000 6.337062e+001 2.540000e+001
         vertex -4.051551e+000 6.337062e+001 0.000000e+000
         vertex -7.334539e+000 6.307499e+001 0.000000e+000
      endloop
   endfacet
   facet normal -9.830046e-002 9.951568e-001 0.000000e+000
      outer loop
         vertex -4.051551e+000 6.337062e+001 2.540000e+001
         vertex -7.334539e+000 6.307499e+001 0.000000e+000
         vertex -7.334539e+000 6.307499e+001 2.540000e+001
      endloop
   endfacet
   facet normal -1.326741e-001 9.911597e-001 0.000000e+000
      outer loop
         vertex -7.334539e+000 6.307499e+001 2.540000e+001
         vertex -7.334539e+000 6.307499e+001 0.000000e+000
         vertex -1.059776e+001 6.260941e+001 0.000000e+000
      endloop
   endfacet
   facet normal -1.498090e-001 9.887149e-001 0.000000e+000
      outer loop
         vertex -7.334539e+000 6.307499e+001 2.540000e+001
         vertex -1.059776e+001 6.260941e+001 0.000000e+000
         vertex -1.059776e+001 6.260941e+001 2.540000e+001
      endloop
   endfacet
   facet normal -1.839288e-001 9.829395e-001 0.000000e+000
      outer loop
         vertex -1.059776e+001 6.260941e+001 2.540000e+001
         vertex -1.059776e+001 6.260941e+001 0.000000e+000
         vertex -1.383243e+001 6.197511e+001 0.000000e+000
      endloop
   endfacet
   facet normal -2.009138e-001 9.796090e-001 0.000000e+000
      outer loop
         vertex -1.059776e+001 6.260941e+001 2.540000e+001
         vertex -1.383243e+001 6.197511e+001 0.000000e+000
         vertex -1.383243e+001 6.197511e+001 2.540000e+001
      endloop
   endfacet
   facet normal -2.346880e-001 9.720708e-001 0.000000e+000
      outer loop
         vertex -1.383243e+001 6.197511e+001 2.540000e+001
         vertex -1.383243e+001 6.197511e+001 0.000000e+000
         vertex -1.702982e+001 6.117381e+001 0.000000e+000
      endloop
   endfacet
   facet normal -2.514773e-001 9.678632e-001 0.000000e+000
      outer loop
         vertex -1.383243e+001 6.197511e+001 2.540000e+001
         vertex -1.702982e+001 6.117381e+001 0.000000e+000
         vertex -1.702982e+001 6.117381e+001 2.540000e+001
      endloop
   endfacet
   facet normal -2.848148e-001 9.585826e-001 0.000000e+000
      outer loop
         vertex -1.702982e+001 6.117381e+001 2.540000e+001
         vertex -1.702982e+001 6.117381e+001 0.000000e+000
         vertex -2.018133e+001 6.020767e+001 0.000000e+000
      endloop
   endfacet
   facet normal -3.013631e-001 9.535094e-001 0.000000e+000
      outer loop
         vertex -1.702982e+001 6.117381e+001 2.540000e+001
         vertex -2.018133e+001 6.020767e+001 0.000000e+000
         vertex -2.018133e+001 6.020767e+001 2.540000e+001
      endloop
   endfacet
   facet normal -3.341741e-001 9.425113e-001 0.000000e+000
      outer loop
         vertex -2.018133e+001 6.020767e+001 2.540000e+001
         vertex -2.018133e+001 6.020767e+001 0.000000e+000
         vertex -2.327845e+001 5.907930e+001 0.000000e+000
      endloop
   endfacet
   facet normal -3.504368e-001 9.365863e-001 0.000000e+000
      outer loop
         vertex -2.018133e+001 6.020767e+001 2.540000e+001
         vertex -2.327845e+001 5.907930e+001 0.000000e+000
         vertex -2.327845e+001 5.907930e+001 2.540000e+001
      endloop
   endfacet
   facet normal -3.826330e-001 9.239004e-001 0.000000e+000
      outer loop
         vertex -2.327845e+001 5.907930e+001 2.540000e+001
         vertex -2.327845e+001 5.907930e+001 0.000000e+000
         vertex -2.631285e+001 5.779173e+001 0.000000e+000
      endloop
   endfacet
   facet normal -3.985664e-001 9.171395e-001 0.000000e+000
      outer loop
         vertex -2.327845e+001 5.907930e+001 2.540000e+001
         vertex -2.631285e+001 5.779173e+001 0.000000e+000
         vertex -2.631285e+001 5.779173e+001 2.540000e+001
      endloop
   endfacet
   facet normal 3.969791e-001 -9.178276e-001 0.000000e+000
      outer loop
         vertex -2.105028e+001 4.623338e+001 2.540000e+001
         vertex -2.105028e+001 4.623338e+001 0.000000e+000
         vertex -1.837714e+001 4.735949e+001 0.000000e+000
      endloop
   endfacet
   facet normal 3.794325e-001 -9.252194e-001 0.000000e+000
      outer loop
         vertex -2.105028e+001 4.623338e+001 2.540000e+001
         vertex -1.837714e+001 4.735949e+001 0.000000e+000
         vertex -1.837714e+001 4.735949e+001 2.540000e+001
      endloop
   endfacet
   facet normal 3.439460e-001 -9.389895e-001 0.000000e+000
      outer loop
         vertex -1.837714e+001 4.735949e+001 2.540000e+001
         vertex -1.837714e+001 4.735949e+001 0.000000e+000
         vertex -1.564409e+001 4.833118e+001 0.000000e+000
      endloop
   endfacet
   facet normal 3.260060e-001 -9.453677e-001 0.000000e+000
      outer loop
         vertex -1.837714e+001 4.735949e+001 2.540000e+001
         vertex -1.564409e+001 4.833118e+001 0.000000e+000
         vertex -1.564409e+001 4.833118e+001 2.540000e+001
      endloop
   endfacet
   facet normal 2.897913e-001 -9.570898e-001 0.000000e+000
      outer loop
         vertex -1.564409e+001 4.833118e+001 2.540000e+001
         vertex -1.564409e+001 4.833118e+001 0.000000e+000
         vertex -1.286003e+001 4.914529e+001 0.000000e+000
      endloop
   endfacet
   facet normal 2.715166e-001 -9.624338e-001 0.000000e+000
      outer loop
         vertex -1.564409e+001 4.833118e+001 2.540000e+001
         vertex -1.286003e+001 4.914529e+001 0.000000e+000
         vertex -1.286003e+001 4.914529e+001 2.540000e+001
      endloop
   endfacet
   facet normal 2.346919e-001 -9.720698e-001 0.000000e+000
      outer loop
         vertex -1.286003e+001 4.914529e+001 2.540000e+001
         vertex -1.286003e+001 4.914529e+001 0.000000e+000
         vertex -1.003404e+001 4.979918e+001 0.000000e+000
      endloop
   endfacet
   facet normal 2.161420e-001 -9.763619e-001 0.000000e+000
      outer loop
         vertex -1.286003e+001 4.914529e+001 2.540000e+001
         vertex -1.003404e+001 4.979918e+001 0.000000e+000
         vertex -1.003404e+001 4.979918e+001 2.540000e+001
      endloop
   endfacet
   facet normal 1.788274e-001 -9.838805e-001 0.000000e+000
      outer loop
         vertex -1.003404e+001 4.979918e+001 2.540000e+001
         vertex -1.003404e+001 4.979918e+001 0.000000e+000
         vertex -7.175338e+000 5.029070e+001 0.000000e+000
      endloop
   endfacet
   facet normal 1.600627e-001 -9.871069e-001 0.000000e+000
      outer loop
         vertex -1.003404e+001 4.979918e+001 2.540000e+001
         vertex -7.175338e+000 5.029070e+001 0.000000e+000
         vertex -7.175338e+000 5.029070e+001 2.540000e+001
      endloop
   endfacet
   facet normal 1.223798e-001 -9.924833e-001 0.000000e+000
      outer loop
         vertex -7.175338e+000 5.029070e+001 2.540000e+001
         vertex -7.175338e+000 5.029070e+001 0.000000e+000
         vertex -4.293242e+000 5.061826e+001 0.000000e+000
      endloop
   endfacet
   facet normal 1.034615e-001 -9.946334e-001 0.000000e+000
      outer loop
         vertex -7.175338e+000 5.029070e+001 2.540000e+001
         vertex -4.293242e+000 5.061826e+001 0.000000e+000
         vertex -4.293242e+000 5.061826e+001 2.540000e+001
      endloop
   endfacet
   facet normal 6.553315e-002 -9.978504e-001 0.000000e+000
      outer loop
         vertex -4.293242e+000 5.061826e+001 2.540000e+001
         vertex -4.293242e+000 5.061826e+001 0.000000e+000
         vertex -1.397148e+000 5.078078e+001 0.000000e+000
      endloop
   endfacet
   facet normal 4.652302e-002 -9.989172e-001 0.000000e+000
      outer loop
         vertex -4.293242e+000 5.061826e+001 2.540000e+001
         vertex -1.397148e+000 5.078078e+001 0.000000e+000
         vertex -1.397148e+000 5.078078e+001 2.540000e+001
      endloop
   endfacet
   facet normal 8.472863e-003 -9.999641e-001 0.000000e+000
      outer loop
         vertex -1.397148e+000 5.078078e+001 2.540000e+001
         vertex -1.397148e+000 5.078078e+001 0.000000e+000
         vertex 1.503500e+000 5.077774e+001 0.000000e+000
      endloop
   endfacet
   facet normal -1.056716e-002 -9.999442e-001 0.000000e+000
      outer loop
         vertex -1.397148e+000 5.078078e+001 2.540000e+001
         vertex 1.503500e+000 5.077774e+001 0.000000e+000
         vertex 1.503500e+000 5.077774e+001 2.540000e+001
      endloop
   endfacet
   facet normal -4.861504e-002 -9.988176e-001 0.000000e+000
      outer loop
         vertex 1.503500e+000 5.077774e+001 2.540000e+001
         vertex 1.503500e+000 5.077774e+001 0.000000e+000
         vertex 4.399247e+000 5.060916e+001 0.000000e+000
      endloop
   endfacet
   facet normal -6.762289e-002 -9.977109e-001 0.000000e+000
      outer loop
         vertex 1.503500e+000 5.077774e+001 2.540000e+001
         vertex 4.399247e+000 5.060916e+001 0.000000e+000
         vertex 4.399247e+000 5.060916e+001 2.540000e+001
      endloop
   endfacet
   facet normal -1.055444e-001 -9.944146e-001 0.000000e+000
      outer loop
         vertex 4.399247e+000 5.060916e+001 2.540000e+001
         vertex 4.399247e+000 5.060916e+001 0.000000e+000
         vertex 7.280651e+000 5.027556e+001 0.000000e+000
      endloop
   endfacet
   facet normal -1.244581e-001 -9.922249e-001 0.000000e+000
      outer loop
         vertex 4.399247e+000 5.060916e+001 2.540000e+001
         vertex 7.280651e+000 5.027556e+001 0.000000e+000
         vertex 7.280651e+000 5.027556e+001 2.540000e+001
      endloop
   endfacet
   facet normal -9.101060e-001 -4.143756e-001 0.000000e+000
      outer loop
         vertex -2.105028e+001 4.623338e+001 0.000000e+000
         vertex -2.105028e+001 4.623338e+001 2.540000e+001
         vertex -2.631285e+001 5.779173e+001 0.000000e+000
      endloop
   endfacet
   facet normal -9.101060e-001 -4.143756e-001 0.000000e+000
      outer loop
         vertex -2.631285e+001 5.779173e+001 0.000000e+000
         vertex -2.105028e+001 4.623338e+001 2.540000e+001
         vertex -2.631285e+001 5.779173e+001 2.540000e+001
      endloop
   endfacet
   facet normal 9.896764e-001 -1.433199e-001 0.000000e+000
      outer loop
         vertex 7.280651e+000 5.027556e+001 0.000000e+000
         vertex 9.100814e+000 6.284446e+001 0.000000e+000
         vertex 7.280651e+000 5.027556e+001 2.540000e+001
      endloop
   endfacet
   facet normal 9.896764e-001 -1.433199e-001 0.000000e+000
      outer loop
         vertex 7.280651e+000 5.027556e+001 2.540000e+001
         vertex 9.100814e+000 6.284446e+001 0.000000e+000
         vertex 9.100814e+000 6.284446e+001 2.540000e+001
      endloop
   endfacet
endsolid