solid cylinder
   facet normal 9.998049e-001 1.975458e-002 0.000000e+000
      outer loop
         vertex 7.613309e+001 4.035707e+001 1.016000e+002
         vertex 7.620000e+001 3.810000e+001 1.016000e+002
         vertex 7.620000e+001 3.810000e+001 0.000000e+000
      endloop
   endfacet
   facet normal 9.998049e-001 -1.975458e-002 0.000000e+000
      outer loop
         vertex 7.620000e+001 3.810000e+001 0.000000e+000
         vertex 7.620000e+001 3.810000e+001 1.016000e+002
         vertex 7.613309e+001 3.584293e+001 0.000000e+000
      endloop
   endfacet
   facet normal 9.992192e-001 3.950917e-002 0.000000e+000
      outer loop
         vertex 7.620000e+001 3.810000e+001 0.000000e+000
         vertex 7.613309e+001 4.035707e+001 0.000000e+000
         vertex 7.613309e+001 4.035707e+001 1.016000e+002
      endloop
   endfacet
   facet normal 9.951260e-001 9.861110e-002 0.000000e+000
      outer loop
         vertex 7.613309e+001 4.035707e+001 1.016000e+002
         vertex 7.613309e+001 4.035707e+001 0.000000e+000
         vertex 7.559919e+001 4.483952e+001 0.000000e+000
      endloop
   endfacet
   facet normal 9.904477e-001 1.378890e-001 0.000000e+000
      outer loop
         vertex 7.613309e+001 4.035707e+001 1.016000e+002
         vertex 7.559919e+001 4.483952e+001 0.000000e+000
         vertex 7.559919e+001 4.483952e+001 1.016000e+002
      endloop
   endfacet
   facet normal 9.764783e-001 2.156157e-001 0.000000e+000
      outer loop
         vertex 7.559919e+001 4.483952e+001 1.016000e+002
         vertex 7.559919e+001 4.483952e+001 0.000000e+000
         vertex 7.453888e+001 4.922736e+001 0.000000e+000
      endloop
   endfacet
   facet normal 9.671873e-001 2.540645e-001 0.000000e+000
      outer loop
         vertex 7.559919e+001 4.483952e+001 1.016000e+002
         vertex 7.453888e+001 4.922736e+001 0.000000e+000
         vertex 7.453888e+001 4.922736e+001 1.016000e+002
      endloop
   endfacet
   facet normal 9.441230e-001 3.295935e-001 0.000000e+000
      outer loop
         vertex 7.453888e+001 4.922736e+001 1.016000e+002
         vertex 7.453888e+001 4.922736e+001 0.000000e+000
         vertex 7.296706e+001 5.345900e+001 0.000000e+000
      endloop
   endfacet
   facet normal 9.303496e-001 3.666736e-001 0.000000e+000
      outer loop
         vertex 7.453888e+001 4.922736e+001 1.016000e+002
         vertex 7.296706e+001 5.345900e+001 0.000000e+000
         vertex 7.296706e+001 5.345900e+001 1.016000e+002
      endloop
   endfacet
   facet normal 8.985142e-001 4.389445e-001 0.000000e+000
      outer loop
         vertex 7.296706e+001 5.345900e+001 1.016000e+002
         vertex 7.296706e+001 5.345900e+001 0.000000e+000
         vertex 7.090576e+001 5.747504e+001 0.000000e+000
      endloop
   endfacet
   facet normal 8.804520e-001 4.741353e-001 0.000000e+000
      outer loop
         vertex 7.296706e+001 5.345900e+001 1.016000e+002
         vertex 7.090576e+001 5.747504e+001 0.000000e+000
         vertex 7.090576e+001 5.747504e+001 1.016000e+002
      endloop
   endfacet
   facet normal 8.402923e-001 5.421336e-001 0.000000e+000
      outer loop
         vertex 7.090576e+001 5.747504e+001 1.016000e+002
         vertex 7.090576e+001 5.747504e+001 0.000000e+000
         vertex 6.838396e+001 6.121909e+001 0.000000e+000
      endloop
   endfacet
   facet normal 8.181947e-001 5.749412e-001 0.000000e+000
      outer loop
         vertex 7.090576e+001 5.747504e+001 1.016000e+002
         vertex 6.838396e+001 6.121909e+001 0.000000e+000
         vertex 6.838396e+001 6.121909e+001 1.016000e+002
      endloop
   endfacet
   facet normal 7.702744e-001 6.377125e-001 0.000000e+000
      outer loop
         vertex 6.838396e+001 6.121909e+001 1.016000e+002
         vertex 6.838396e+001 6.121909e+001 0.000000e+000
         vertex 6.543703e+001 6.463860e+001 0.000000e+000
      endloop
   endfacet
   facet normal 7.444517e-001 6.676763e-001 0.000000e+000
      outer loop
         vertex 6.838396e+001 6.121909e+001 1.016000e+002
         vertex 6.543703e+001 6.463860e+001 0.000000e+000
         vertex 6.543703e+001 6.463860e+001 1.016000e+002
      endloop
   endfacet
   facet normal 6.894436e-001 7.243394e-001 0.000000e+000
      outer loop
         vertex 6.543703e+001 6.463860e+001 1.016000e+002
         vertex 6.543703e+001 6.463860e+001 0.000000e+000
         vertex 6.210635e+001 6.768556e+001 0.000000e+000
      endloop
   endfacet
   facet normal 6.602583e-001 7.510386e-001 0.000000e+000
      outer loop
         vertex 6.543703e+001 6.463860e+001 1.016000e+002
         vertex 6.210635e+001 6.768556e+001 0.000000e+000
         vertex 6.210635e+001 6.768556e+001 1.016000e+002
      endloop
   endfacet
   facet normal 5.989346e-001 8.007979e-001 0.000000e+000
      outer loop
         vertex 6.210635e+001 6.768556e+001 1.016000e+002
         vertex 6.210635e+001 6.768556e+001 0.000000e+000
         vertex 5.843867e+001 7.031721e+001 0.000000e+000
      endloop
   endfacet
   facet normal 5.667962e-001 8.238580e-001 0.000000e+000
      outer loop
         vertex 6.210635e+001 6.768556e+001 1.016000e+002
         vertex 5.843867e+001 7.031721e+001 0.000000e+000
         vertex 5.843867e+001 7.031721e+001 1.016000e+002
      endloop
   endfacet
   facet normal 5.000178e-001 8.660151e-001 0.000000e+000
      outer loop
         vertex 5.843867e+001 7.031721e+001 1.016000e+002
         vertex 5.843867e+001 7.031721e+001 0.000000e+000
         vertex 5.448549e+001 7.249659e+001 0.000000e+000
      endloop
   endfacet
   facet normal 4.653777e-001 8.851122e-001 0.000000e+000
      outer loop
         vertex 5.843867e+001 7.031721e+001 1.016000e+002
         vertex 5.448549e+001 7.249659e+001 0.000000e+000
         vertex 5.448549e+001 7.249659e+001 1.016000e+002
      endloop
   endfacet
   facet normal 3.940819e-001 9.190753e-001 0.000000e+000
      outer loop
         vertex 5.448549e+001 7.249659e+001 1.016000e+002
         vertex 5.448549e+001 7.249659e+001 0.000000e+000
         vertex 5.030228e+001 7.419314e+001 0.000000e+000
      endloop
   endfacet
   facet normal 3.574262e-001 9.339414e-001 0.000000e+000
      outer loop
         vertex 5.448549e+001 7.249659e+001 1.016000e+002
         vertex 5.030228e+001 7.419314e+001 0.000000e+000
         vertex 5.030228e+001 7.419314e+001 1.016000e+002
      endloop
   endfacet
   facet normal 2.826139e-001 9.592337e-001 0.000000e+000
      outer loop
         vertex 5.030228e+001 7.419314e+001 1.016000e+002
         vertex 5.030228e+001 7.419314e+001 0.000000e+000
         vertex 4.594779e+001 7.538301e+001 0.000000e+000
      endloop
   endfacet
   facet normal 2.444573e-001 9.696600e-001 0.000000e+000
      outer loop
         vertex 5.030228e+001 7.419314e+001 1.016000e+002
         vertex 4.594779e+001 7.538301e+001 0.000000e+000
         vertex 4.594779e+001 7.538301e+001 1.016000e+002
      endloop
   endfacet
   facet normal 1.671786e-001 9.859266e-001 0.000000e+000
      outer loop
         vertex 4.594779e+001 7.538301e+001 1.016000e+002
         vertex 4.594779e+001 7.538301e+001 0.000000e+000
         vertex 4.148312e+001 7.604950e+001 0.000000e+000
      endloop
   endfacet
   facet normal 1.280567e-001 9.917668e-001 0.000000e+000
      outer loop
         vertex 4.594779e+001 7.538301e+001 1.016000e+002
         vertex 4.148312e+001 7.604950e+001 0.000000e+000
         vertex 4.148312e+001 7.604950e+001 1.016000e+002
      endloop
   endfacet
   facet normal 4.939659e-002 9.987792e-001 0.000000e+000
      outer loop
         vertex 4.148312e+001 7.604950e+001 1.016000e+002
         vertex 4.148312e+001 7.604950e+001 0.000000e+000
         vertex 3.697097e+001 7.618327e+001 0.000000e+000
      endloop
   endfacet
   facet normal 9.858468e-003 9.999514e-001 0.000000e+000
      outer loop
         vertex 4.148312e+001 7.604950e+001 1.016000e+002
         vertex 3.697097e+001 7.618327e+001 0.000000e+000
         vertex 3.697097e+001 7.618327e+001 1.016000e+002
      endloop
   endfacet
   facet normal -6.907891e-002 9.976112e-001 0.000000e+000
      outer loop
         vertex 3.697097e+001 7.618327e+001 1.016000e+002
         vertex 3.697097e+001 7.618327e+001 0.000000e+000
         vertex 3.247467e+001 7.578243e+001 0.000000e+000
      endloop
   endfacet
   facet normal -1.084781e-001 9.940988e-001 0.000000e+000
      outer loop
         vertex 3.697097e+001 7.618327e+001 1.016000e+002
         vertex 3.247467e+001 7.578243e+001 0.000000e+000
         vertex 3.247467e+001 7.578243e+001 1.016000e+002
      endloop
   endfacet
   facet normal -1.865847e-001 9.824389e-001 0.000000e+000
      outer loop
         vertex 3.247467e+001 7.578243e+001 1.016000e+002
         vertex 3.247467e+001 7.578243e+001 0.000000e+000
         vertex 2.805733e+001 7.485262e+001 0.000000e+000
      endloop
   endfacet
   facet normal -2.252920e-001 9.742913e-001 0.000000e+000
      outer loop
         vertex 3.247467e+001 7.578243e+001 1.016000e+002
         vertex 2.805733e+001 7.485262e+001 0.000000e+000
         vertex 2.805733e+001 7.485262e+001 1.016000e+002
      endloop
   endfacet
   facet normal -3.014712e-001 9.534753e-001 0.000000e+000
      outer loop
         vertex 2.805733e+001 7.485262e+001 1.016000e+002
         vertex 2.805733e+001 7.485262e+001 0.000000e+000
         vertex 2.378097e+001 7.340688e+001 0.000000e+000
      endloop
   endfacet
   facet normal -3.389432e-001 9.408068e-001 0.000000e+000
      outer loop
         vertex 2.805733e+001 7.485262e+001 1.016000e+002
         vertex 2.378097e+001 7.340688e+001 0.000000e+000
         vertex 2.378097e+001 7.340688e+001 1.016000e+002
      endloop
   endfacet
   facet normal -4.121258e-001 9.111270e-001 0.000000e+000
      outer loop
         vertex 2.378097e+001 7.340688e+001 1.016000e+002
         vertex 2.378097e+001 7.340688e+001 0.000000e+000
         vertex 1.970562e+001 7.146551e+001 0.000000e+000
      endloop
   endfacet
   facet normal -4.478364e-001 8.941155e-001 0.000000e+000
      outer loop
         vertex 2.378097e+001 7.340688e+001 1.016000e+002
         vertex 1.970562e+001 7.146551e+001 0.000000e+000
         vertex 1.970562e+001 7.146551e+001 1.016000e+002
      endloop
   endfacet
   facet normal -5.169950e-001 8.559884e-001 0.000000e+000
      outer loop
         vertex 1.970562e+001 7.146551e+001 1.016000e+002
         vertex 1.970562e+001 7.146551e+001 0.000000e+000
         vertex 1.588848e+001 6.905575e+001 0.000000e+000
      endloop
   endfacet
   facet normal -5.504430e-001 8.348727e-001 0.000000e+000
      outer loop
         vertex 1.970562e+001 7.146551e+001 1.016000e+002
         vertex 1.588848e+001 6.905575e+001 0.000000e+000
         vertex 1.588848e+001 6.905575e+001 1.016000e+002
      endloop
   endfacet
   facet normal -6.146067e-001 7.888337e-001 0.000000e+000
      outer loop
         vertex 1.588848e+001 6.905575e+001 1.016000e+002
         vertex 1.588848e+001 6.905575e+001 0.000000e+000
         vertex 1.238315e+001 6.621145e+001 0.000000e+000
      endloop
   endfacet
   facet normal -6.453225e-001 7.639102e-001 0.000000e+000
      outer loop
         vertex 1.588848e+001 6.905575e+001 1.016000e+002
         vertex 1.238315e+001 6.621145e+001 0.000000e+000
         vertex 1.238315e+001 6.621145e+001 1.016000e+002
      endloop
   endfacet
   facet normal -7.035907e-001 7.106054e-001 0.000000e+000
      outer loop
         vertex 1.238315e+001 6.621145e+001 1.016000e+002
         vertex 1.238315e+001 6.621145e+001 0.000000e+000
         vertex 9.238822e+000 6.297252e+001 0.000000e+000
      endloop
   endfacet
   facet normal -7.311431e-001 6.822241e-001 0.000000e+000
      outer loop
         vertex 1.238315e+001 6.621145e+001 1.016000e+002
         vertex 9.238822e+000 6.297252e+001 0.000000e+000
         vertex 9.238822e+000 6.297252e+001 1.016000e+002
      endloop
   endfacet
   facet normal -7.826978e-001 6.224019e-001 0.000000e+000
      outer loop
         vertex 9.238822e+000 6.297252e+001 1.016000e+002
         vertex 9.238822e+000 6.297252e+001 0.000000e+000
         vertex 6.499644e+000 5.938444e+001 0.000000e+000
      endloop
   endfacet
   facet normal -8.067001e-001 5.909610e-001 0.000000e+000
      outer loop
         vertex 9.238822e+000 6.297252e+001 1.016000e+002
         vertex 6.499644e+000 5.938444e+001 0.000000e+000
         vertex 6.499644e+000 5.938444e+001 1.016000e+002
      endloop
   endfacet
   facet normal -8.508176e-001 5.254611e-001 0.000000e+000
      outer loop
         vertex 6.499644e+000 5.938444e+001 1.016000e+002
         vertex 6.499644e+000 5.938444e+001 0.000000e+000
         vertex 4.204064e+000 5.549757e+001 0.000000e+000
      endloop
   endfacet
   facet normal -8.709328e-001 4.914021e-001 0.000000e+000
      outer loop
         vertex 6.499644e+000 5.938444e+001 1.016000e+002
         vertex 4.204064e+000 5.549757e+001 0.000000e+000
         vertex 4.204064e+000 5.549757e+001 1.016000e+002
      endloop
   endfacet
   facet normal -9.069937e-001 4.211441e-001 0.000000e+000
      outer loop
         vertex 4.204064e+000 5.549757e+001 1.016000e+002
         vertex 4.204064e+000 5.549757e+001 0.000000e+000
         vertex 2.384312e+000 5.136648e+001 0.000000e+000
      endloop
   endfacet
   facet normal -9.229395e-001 3.849451e-001 0.000000e+000
      outer loop
         vertex 4.204064e+000 5.549757e+001 1.016000e+002
         vertex 2.384312e+000 5.136648e+001 0.000000e+000
         vertex 2.384312e+000 5.136648e+001 1.016000e+002
      endloop
   endfacet
   facet normal -9.504377e-001 3.109151e-001 0.000000e+000
      outer loop
         vertex 2.384312e+000 5.136648e+001 1.016000e+002
         vertex 2.384312e+000 5.136648e+001 0.000000e+000
         vertex 1.065928e+000 4.704916e+001 0.000000e+000
      endloop
   endfacet
   facet normal -9.619902e-001 2.730842e-001 0.000000e+000
      outer loop
         vertex 2.384312e+000 5.136648e+001 1.016000e+002
         vertex 1.065928e+000 4.704916e+001 0.000000e+000
         vertex 1.065928e+000 4.704916e+001 1.016000e+002
      endloop
   endfacet
   facet normal -9.805396e-001 1.963215e-001 0.000000e+000
      outer loop
         vertex 1.065928e+000 4.704916e+001 1.016000e+002
         vertex 1.065928e+000 4.704916e+001 0.000000e+000
         vertex 2.674200e-001 4.260621e+001 0.000000e+000
      endloop
   endfacet
   facet normal -9.875365e-001 1.573898e-001 0.000000e+000
      outer loop
         vertex 1.065928e+000 4.704916e+001 1.016000e+002
         vertex 2.674200e-001 4.260621e+001 0.000000e+000
         vertex 2.674200e-001 4.260621e+001 1.016000e+002
      endloop
   endfacet
   facet normal -9.968768e-001 7.897206e-002 0.000000e+000
      outer loop
         vertex 2.674200e-001 4.260621e+001 1.016000e+002
         vertex 2.674200e-001 4.260621e+001 0.000000e+000
         vertex 0.000000e+000 3.810000e+001 0.000000e+000
      endloop
   endfacet
   facet normal -9.992201e-001 3.948603e-002 0.000000e+000
      outer loop
         vertex 2.674200e-001 4.260621e+001 1.016000e+002
         vertex 0.000000e+000 3.810000e+001 0.000000e+000
         vertex 0.000000e+000 3.810000e+001 1.016000e+002
      endloop
   endfacet
   facet normal -9.992201e-001 -3.948603e-002 0.000000e+000
      outer loop
         vertex 0.000000e+000 3.810000e+001 1.016000e+002
         vertex 0.000000e+000 3.810000e+001 0.000000e+000
         vertex 2.674200e-001 3.359379e+001 0.000000e+000
      endloop
   endfacet
   facet normal -9.968768e-001 -7.897206e-002 0.000000e+000
      outer loop
         vertex 0.000000e+000 3.810000e+001 1.016000e+002
         vertex 2.674200e-001 3.359379e+001 0.000000e+000
         vertex 2.674200e-001 3.359379e+001 1.016000e+002
      endloop
   endfacet
   facet normal -9.875365e-001 -1.573898e-001 0.000000e+000
      outer loop
         vertex 2.674200e-001 3.359379e+001 1.016000e+002
         vertex 2.674200e-001 3.359379e+001 0.000000e+000
         vertex 1.065928e+000 2.915084e+001 0.000000e+000
      endloop
   endfacet
   facet normal -9.805396e-001 -1.963215e-001 0.000000e+000
      outer loop
         vertex 2.674200e-001 3.359379e+001 1.016000e+002
         vertex 1.065928e+000 2.915084e+001 0.000000e+000
         vertex 1.065928e+000 2.915084e+001 1.016000e+002
      endloop
   endfacet
   facet normal -9.619902e-001 -2.730842e-001 0.000000e+000
      outer loop
         vertex 1.065928e+000 2.915084e+001 1.016000e+002
         vertex 1.065928e+000 2.915084e+001 0.000000e+000
         vertex 2.384312e+000 2.483352e+001 0.000000e+000
      endloop
   endfacet
   facet normal -9.504377e-001 -3.109151e-001 0.000000e+000
      outer loop
         vertex 1.065928e+000 2.915084e+001 1.016000e+002
         vertex 2.384312e+000 2.483352e+001 0.000000e+000
         vertex 2.384312e+000 2.483352e+001 1.016000e+002
      endloop
   endfacet
   facet normal -9.229395e-001 -3.849451e-001 0.000000e+000
      outer loop
         vertex 2.384312e+000 2.483352e+001 1.016000e+002
         vertex 2.384312e+000 2.483352e+001 0.000000e+000
         vertex 4.204064e+000 2.070243e+001 0.000000e+000
      endloop
   endfacet
   facet normal -9.069937e-001 -4.211441e-001 0.000000e+000
      outer loop
         vertex 2.384312e+000 2.483352e+001 1.016000e+002
         vertex 4.204064e+000 2.070243e+001 0.000000e+000
         vertex 4.204064e+000 2.070243e+001 1.016000e+002
      endloop
   endfacet
   facet normal -8.709328e-001 -4.914021e-001 0.000000e+000
      outer loop
         vertex 4.204064e+000 2.070243e+001 1.016000e+002
         vertex 4.204064e+000 2.070243e+001 0.000000e+000
         vertex 6.499644e+000 1.681556e+001 0.000000e+000
      endloop
   endfacet
   facet normal -8.508176e-001 -5.254611e-001 0.000000e+000
      outer loop
         vertex 4.204064e+000 2.070243e+001 1.016000e+002
         vertex 6.499644e+000 1.681556e+001 0.000000e+000
         vertex 6.499644e+000 1.681556e+001 1.016000e+002
      endloop
   endfacet
   facet normal -8.067001e-001 -5.909610e-001 0.000000e+000
      outer loop
         vertex 6.499644e+000 1.681556e+001 1.016000e+002
         vertex 6.499644e+000 1.681556e+001 0.000000e+000
         vertex 9.238822e+000 1.322748e+001 0.000000e+000
      endloop
   endfacet
   facet normal -7.826978e-001 -6.224019e-001 0.000000e+000
      outer loop
         vertex 6.499644e+000 1.681556e+001 1.016000e+002
         vertex 9.238822e+000 1.322748e+001 0.000000e+000
         vertex 9.238822e+000 1.322748e+001 1.016000e+002
      endloop
   endfacet
   facet normal -7.311431e-001 -6.822241e-001 0.000000e+000
      outer loop
         vertex 9.238822e+000 1.322748e+001 1.016000e+002
         vertex 9.238822e+000 1.322748e+001 0.000000e+000
         vertex 1.238315e+001 9.988552e+000 0.000000e+000
      endloop
   endfacet
   facet normal -7.035907e-001 -7.106054e-001 0.000000e+000
      outer loop
         vertex 9.238822e+000 1.322748e+001 1.016000e+002
         vertex 1.238315e+001 9.988552e+000 0.000000e+000
         vertex 1.238315e+001 9.988552e+000 1.016000e+002
      endloop
   endfacet
   facet normal -6.453225e-001 -7.639102e-001 0.000000e+000
      outer loop
         vertex 1.238315e+001 9.988552e+000 1.016000e+002
         vertex 1.238315e+001 9.988552e+000 0.000000e+000
         vertex 1.588848e+001 7.144250e+000 0.000000e+000
      endloop
   endfacet
   facet normal -6.146067e-001 -7.888337e-001 0.000000e+000
      outer loop
         vertex 1.238315e+001 9.988552e+000 1.016000e+002
         vertex 1.588848e+001 7.144250e+000 0.000000e+000
         vertex 1.588848e+001 7.144250e+000 1.016000e+002
      endloop
   endfacet
   facet normal -5.504430e-001 -8.348727e-001 0.000000e+000
      outer loop
         vertex 1.588848e+001 7.144250e+000 1.016000e+002
         vertex 1.588848e+001 7.144250e+000 0.000000e+000
         vertex 1.970562e+001 4.734498e+000 0.000000e+000
      endloop
   endfacet
   facet normal -5.169950e-001 -8.559884e-001 0.000000e+000
      outer loop
         vertex 1.588848e+001 7.144250e+000 1.016000e+002
         vertex 1.970562e+001 4.734498e+000 0.000000e+000
         vertex 1.970562e+001 4.734498e+000 1.016000e+002
      endloop
   endfacet
   facet normal -4.478364e-001 -8.941155e-001 0.000000e+000
      outer loop
         vertex 1.970562e+001 4.734498e+000 1.016000e+002
         vertex 1.970562e+001 4.734498e+000 0.000000e+000
         vertex 2.378097e+001 2.793126e+000 0.000000e+000
      endloop
   endfacet
   facet normal -4.121258e-001 -9.111270e-001 0.000000e+000
      outer loop
         vertex 1.970562e+001 4.734498e+000 1.016000e+002
         vertex 2.378097e+001 2.793126e+000 0.000000e+000
         vertex 2.378097e+001 2.793126e+000 1.016000e+002
      endloop
   endfacet
   facet normal -3.389432e-001 -9.408068e-001 0.000000e+000
      outer loop
         vertex 2.378097e+001 2.793126e+000 1.016000e+002
         vertex 2.378097e+001 2.793126e+000 0.000000e+000
         vertex 2.805733e+001 1.347385e+000 0.000000e+000
      endloop
   endfacet
   facet normal -3.014712e-001 -9.534753e-001 0.000000e+000
      outer loop
         vertex 2.378097e+001 2.793126e+000 1.016000e+002
         vertex 2.805733e+001 1.347385e+000 0.000000e+000
         vertex 2.805733e+001 1.347385e+000 1.016000e+002
      endloop
   endfacet
   facet normal -2.252920e-001 -9.742913e-001 0.000000e+000
      outer loop
         vertex 2.805733e+001 1.347385e+000 1.016000e+002
         vertex 2.805733e+001 1.347385e+000 0.000000e+000
         vertex 3.247467e+001 4.175678e-001 0.000000e+000
      endloop
   endfacet
   facet normal -1.865847e-001 -9.824389e-001 0.000000e+000
      outer loop
         vertex 2.805733e+001 1.347385e+000 1.016000e+002
         vertex 3.247467e+001 4.175678e-001 0.000000e+000
         vertex 3.247467e+001 4.175678e-001 1.016000e+002
      endloop
   endfacet
   facet normal -1.084781e-001 -9.940988e-001 0.000000e+000
      outer loop
         vertex 3.247467e+001 4.175678e-001 1.016000e+002
         vertex 3.247467e+001 4.175678e-001 0.000000e+000
         vertex 3.697097e+001 1.673400e-002 0.000000e+000
      endloop
   endfacet
   facet normal -6.907891e-002 -9.976112e-001 0.000000e+000
      outer loop
         vertex 3.247467e+001 4.175678e-001 1.016000e+002
         vertex 3.697097e+001 1.673400e-002 0.000000e+000
         vertex 3.697097e+001 1.673400e-002 1.016000e+002
      endloop
   endfacet
   facet normal 9.858468e-003 -9.999514e-001 0.000000e+000
      outer loop
         vertex 3.697097e+001 1.673400e-002 1.016000e+002
         vertex 3.697097e+001 1.673400e-002 0.000000e+000
         vertex 4.148312e+001 1.505017e-001 0.000000e+000
      endloop
   endfacet
   facet normal 4.939659e-002 -9.987792e-001 0.000000e+000
      outer loop
         vertex 3.697097e+001 1.673400e-002 1.016000e+002
         vertex 4.148312e+001 1.505017e-001 0.000000e+000
         vertex 4.148312e+001 1.505017e-001 1.016000e+002
      endloop
   endfacet
   facet normal 1.280567e-001 -9.917668e-001 0.000000e+000
      outer loop
         vertex 4.148312e+001 1.505017e-001 1.016000e+002
         vertex 4.148312e+001 1.505017e-001 0.000000e+000
         vertex 4.594779e+001 8.169972e-001 0.000000e+000
      endloop
   endfacet
   facet normal 1.671787e-001 -9.859266e-001 0.000000e+000
      outer loop
         vertex 4.148312e+001 1.505017e-001 1.016000e+002
         vertex 4.594779e+001 8.169972e-001 0.000000e+000
         vertex 4.594779e+001 8.169972e-001 1.016000e+002
      endloop
   endfacet
   facet normal 2.444573e-001 -9.696600e-001 0.000000e+000
      outer loop
         vertex 4.594779e+001 8.169972e-001 1.016000e+002
         vertex 4.594779e+001 8.169972e-001 0.000000e+000
         vertex 5.030228e+001 2.006866e+000 0.000000e+000
      endloop
   endfacet
   facet normal 2.826139e-001 -9.592337e-001 0.000000e+000
      outer loop
         vertex 4.594779e+001 8.169972e-001 1.016000e+002
         vertex 5.030228e+001 2.006866e+000 0.000000e+000
         vertex 5.030228e+001 2.006866e+000 1.016000e+002
      endloop
   endfacet
   facet normal 3.574262e-001 -9.339414e-001 0.000000e+000
      outer loop
         vertex 5.030228e+001 2.006866e+000 1.016000e+002
         vertex 5.030228e+001 2.006866e+000 0.000000e+000
         vertex 5.448549e+001 3.703404e+000 0.000000e+000
      endloop
   endfacet
   facet normal 3.940819e-001 -9.190753e-001 0.000000e+000
      outer loop
         vertex 5.030228e+001 2.006866e+000 1.016000e+002
         vertex 5.448549e+001 3.703404e+000 0.000000e+000
         vertex 5.448549e+001 3.703404e+000 1.016000e+002
      endloop
   endfacet
   facet normal 4.653777e-001 -8.851122e-001 0.000000e+000
      outer loop
         vertex 5.448549e+001 3.703404e+000 1.016000e+002
         vertex 5.448549e+001 3.703404e+000 0.000000e+000
         vertex 5.843867e+001 5.882792e+000 0.000000e+000
      endloop
   endfacet
   facet normal 5.000178e-001 -8.660151e-001 0.000000e+000
      outer loop
         vertex 5.448549e+001 3.703404e+000 1.016000e+002
         vertex 5.843867e+001 5.882792e+000 0.000000e+000
         vertex 5.843867e+001 5.882792e+000 1.016000e+002
      endloop
   endfacet
   facet normal 5.667962e-001 -8.238580e-001 0.000000e+000
      outer loop
         vertex 5.843867e+001 5.882792e+000 1.016000e+002
         vertex 5.843867e+001 5.882792e+000 0.000000e+000
         vertex 6.210635e+001 8.514441e+000 0.000000e+000
      endloop
   endfacet
   facet normal 5.989346e-001 -8.007979e-001 0.000000e+000
      outer loop
         vertex 5.843867e+001 5.882792e+000 1.016000e+002
         vertex 6.210635e+001 8.514441e+000 0.000000e+000
         vertex 6.210635e+001 8.514441e+000 1.016000e+002
      endloop
   endfacet
   facet normal 6.602583e-001 -7.510386e-001 0.000000e+000
      outer loop
         vertex 6.210635e+001 8.514441e+000 1.016000e+002
         vertex 6.210635e+001 8.514441e+000 0.000000e+000
         vertex 6.543703e+001 1.156141e+001 0.000000e+000
      endloop
   endfacet
   facet normal 6.894436e-001 -7.243394e-001 0.000000e+000
      outer loop
         vertex 6.210635e+001 8.514441e+000 1.016000e+002
         vertex 6.543703e+001 1.156141e+001 0.000000e+000
         vertex 6.543703e+001 1.156141e+001 1.016000e+002
      endloop
   endfacet
   facet normal 7.444517e-001 -6.676763e-001 0.000000e+000
      outer loop
         vertex 6.543703e+001 1.156141e+001 1.016000e+002
         vertex 6.543703e+001 1.156141e+001 0.000000e+000
         vertex 6.838396e+001 1.498091e+001 0.000000e+000
      endloop
   endfacet
   facet normal 7.702744e-001 -6.377125e-001 0.000000e+000
      outer loop
         vertex 6.543703e+001 1.156141e+001 1.016000e+002
         vertex 6.838396e+001 1.498091e+001 0.000000e+000
         vertex 6.838396e+001 1.498091e+001 1.016000e+002
      endloop
   endfacet
   facet normal 8.181947e-001 -5.749413e-001 0.000000e+000
      outer loop
         vertex 6.838396e+001 1.498091e+001 1.016000e+002
         vertex 6.838396e+001 1.498091e+001 0.000000e+000
         vertex 7.090576e+001 1.872496e+001 0.000000e+000
      endloop
   endfacet
   facet normal 8.402923e-001 -5.421336e-001 0.000000e+000
      outer loop
         vertex 6.838396e+001 1.498091e+001 1.016000e+002
         vertex 7.090576e+001 1.872496e+001 0.000000e+000
         vertex 7.090576e+001 1.872496e+001 1.016000e+002
      endloop
   endfacet
   facet normal 8.804520e-001 -4.741353e-001 0.000000e+000
      outer loop
         vertex 7.090576e+001 1.872496e+001 1.016000e+002
         vertex 7.090576e+001 1.872496e+001 0.000000e+000
         vertex 7.296706e+001 2.274100e+001 0.000000e+000
      endloop
   endfacet
   facet normal 8.985142e-001 -4.389445e-001 0.000000e+000
      outer loop
         vertex 7.090576e+001 1.872496e+001 1.016000e+002
         vertex 7.296706e+001 2.274100e+001 0.000000e+000
         vertex 7.296706e+001 2.274100e+001 1.016000e+002
      endloop
   endfacet
   facet normal 9.303496e-001 -3.666736e-001 0.000000e+000
      outer loop
         vertex 7.296706e+001 2.274100e+001 1.016000e+002
         vertex 7.296706e+001 2.274100e+001 0.000000e+000
         vertex 7.453888e+001 2.697264e+001 0.000000e+000
      endloop
   endfacet
   facet normal 9.441230e-001 -3.295935e-001 0.000000e+000
      outer loop
         vertex 7.296706e+001 2.274100e+001 1.016000e+002
         vertex 7.453888e+001 2.697264e+001 0.000000e+000
         vertex 7.453888e+001 2.697264e+001 1.016000e+002
      endloop
   endfacet
   facet normal 9.671873e-001 -2.540645e-001 0.000000e+000
      outer loop
         vertex 7.453888e+001 2.697264e+001 1.016000e+002
         vertex 7.453888e+001 2.697264e+001 0.000000e+000
         vertex 7.559919e+001 3.136048e+001 0.000000e+000
      endloop
   endfacet
   facet normal 9.764783e-001 -2.156157e-001 0.000000e+000
      outer loop
         vertex 7.453888e+001 2.697264e+001 1.016000e+002
         vertex 7.559919e+001 3.136048e+001 0.000000e+000
         vertex 7.559919e+001 3.136048e+001 1.016000e+002
      endloop
   endfacet
   facet normal 9.904477e-001 -1.378890e-001 0.000000e+000
      outer loop
         vertex 7.559919e+001 3.136048e+001 1.016000e+002
         vertex 7.559919e+001 3.136048e+001 0.000000e+000
         vertex 7.613309e+001 3.584293e+001 0.000000e+000
      endloop
   endfacet
   facet normal 9.951260e-001 -9.861110e-002 0.000000e+000
      outer loop
         vertex 7.559919e+001 3.136048e+001 1.016000e+002
         vertex 7.613309e+001 3.584293e+001 0.000000e+000
         vertex 7.613309e+001 3.584293e+001 1.016000e+002
      endloop
   endfacet
   facet normal 9.992192e-001 -3.950917e-002 0.000000e+000
      outer loop
         vertex 7.613309e+001 3.584293e+001 1.016000e+002
         vertex 7.613309e+001 3.584293e+001 0.000000e+000
         vertex 7.620000e+001 3.810000e+001 1.016000e+002
      endloop
   endfacet
   facet normal 0.000000e+000 0.000000e+000 1.000000e+000
      outer loop
         vertex 7.559919e+001 3.136048e+001 1.016000e+002
         vertex 7.613309e+001 3.584293e+001 1.016000e+002
         vertex 0.000000e+000 3.810000e+001 1.016000e+002
      endloop
   endfacet
   facet normal 0.000000e+000 0.000000e+000 1.000000e+000
      outer loop
         vertex 0.000000e+000 3.810000e+001 1.016000e+002
         vertex 7.613309e+001 3.584293e+001 1.016000e+002
         vertex 7.620000e+001 3.810000e+001 1.016000e+002
      endloop
   endfacet
   facet normal 0.000000e+000 0.000000e+000 1.000000e+000
      outer loop
         vertex 0.000000e+000 3.810000e+001 1.016000e+002
         vertex 7.620000e+001 3.810000e+001 1.016000e+002
         vertex 7.613309e+001 4.035707e+001 1.016000e+002
      endloop
   endfacet
   facet normal 0.000000e+000 0.000000e+000 1.000000e+000
      outer loop
         vertex 7.559919e+001 3.136048e+001 1.016000e+002
         vertex 0.000000e+000 3.810000e+001 1.016000e+002
         vertex 7.453888e+001 2.697264e+001 1.016000e+002
      endloop
   endfacet
   facet normal 0.000000e+000 0.000000e+000 1.000000e+000
      outer loop
         vertex 7.453888e+001 2.697264e+001 1.016000e+002
         vertex 0.000000e+000 3.810000e+001 1.016000e+002
         vertex 2.674200e-001 3.359379e+001 1.016000e+002
      endloop
   endfacet
   facet normal 0.000000e+000 0.000000e+000 1.000000e+000
      outer loop
         vertex 7.453888e+001 2.697264e+001 1.016000e+002
         vertex 2.674200e-001 3.359379e+001 1.016000e+002
         vertex 1.065928e+000 2.915084e+001 1.016000e+002
      endloop
   endfacet
   facet normal 0.000000e+000 0.000000e+000 1.000000e+000
      outer loop
         vertex 1.588848e+001 6.905575e+001 1.016000e+002
         vertex 7.453888e+001 4.922736e+001 1.016000e+002
         vertex 1.970562e+001 7.146551e+001 1.016000e+002
      endloop
   endfacet
   facet normal 0.000000e+000 0.000000e+000 1.000000e+000
      outer loop
         vertex 1.970562e+001 7.146551e+001 1.016000e+002
         vertex 7.453888e+001 4.922736e+001 1.016000e+002
         vertex 2.378097e+001 7.340688e+001 1.016000e+002
      endloop
   endfacet
   facet normal 0.000000e+000 0.000000e+000 1.000000e+000
      outer loop
         vertex 3.697097e+001 1.673400e-002 1.016000e+002
         vertex 4.148312e+001 1.505017e-001 1.016000e+002
         vertex 7.453888e+001 2.697264e+001 1.016000e+002
      endloop
   endfacet
   facet normal 0.000000e+000 0.000000e+000 1.000000e+000
      outer loop
         vertex 5.843867e+001 7.031721e+001 1.016000e+002
         vertex 5.448549e+001 7.249659e+001 1.016000e+002
         vertex 2.378097e+001 7.340688e+001 1.016000e+002
      endloop
   endfacet
   facet normal 0.000000e+000 0.000000e+000 1.000000e+000
      outer loop
         vertex 1.588848e+001 6.905575e+001 1.016000e+002
         vertex 1.238315e+001 6.621145e+001 1.016000e+002
         vertex 7.453888e+001 4.922736e+001 1.016000e+002
      endloop
   endfacet
   facet normal 0.000000e+000 0.000000e+000 1.000000e+000
      outer loop
         vertex 7.453888e+001 4.922736e+001 1.016000e+002
         vertex 1.238315e+001 6.621145e+001 1.016000e+002
         vertex 9.238822e+000 6.297252e+001 1.016000e+002
      endloop
   endfacet
   facet normal 0.000000e+000 0.000000e+000 1.000000e+000
      outer loop
         vertex 7.453888e+001 4.922736e+001 1.016000e+002
         vertex 9.238822e+000 6.297252e+001 1.016000e+002
         vertex 6.499644e+000 5.938444e+001 1.016000e+002
      endloop
   endfacet
   facet normal 0.000000e+000 0.000000e+000 1.000000e+000
      outer loop
         vertex 7.613309e+001 4.035707e+001 1.016000e+002
         vertex 7.559919e+001 4.483952e+001 1.016000e+002
         vertex 0.000000e+000 3.810000e+001 1.016000e+002
      endloop
   endfacet
   facet normal 0.000000e+000 0.000000e+000 1.000000e+000
      outer loop
         vertex 0.000000e+000 3.810000e+001 1.016000e+002
         vertex 7.559919e+001 4.483952e+001 1.016000e+002
         vertex 7.453888e+001 4.922736e+001 1.016000e+002
      endloop
   endfacet
   facet normal 0.000000e+000 0.000000e+000 1.000000e+000
      outer loop
         vertex 0.000000e+000 3.810000e+001 1.016000e+002
         vertex 7.453888e+001 4.922736e+001 1.016000e+002
         vertex 2.674200e-001 4.260621e+001 1.016000e+002
      endloop
   endfacet
   facet normal 0.000000e+000 0.000000e+000 1.000000e+000
      outer loop
         vertex 2.674200e-001 4.260621e+001 1.016000e+002
         vertex 7.453888e+001 4.922736e+001 1.016000e+002
         vertex 1.065928e+000 4.704916e+001 1.016000e+002
      endloop
   endfacet
   facet normal 0.000000e+000 0.000000e+000 1.000000e+000
      outer loop
         vertex 1.588848e+001 7.144250e+000 1.016000e+002
         vertex 1.970562e+001 4.734498e+000 1.016000e+002
         vertex 7.453888e+001 2.697264e+001 1.016000e+002
      endloop
   endfacet
   facet normal 0.000000e+000 0.000000e+000 1.000000e+000
      outer loop
         vertex 7.453888e+001 2.697264e+001 1.016000e+002
         vertex 1.970562e+001 4.734498e+000 1.016000e+002
         vertex 2.378097e+001 2.793126e+000 1.016000e+002
      endloop
   endfacet
   facet normal 0.000000e+000 0.000000e+000 1.000000e+000
      outer loop
         vertex 7.453888e+001 4.922736e+001 1.016000e+002
         vertex 7.296706e+001 5.345900e+001 1.016000e+002
         vertex 2.378097e+001 7.340688e+001 1.016000e+002
      endloop
   endfacet
   facet normal 0.000000e+000 0.000000e+000 1.000000e+000
      outer loop
         vertex 2.378097e+001 7.340688e+001 1.016000e+002
         vertex 7.296706e+001 5.345900e+001 1.016000e+002
         vertex 7.090576e+001 5.747504e+001 1.016000e+002
      endloop
   endfacet
   facet normal 0.000000e+000 0.000000e+000 1.000000e+000
      outer loop
         vertex 2.378097e+001 7.340688e+001 1.016000e+002
         vertex 7.090576e+001 5.747504e+001 1.016000e+002
         vertex 6.838396e+001 6.121909e+001 1.016000e+002
      endloop
   endfacet
   facet normal 0.000000e+000 0.000000e+000 1.000000e+000
      outer loop
         vertex 6.499644e+000 5.938444e+001 1.016000e+002
         vertex 4.204064e+000 5.549757e+001 1.016000e+002
         vertex 7.453888e+001 4.922736e+001 1.016000e+002
      endloop
   endfacet
   facet normal 0.000000e+000 0.000000e+000 1.000000e+000
      outer loop
         vertex 7.453888e+001 4.922736e+001 1.016000e+002
         vertex 4.204064e+000 5.549757e+001 1.016000e+002
         vertex 2.384312e+000 5.136648e+001 1.016000e+002
      endloop
   endfacet
   facet normal 0.000000e+000 0.000000e+000 1.000000e+000
      outer loop
         vertex 7.453888e+001 4.922736e+001 1.016000e+002
         vertex 2.384312e+000 5.136648e+001 1.016000e+002
         vertex 1.065928e+000 4.704916e+001 1.016000e+002
      endloop
   endfacet
   facet normal 0.000000e+000 0.000000e+000 1.000000e+000
      outer loop
         vertex 1.065928e+000 2.915084e+001 1.016000e+002
         vertex 2.384312e+000 2.483352e+001 1.016000e+002
         vertex 7.453888e+001 2.697264e+001 1.016000e+002
      endloop
   endfacet
   facet normal 0.000000e+000 0.000000e+000 1.000000e+000
      outer loop
         vertex 7.453888e+001 2.697264e+001 1.016000e+002
         vertex 2.384312e+000 2.483352e+001 1.016000e+002
         vertex 4.204064e+000 2.070243e+001 1.016000e+002
      endloop
   endfacet
   facet normal 0.000000e+000 0.000000e+000 1.000000e+000
      outer loop
         vertex 7.453888e+001 2.697264e+001 1.016000e+002
         vertex 4.204064e+000 2.070243e+001 1.016000e+002
         vertex 6.499644e+000 1.681556e+001 1.016000e+002
      endloop
   endfacet
   facet normal 0.000000e+000 0.000000e+000 1.000000e+000
      outer loop
         vertex 6.499644e+000 1.681556e+001 1.016000e+002
         vertex 9.238822e+000 1.322748e+001 1.016000e+002
         vertex 7.453888e+001 2.697264e+001 1.016000e+002
      endloop
   endfacet
   facet normal 0.000000e+000 0.000000e+000 1.000000e+000
      outer loop
         vertex 7.453888e+001 2.697264e+001 1.016000e+002
         vertex 9.238822e+000 1.322748e+001 1.016000e+002
         vertex 1.238315e+001 9.988552e+000 1.016000e+002
      endloop
   endfacet
   facet normal 0.000000e+000 0.000000e+000 1.000000e+000
      outer loop
         vertex 7.453888e+001 2.697264e+001 1.016000e+002
         vertex 1.238315e+001 9.988552e+000 1.016000e+002
         vertex 1.588848e+001 7.144250e+000 1.016000e+002
      endloop
   endfacet
   facet normal 0.000000e+000 0.000000e+000 1.000000e+000
      outer loop
         vertex 2.378097e+001 2.793126e+000 1.016000e+002
         vertex 2.805733e+001 1.347385e+000 1.016000e+002
         vertex 7.453888e+001 2.697264e+001 1.016000e+002
      endloop
   endfacet
   facet normal 0.000000e+000 0.000000e+000 1.000000e+000
      outer loop
         vertex 7.453888e+001 2.697264e+001 1.016000e+002
         vertex 2.805733e+001 1.347385e+000 1.016000e+002
         vertex 3.247467e+001 4.175678e-001 1.016000e+002
      endloop
   endfacet
   facet normal 0.000000e+000 0.000000e+000 1.000000e+000
      outer loop
         vertex 7.453888e+001 2.697264e+001 1.016000e+002
         vertex 3.247467e+001 4.175678e-001 1.016000e+002
         vertex 3.697097e+001 1.673400e-002 1.016000e+002
      endloop
   endfacet
   facet normal 0.000000e+000 0.000000e+000 1.000000e+000
      outer loop
         vertex 4.148312e+001 1.505017e-001 1.016000e+002
         vertex 4.594779e+001 8.169972e-001 1.016000e+002
         vertex 7.453888e+001 2.697264e+001 1.016000e+002
      endloop
   endfacet
   facet normal 0.000000e+000 0.000000e+000 1.000000e+000
      outer loop
         vertex 7.453888e+001 2.697264e+001 1.016000e+002
         vertex 4.594779e+001 8.169972e-001 1.016000e+002
         vertex 5.030228e+001 2.006866e+000 1.016000e+002
      endloop
   endfacet
   facet normal 0.000000e+000 0.000000e+000 1.000000e+000
      outer loop
         vertex 7.453888e+001 2.697264e+001 1.016000e+002
         vertex 5.030228e+001 2.006866e+000 1.016000e+002
         vertex 5.448549e+001 3.703404e+000 1.016000e+002
      endloop
   endfacet
   facet normal 0.000000e+000 0.000000e+000 1.000000e+000
      outer loop
         vertex 5.448549e+001 3.703404e+000 1.016000e+002
         vertex 5.843867e+001 5.882792e+000 1.016000e+002
         vertex 7.453888e+001 2.697264e+001 1.016000e+002
      endloop
   endfacet
   facet normal 0.000000e+000 0.000000e+000 1.000000e+000
      outer loop
         vertex 7.453888e+001 2.697264e+001 1.016000e+002
         vertex 5.843867e+001 5.882792e+000 1.016000e+002
         vertex 6.210635e+001 8.514441e+000 1.016000e+002
      endloop
   endfacet
   facet normal 0.000000e+000 0.000000e+000 1.000000e+000
      outer loop
         vertex 7.453888e+001 2.697264e+001 1.016000e+002
         vertex 6.210635e+001 8.514441e+000 1.016000e+002
         vertex 6.543703e+001 1.156141e+001 1.016000e+002
      endloop
   endfacet
   facet normal 0.000000e+000 0.000000e+000 1.000000e+000
      outer loop
         vertex 6.543703e+001 1.156141e+001 1.016000e+002
         vertex 6.838396e+001 1.498091e+001 1.016000e+002
         vertex 7.453888e+001 2.697264e+001 1.016000e+002
      endloop
   endfacet
   facet normal 0.000000e+000 0.000000e+000 1.000000e+000
      outer loop
         vertex 7.453888e+001 2.697264e+001 1.016000e+002
         vertex 6.838396e+001 1.498091e+001 1.016000e+002
         vertex 7.090576e+001 1.872496e+001 1.016000e+002
      endloop
   endfacet
   facet normal 0.000000e+000 0.000000e+000 1.000000e+000
      outer loop
         vertex 7.453888e+001 2.697264e+001 1.016000e+002
         vertex 7.090576e+001 1.872496e+001 1.016000e+002
         vertex 7.296706e+001 2.274100e+001 1.016000e+002
      endloop
   endfacet
   facet normal 0.000000e+000 0.000000e+000 1.000000e+000
      outer loop
         vertex 6.838396e+001 6.121909e+001 1.016000e+002
         vertex 6.543703e+001 6.463860e+001 1.016000e+002
         vertex 2.378097e+001 7.340688e+001 1.016000e+002
      endloop
   endfacet
   facet normal 0.000000e+000 0.000000e+000 1.000000e+000
      outer loop
         vertex 2.378097e+001 7.340688e+001 1.016000e+002
         vertex 6.543703e+001 6.463860e+001 1.016000e+002
         vertex 6.210635e+001 6.768556e+001 1.016000e+002
      endloop
   endfacet
   facet normal 0.000000e+000 0.000000e+000 1.000000e+000
      outer loop
         vertex 2.378097e+001 7.340688e+001 1.016000e+002
         vertex 6.210635e+001 6.768556e+001 1.016000e+002
         vertex 5.843867e+001 7.031721e+001 1.016000e+002
      endloop
   endfacet
   facet normal 0.000000e+000 0.000000e+000 1.000000e+000
      outer loop
         vertex 5.448549e+001 7.249659e+001 1.016000e+002
         vertex 5.030228e+001 7.419314e+001 1.016000e+002
         vertex 2.378097e+001 7.340688e+001 1.016000e+002
      endloop
   endfacet
   facet normal 0.000000e+000 0.000000e+000 1.000000e+000
      outer loop
         vertex 2.378097e+001 7.340688e+001 1.016000e+002
         vertex 5.030228e+001 7.419314e+001 1.016000e+002
         vertex 4.594779e+001 7.538301e+001 1.016000e+002
      endloop
   endfacet
   facet normal 0.000000e+000 0.000000e+000 1.000000e+000
      outer loop
         vertex 2.378097e+001 7.340688e+001 1.016000e+002
         vertex 4.594779e+001 7.538301e+001 1.016000e+002
         vertex 4.148312e+001 7.604950e+001 1.016000e+002
      endloop
   endfacet
   facet normal 0.000000e+000 0.000000e+000 1.000000e+000
      outer loop
         vertex 4.148312e+001 7.604950e+001 1.016000e+002
         vertex 3.697097e+001 7.618327e+001 1.016000e+002
         vertex 2.378097e+001 7.340688e+001 1.016000e+002
      endloop
   endfacet
   facet normal 0.000000e+000 0.000000e+000 1.000000e+000
      outer loop
         vertex 2.378097e+001 7.340688e+001 1.016000e+002
         vertex 3.697097e+001 7.618327e+001 1.016000e+002
         vertex 3.247467e+001 7.578243e+001 1.016000e+002
      endloop
   endfacet
   facet normal 0.000000e+000 0.000000e+000 1.000000e+000
      outer loop
         vertex 2.378097e+001 7.340688e+001 1.016000e+002
         vertex 3.247467e+001 7.578243e+001 1.016000e+002
         vertex 2.805733e+001 7.485262e+001 1.016000e+002
      endloop
   endfacet
   facet normal 0.000000e+000 0.000000e+000 -1.000000e+000
      outer loop
         vertex 2.674200e-001 3.359379e+001 0.000000e+000
         vertex 0.000000e+000 3.810000e+001 0.000000e+000
         vertex 3.247467e+001 4.175678e-001 0.000000e+000
      endloop
   endfacet
   facet normal 0.000000e+000 0.000000e+000 -1.000000e+000
      outer loop
         vertex 7.613309e+001 4.035707e+001 0.000000e+000
         vertex 7.620000e+001 3.810000e+001 0.000000e+000
         vertex 0.000000e+000 3.810000e+001 0.000000e+000
      endloop
   endfacet
   facet normal 0.000000e+000 0.000000e+000 -1.000000e+000
      outer loop
         vertex 7.620000e+001 3.810000e+001 0.000000e+000
         vertex 7.613309e+001 3.584293e+001 0.000000e+000
         vertex 0.000000e+000 3.810000e+001 0.000000e+000
      endloop
   endfacet
   facet normal 0.000000e+000 0.000000e+000 -1.000000e+000
      outer loop
         vertex 0.000000e+000 3.810000e+001 0.000000e+000
         vertex 7.613309e+001 3.584293e+001 0.000000e+000
         vertex 7.559919e+001 3.136048e+001 0.000000e+000
      endloop
   endfacet
   facet normal 0.000000e+000 0.000000e+000 -1.000000e+000
      outer loop
         vertex 0.000000e+000 3.810000e+001 0.000000e+000
         vertex 7.559919e+001 3.136048e+001 0.000000e+000
         vertex 7.453888e+001 2.697264e+001 0.000000e+000
      endloop
   endfacet
   facet normal 0.000000e+000 0.000000e+000 -1.000000e+000
      outer loop
         vertex 3.247467e+001 4.175678e-001 0.000000e+000
         vertex 0.000000e+000 3.810000e+001 0.000000e+000
         vertex 3.697097e+001 1.673400e-002 0.000000e+000
      endloop
   endfacet
   facet normal 0.000000e+000 0.000000e+000 -1.000000e+000
      outer loop
         vertex 0.000000e+000 3.810000e+001 0.000000e+000
         vertex 2.674200e-001 4.260621e+001 0.000000e+000
         vertex 7.613309e+001 4.035707e+001 0.000000e+000
      endloop
   endfacet
   facet normal 0.000000e+000 0.000000e+000 -1.000000e+000
      outer loop
         vertex 7.613309e+001 4.035707e+001 0.000000e+000
         vertex 2.674200e-001 4.260621e+001 0.000000e+000
         vertex 1.065928e+000 4.704916e+001 0.000000e+000
      endloop
   endfacet
   facet normal 0.000000e+000 0.000000e+000 -1.000000e+000
      outer loop
         vertex 7.613309e+001 4.035707e+001 0.000000e+000
         vertex 1.065928e+000 4.704916e+001 0.000000e+000
         vertex 2.384312e+000 5.136648e+001 0.000000e+000
      endloop
   endfacet
   facet normal 0.000000e+000 0.000000e+000 -1.000000e+000
      outer loop
         vertex 2.384312e+000 5.136648e+001 0.000000e+000
         vertex 4.204064e+000 5.549757e+001 0.000000e+000
         vertex 7.613309e+001 4.035707e+001 0.000000e+000
      endloop
   endfacet
   facet normal 0.000000e+000 0.000000e+000 -1.000000e+000
      outer loop
         vertex 7.613309e+001 4.035707e+001 0.000000e+000
         vertex 4.204064e+000 5.549757e+001 0.000000e+000
         vertex 6.499644e+000 5.938444e+001 0.000000e+000
      endloop
   endfacet
   facet normal 0.000000e+000 0.000000e+000 -1.000000e+000
      outer loop
         vertex 7.613309e+001 4.035707e+001 0.000000e+000
         vertex 6.499644e+000 5.938444e+001 0.000000e+000
         vertex 9.238822e+000 6.297252e+001 0.000000e+000
      endloop
   endfacet
   facet normal 0.000000e+000 0.000000e+000 -1.000000e+000
      outer loop
         vertex 9.238822e+000 6.297252e+001 0.000000e+000
         vertex 1.238315e+001 6.621145e+001 0.000000e+000
         vertex 7.613309e+001 4.035707e+001 0.000000e+000
      endloop
   endfacet
   facet normal 0.000000e+000 0.000000e+000 -1.000000e+000
      outer loop
         vertex 7.613309e+001 4.035707e+001 0.000000e+000
         vertex 1.238315e+001 6.621145e+001 0.000000e+000
         vertex 1.588848e+001 6.905575e+001 0.000000e+000
      endloop
   endfacet
   facet normal 0.000000e+000 0.000000e+000 -1.000000e+000
      outer loop
         vertex 7.613309e+001 4.035707e+001 0.000000e+000
         vertex 1.588848e+001 6.905575e+001 0.000000e+000
         vertex 7.559919e+001 4.483952e+001 0.000000e+000
      endloop
   endfacet
   facet normal 0.000000e+000 0.000000e+000 -1.000000e+000
      outer loop
         vertex 7.559919e+001 4.483952e+001 0.000000e+000
         vertex 1.588848e+001 6.905575e+001 0.000000e+000
         vertex 7.453888e+001 4.922736e+001 0.000000e+000
      endloop
   endfacet
   facet normal 0.000000e+000 0.000000e+000 -1.000000e+000
      outer loop
         vertex 6.838396e+001 1.498091e+001 0.000000e+000
         vertex 6.543703e+001 1.156141e+001 0.000000e+000
         vertex 0.000000e+000 3.810000e+001 0.000000e+000
      endloop
   endfacet
   facet normal 0.000000e+000 0.000000e+000 -1.000000e+000
      outer loop
         vertex 0.000000e+000 3.810000e+001 0.000000e+000
         vertex 6.543703e+001 1.156141e+001 0.000000e+000
         vertex 6.210635e+001 8.514441e+000 0.000000e+000
      endloop
   endfacet
   facet normal 0.000000e+000 0.000000e+000 -1.000000e+000
      outer loop
         vertex 2.674200e-001 3.359379e+001 0.000000e+000
         vertex 3.247467e+001 4.175678e-001 0.000000e+000
         vertex 1.065928e+000 2.915084e+001 0.000000e+000
      endloop
   endfacet
   facet normal 0.000000e+000 0.000000e+000 -1.000000e+000
      outer loop
         vertex 1.065928e+000 2.915084e+001 0.000000e+000
         vertex 3.247467e+001 4.175678e-001 0.000000e+000
         vertex 2.805733e+001 1.347385e+000 0.000000e+000
      endloop
   endfacet
   facet normal 0.000000e+000 0.000000e+000 -1.000000e+000
      outer loop
         vertex 1.065928e+000 2.915084e+001 0.000000e+000
         vertex 2.805733e+001 1.347385e+000 0.000000e+000
         vertex 2.378097e+001 2.793126e+000 0.000000e+000
      endloop
   endfacet
   facet normal 0.000000e+000 0.000000e+000 -1.000000e+000
      outer loop
         vertex 7.453888e+001 2.697264e+001 0.000000e+000
         vertex 7.296706e+001 2.274100e+001 0.000000e+000
         vertex 0.000000e+000 3.810000e+001 0.000000e+000
      endloop
   endfacet
   facet normal 0.000000e+000 0.000000e+000 -1.000000e+000
      outer loop
         vertex 0.000000e+000 3.810000e+001 0.000000e+000
         vertex 7.296706e+001 2.274100e+001 0.000000e+000
         vertex 7.090576e+001 1.872496e+001 0.000000e+000
      endloop
   endfacet
   facet normal 0.000000e+000 0.000000e+000 -1.000000e+000
      outer loop
         vertex 0.000000e+000 3.810000e+001 0.000000e+000
         vertex 7.090576e+001 1.872496e+001 0.000000e+000
         vertex 6.838396e+001 1.498091e+001 0.000000e+000
      endloop
   endfacet
   facet normal 0.000000e+000 0.000000e+000 -1.000000e+000
      outer loop
         vertex 6.210635e+001 8.514441e+000 0.000000e+000
         vertex 5.843867e+001 5.882792e+000 0.000000e+000
         vertex 0.000000e+000 3.810000e+001 0.000000e+000
      endloop
   endfacet
   facet normal 0.000000e+000 0.000000e+000 -1.000000e+000
      outer loop
         vertex 0.000000e+000 3.810000e+001 0.000000e+000
         vertex 5.843867e+001 5.882792e+000 0.000000e+000
         vertex 5.448549e+001 3.703404e+000 0.000000e+000
      endloop
   endfacet
   facet normal 0.000000e+000 0.000000e+000 -1.000000e+000
      outer loop
         vertex 0.000000e+000 3.810000e+001 0.000000e+000
         vertex 5.448549e+001 3.703404e+000 0.000000e+000
         vertex 5.030228e+001 2.006866e+000 0.000000e+000
      endloop
   endfacet
   facet normal 0.000000e+000 0.000000e+000 -1.000000e+000
      outer loop
         vertex 2.805733e+001 7.485262e+001 0.000000e+000
         vertex 4.594779e+001 7.538301e+001 0.000000e+000
         vertex 2.378097e+001 7.340688e+001 0.000000e+000
      endloop
   endfacet
   facet normal 0.000000e+000 0.000000e+000 -1.000000e+000
      outer loop
         vertex 2.378097e+001 7.340688e+001 0.000000e+000
         vertex 4.594779e+001 7.538301e+001 0.000000e+000
         vertex 5.030228e+001 7.419314e+001 0.000000e+000
      endloop
   endfacet
   facet normal 0.000000e+000 0.000000e+000 -1.000000e+000
      outer loop
         vertex 5.030228e+001 7.419314e+001 0.000000e+000
         vertex 5.448549e+001 7.249659e+001 0.000000e+000
         vertex 2.378097e+001 7.340688e+001 0.000000e+000
      endloop
   endfacet
   facet normal 0.000000e+000 0.000000e+000 -1.000000e+000
      outer loop
         vertex 2.378097e+001 7.340688e+001 0.000000e+000
         vertex 5.448549e+001 7.249659e+001 0.000000e+000
         vertex 5.843867e+001 7.031721e+001 0.000000e+000
      endloop
   endfacet
   facet normal 0.000000e+000 0.000000e+000 -1.000000e+000
      outer loop
         vertex 2.378097e+001 7.340688e+001 0.000000e+000
         vertex 5.843867e+001 7.031721e+001 0.000000e+000
         vertex 6.210635e+001 6.768556e+001 0.000000e+000
      endloop
   endfacet
   facet normal 0.000000e+000 0.000000e+000 -1.000000e+000
      outer loop
         vertex 5.030228e+001 2.006866e+000 0.000000e+000
         vertex 4.594779e+001 8.169972e-001 0.000000e+000
         vertex 0.000000e+000 3.810000e+001 0.000000e+000
      endloop
   endfacet
   facet normal 0.000000e+000 0.000000e+000 -1.000000e+000
      outer loop
         vertex 0.000000e+000 3.810000e+001 0.000000e+000
         vertex 4.594779e+001 8.169972e-001 0.000000e+000
         vertex 4.148312e+001 1.505017e-001 0.000000e+000
      endloop
   endfacet
   facet normal 0.000000e+000 0.000000e+000 -1.000000e+000
      outer loop
         vertex 0.000000e+000 3.810000e+001 0.000000e+000
         vertex 4.148312e+001 1.505017e-001 0.000000e+000
         vertex 3.697097e+001 1.673400e-002 0.000000e+000
      endloop
   endfacet
   facet normal 0.000000e+000 0.000000e+000 -1.000000e+000
      outer loop
         vertex 2.378097e+001 2.793126e+000 0.000000e+000
         vertex 1.970562e+001 4.734498e+000 0.000000e+000
         vertex 1.065928e+000 2.915084e+001 0.000000e+000
      endloop
   endfacet
   facet normal 0.000000e+000 0.000000e+000 -1.000000e+000
      outer loop
         vertex 1.065928e+000 2.915084e+001 0.000000e+000
         vertex 1.970562e+001 4.734498e+000 0.000000e+000
         vertex 1.588848e+001 7.144250e+000 0.000000e+000
      endloop
   endfacet
   facet normal 0.000000e+000 0.000000e+000 -1.000000e+000
      outer loop
         vertex 1.065928e+000 2.915084e+001 0.000000e+000
         vertex 1.588848e+001 7.144250e+000 0.000000e+000
         vertex 1.238315e+001 9.988552e+000 0.000000e+000
      endloop
   endfacet
   facet normal 0.000000e+000 0.000000e+000 -1.000000e+000
      outer loop
         vertex 6.210635e+001 6.768556e+001 0.000000e+000
         vertex 6.543703e+001 6.463860e+001 0.000000e+000
         vertex 2.378097e+001 7.340688e+001 0.000000e+000
      endloop
   endfacet
   facet normal 0.000000e+000 0.000000e+000 -1.000000e+000
      outer loop
         vertex 2.378097e+001 7.340688e+001 0.000000e+000
         vertex 6.543703e+001 6.463860e+001 0.000000e+000
         vertex 6.838396e+001 6.121909e+001 0.000000e+000
      endloop
   endfacet
   facet normal 0.000000e+000 0.000000e+000 -1.000000e+000
      outer loop
         vertex 2.378097e+001 7.340688e+001 0.000000e+000
         vertex 6.838396e+001 6.121909e+001 0.000000e+000
         vertex 7.090576e+001 5.747504e+001 0.000000e+000
      endloop
   endfacet
   facet normal 0.000000e+000 0.000000e+000 -1.000000e+000
      outer loop
         vertex 1.238315e+001 9.988552e+000 0.000000e+000
         vertex 9.238822e+000 1.322748e+001 0.000000e+000
         vertex 1.065928e+000 2.915084e+001 0.000000e+000
      endloop
   endfacet
   facet normal 0.000000e+000 0.000000e+000 -1.000000e+000
      outer loop
         vertex 1.065928e+000 2.915084e+001 0.000000e+000
         vertex 9.238822e+000 1.322748e+001 0.000000e+000
         vertex 6.499644e+000 1.681556e+001 0.000000e+000
      endloop
   endfacet
   facet normal 0.000000e+000 0.000000e+000 -1.000000e+000
      outer loop
         vertex 1.065928e+000 2.915084e+001 0.000000e+000
         vertex 6.499644e+000 1.681556e+001 0.000000e+000
         vertex 2.384312e+000 2.483352e+001 0.000000e+000
      endloop
   endfacet
   facet normal 0.000000e+000 0.000000e+000 -1.000000e+000
      outer loop
         vertex 2.384312e+000 2.483352e+001 0.000000e+000
         vertex 6.499644e+000 1.681556e+001 0.000000e+000
         vertex 4.204064e+000 2.070243e+001 0.000000e+000
      endloop
   endfacet
   facet normal 0.000000e+000 0.000000e+000 -1.000000e+000
      outer loop
         vertex 2.805733e+001 7.485262e+001 0.000000e+000
         vertex 3.247467e+001 7.578243e+001 0.000000e+000
         vertex 4.594779e+001 7.538301e+001 0.000000e+000
      endloop
   endfacet
   facet normal 0.000000e+000 0.000000e+000 -1.000000e+000
      outer loop
         vertex 4.594779e+001 7.538301e+001 0.000000e+000
         vertex 3.247467e+001 7.578243e+001 0.000000e+000
         vertex 3.697097e+001 7.618327e+001 0.000000e+000
      endloop
   endfacet
   facet normal 0.000000e+000 0.000000e+000 -1.000000e+000
      outer loop
         vertex 4.594779e+001 7.538301e+001 0.000000e+000
         vertex 3.697097e+001 7.618327e+001 0.000000e+000
         vertex 4.148312e+001 7.604950e+001 0.000000e+000
      endloop
   endfacet
   facet normal 0.000000e+000 0.000000e+000 -1.000000e+000
      outer loop
         vertex 1.588848e+001 6.905575e+001 0.000000e+000
         vertex 1.970562e+001 7.146551e+001 0.000000e+000
         vertex 7.453888e+001 4.922736e+001 0.000000e+000
      endloop
   endfacet
   facet normal 0.000000e+000 0.000000e+000 -1.000000e+000
      outer loop
         vertex 7.453888e+001 4.922736e+001 0.000000e+000
         vertex 1.970562e+001 7.146551e+001 0.000000e+000
         vertex 2.378097e+001 7.340688e+001 0.000000e+000
      endloop
   endfacet
   facet normal 0.000000e+000 0.000000e+000 -1.000000e+000
      outer loop
         vertex 7.453888e+001 4.922736e+001 0.000000e+000
         vertex 2.378097e+001 7.340688e+001 0.000000e+000
         vertex 7.296706e+001 5.345900e+001 0.000000e+000
      endloop
   endfacet
   facet normal 0.000000e+000 0.000000e+000 -1.000000e+000
      outer loop
         vertex 7.296706e+001 5.345900e+001 0.000000e+000
         vertex 2.378097e+001 7.340688e+001 0.000000e+000
         vertex 7.090576e+001 5.747504e+001 0.000000e+000
      endloop
   endfacet
endsolid